<svg width="130" height="130" fill="none" xmlns="http://www.w3.org/2000/svg"><path d="m64.014 5.465-26.9 28.093L1.786 50.13c-.717.355-.986 1.241-.628 1.862l18.65 34.03 5.112 38.373a1.31 1.31 0 0 0 1.614 1.152L65 118.458l38.467 7.089a1.31 1.31 0 0 0 1.614-1.152l5.11-38.373 18.651-33.942c.359-.709.09-1.595-.628-1.86L92.886 33.557l-26.9-28.093c-.448-.62-1.434-.62-1.972 0Z" fill="#6EDBFF"/><path d="M83.74 13.618 28.237 26.912c-2.42.62-4.393 3.544-4.393 6.558v52.02c0 3.014 4.304 4.974 6.635 3.91l7.173-4.796 5.65 11.255 2.868-.089 3.049-16.483 34.97-16.04c2.33-1.064 4.393-3.9 6.007-5.052l1.345-40.677c-1.524-3.634-5.38-4.431-7.8-3.9Z" fill="#000" stroke="" stroke-miterlimit="10" stroke-linecap="round" stroke-linejoin="round"/><path d="m87.506 14.948-56.04 13.559c-2.332.532-4.305 3.456-4.305 6.38v50.78c0 2.925 1.883 4.52 4.214 3.457l9.236-4.343 5.56 10.99 5.738-16.218 34.073-15.686c2.331-1.064 4.214-3.81 4.304-6.115l1.345-39.703c.09-2.215-1.704-3.633-4.125-3.101Z" fill="#fff" stroke="#000" stroke-miterlimit="10" stroke-linecap="round" stroke-linejoin="round"/><path d="m27.5 44.5 63.772-17.411s1.345-11.166-1.255-12.23C87.417 13.884 29 29.5 29 29.5c-2 4.5-2.217 9.683-1.5 15ZM101.135 69.096S94.59 51.46 78.091 51.903L71.5 46.5l-10.355 1.06 2.6 10.103s-6.097 3.811-6.904 6.115c-.841 3.722 4.124 2.039 4.124 2.039s-4.483 6.38-3.317 7.976c1.165 1.595 4.214-1.241 4.214-1.241s-3.407 3.279-1.525 6.824c1.973 3.544 7.353-6.204 7.353-6.204L84.368 87.53l16.767-18.433Z" fill="#6EDBFF"/><path d="m78.45 30.634 12.822-3.457M27.61 44.193 72.89 32.14M91.27 27.18l.36-9.042c.09-2.304-1.793-3.722-4.124-3.19l-56.04 13.559c-2.332.532-4.305 3.456-4.305 6.38V45.08" stroke="#000" stroke-miterlimit="10" stroke-linecap="round" stroke-linejoin="round"/><path d="M31.914 38.432c-.807-.974-.359-3.013 1.076-4.52 1.434-1.594 3.317-2.037 4.124-1.151.807.974.359 3.013-1.076 4.52-1.434 1.595-3.317 2.126-4.124 1.151Z" fill="#000" stroke="#000" stroke-miterlimit="10" stroke-linecap="round" stroke-linejoin="round"/><path d="M40.611 36.217c-.896-.975-.448-3.102.987-4.608 1.434-1.596 3.407-2.039 4.304-1.064.896.975.448 3.102-.987 4.608-1.524 1.596-3.407 2.127-4.304 1.064Z" stroke="#000" stroke-miterlimit="10" stroke-linecap="round" stroke-linejoin="round"/><path d="M49.13 33.913c-.897-.975-.449-2.925.986-4.431 1.434-1.507 3.228-1.95 4.124-.975.897.975.449 2.924-.986 4.43-1.345 1.419-3.228 1.862-4.124.976Z" stroke="#fff" stroke-miterlimit="10" stroke-linecap="round" stroke-linejoin="round"/><path d="M61.234 72.906c-.628 0-1.166-.62-1.255-1.24-.18-.62 0-1.241.18-1.861.447-1.507 1.254-2.925 2.24-4.077-.896.266-1.882.443-2.779.709-1.076 1.595-1.704 3.456-1.973 5.406-.09.62-.09 1.33.36 1.86.358.444 1.075.532 1.613.355.538-.088 1.166-.886 1.614-1.152Z" fill="#fff"/><path d="M60.427 73.438a16.101 16.101 0 0 0 .18 5.495c.089.354.179.62.268.886.09.266.449.443.807.443.449 0 .807-.443 1.076-.798.449-.62.897-1.329 1.345-1.95-.179.444-.807.267-1.255.09-.359-.178-.628-.532-.897-.976-.627-1.063-1.255-1.95-1.524-3.19ZM65.718 59.524c-1.794.532-3.498 1.152-4.932 2.305-1.435 1.152-2.51 2.924-2.331 4.696-.807.266-1.614-.443-1.973-1.152-.359-.797-.18-1.683.269-2.392.448-.71 1.076-1.33 1.793-1.861 1.166-.975 2.421-1.773 3.677-2.57.717-.444 1.614-.887 2.42-.71.718.266.718.975 1.076 1.684ZM75.67 53.41c5.65-.798 11.567.709 16.05 4.165 4.484 3.456 7.532 8.685 8.16 14.268.628.709 1.076 1.418 1.704 2.127.538-5.672-1.345-11.255-5.111-15.509s-9.326-6.913-15.064-7.09c-2.152-.088-4.394.355-5.739 2.038Z" fill="#fff"/><mask id="mask0_6570_19302" style="mask-type:alpha" maskUnits="userSpaceOnUse" x="1" y="5" width="128" height="121"><path d="m64.014 5.465-26.9 28.093L1.786 50.13c-.717.355-.986 1.241-.628 1.862l18.65 34.03 5.111 38.373a1.31 1.31 0 0 0 1.614 1.152L65 118.458l38.466 7.089a1.309 1.309 0 0 0 1.614-1.152l5.111-38.373 18.651-33.942c.358-.709.089-1.595-.628-1.86L92.886 33.557l-26.9-28.093c-.448-.62-1.434-.62-1.972 0Z" fill="#FFE84D"/></mask><g mask="url(#mask0_6570_19302)"><path d="M99.79 133.612c-7.532.975-15.96-1.861-21.25-7.267-4.394-4.431-8.519-9.305-11.298-14.8-1.525-3.013-2.6-6.292-3.228-9.571h.09c2.959 3.456 7.262 5.672 11.656 6.647 4.483.975 9.146.709 13.54-.355 1.165-.266 2.33-.62 3.227-1.24.718-.444 1.345-1.153 1.614-1.95-.358 2.304-.627 8.685 7.443 14.8 1.434 1.063 3.497 2.836 4.393 4.431.897 1.595 1.166 3.545.538 5.228-.807 2.57-3.855 3.723-6.725 4.077Z" fill="#000"/><path d="M94.141 104.101s-.09.355-.18.886c-.358 2.304-.627 8.685 7.443 14.8 1.435 1.063 3.497 2.836 4.394 4.431.896 1.595 1.165 3.545.538 5.229-1.076 2.57-4.125 3.722-6.994 4.076-7.532.975-15.96-1.861-21.25-7.267-4.394-4.431-8.519-9.305-11.299-14.799-1.524-3.014-2.6-6.293-3.228-9.572a23.836 23.836 0 0 1-.269-6.203c.09-.798.18-1.507.27-2.304.627-3.545 1.972-6.913 3.138-10.28 1.076-3.368 2.014-7.756 1.387-11.3" stroke="#000" stroke-miterlimit="10" stroke-linecap="round" stroke-linejoin="round"/></g><path d="M112.702 96.037c-3.407 3.544-7.98 4.608-10.222 2.48-.089-.088-.179-.176-.269-.354-1.883-2.215-.896-6.558 2.332-9.925 3.407-3.545 7.98-4.609 10.221-2.482 2.242 2.127 1.256 6.736-2.062 10.28Zm-6.276-1.596c.807.71 2.421.355 3.586-.886 1.166-1.24 1.524-2.836.717-3.633-.806-.71-2.42-.355-3.586.886-1.166 1.24-1.524 2.836-.717 3.633Z" fill="#fff"/><path d="M94.052 89.39c-.987-1.152-1.166-3.013-.538-4.963.448-1.507 1.434-3.013 2.69-4.342l.269-.266c1.524-1.507 3.228-2.482 4.752-2.925 1.793-.532 3.407-.354 4.573.62l.09.09 8.876 8.241c-2.241-2.127-6.814-.975-10.221 2.481-3.228 3.368-4.215 7.622-2.332 9.926l-5.559-6.026-2.6-2.836Z" fill="#6EDBFF"/><path d="M109.653 93.82c-1.165 1.242-2.779 1.596-3.586.887-.807-.709-.448-2.393.717-3.633 1.166-1.241 2.78-1.596 3.587-.887.807.798.538 2.393-.718 3.634Z" fill="#000"/><path d="M69.214 47.117c-1.165.444-2.42 1.241-3.586 2.393-1.255 1.33-2.063 2.836-2.331 4.165-.18.71-.18 1.33 0 1.861l-2.063-6.114c-.09-1.241.359-2.393 1.255-3.28.897-.886 2.063-1.329 3.229-1.24l6.455 1.95c-.807-.178-1.883-.09-2.959.265Z" fill="#fff"/><path d="m61.503 49.687-2.242-6.558 6.725 2.039c-1.255-.089-2.42.443-3.228 1.24-.896.887-1.345 2.127-1.255 3.28Z" fill="#000"/><path d="M90.734 61.474c-.897-.177-2.51-.443-3.407-.709-1.973-.532-3.945-1.24-5.828-2.038-1.435-.62-2.78-1.418-4.035-2.216-.987-.62-2.25-1.515-1.973-2.836.045-.214.086-.333.18-.531.242-.512.516-.747.986-1.064.35-.236.582-.319.986-.443.341-.105.544-.12.897-.177 1.142-.188 1.972-.177 2.959-.177 2.69.088 5.38.797 7.8 1.86 4.394 1.95 7.263 5.14 9.505 8.951 2.152 3.634 3.228 7.888 3.138 12.142" stroke="#000" stroke-miterlimit="10" stroke-linecap="round" stroke-linejoin="round"/><path d="m105.439 77.603-3.587-3.367-14.33-13.372M114.406 85.934l-8.877-8.242M77.464 51.549 73.34 47.74M101.853 98.34l-5.56-6.026-2.6-2.836-7.442-8.153M71.544 65.459l-.088-.174-1.614-1.684-5.739-6.204M114.406 85.934c2.241 2.127 1.345 6.646-2.063 10.191-3.407 3.545-7.98 4.608-10.221 2.481-.09-.088-.18-.177-.269-.354-1.883-2.216-.897-6.558 2.331-9.926 3.407-3.367 7.98-4.52 10.222-2.392Z" stroke="#000" stroke-miterlimit="10" stroke-linecap="round" stroke-linejoin="round"/><path d="M106.157 94.53c-.807-.71-.449-2.393.717-3.634 1.166-1.24 2.779-1.595 3.586-.886.807.798.449 2.393-.717 3.634-1.165 1.24-2.779 1.595-3.586.886ZM93.962 89.744l-.27-.266c-.985-1.152-1.165-3.013-.537-4.962.448-1.507 1.435-3.014 2.69-4.343l.269-.266c1.524-1.506 3.228-2.481 4.752-2.924 1.793-.532 3.407-.355 4.573.62l.09.089M73.339 47.738c-.359-.266-.717-.532-1.166-.62-.896-.267-1.972-.178-3.048.177-1.166.443-2.421 1.24-3.587 2.392-1.255 1.33-2.062 2.836-2.331 4.166-.18.709-.174 1.155 0 1.86.178.725.448 1.244.896 1.687M86.878 83.275s-.269-.798-.717-1.95c-.628-1.684-1.524-4.254-2.78-6.912-2.6-5.85-6.276-12.319-9.594-11.432-.358.088-.627.265-.896.531-.538.532-.807 1.418-.897 2.57-.18 2.659.717 6.647 1.614 10.37.896 3.898.269 7.975-1.704 11.431-1.345 2.304-2.51 5.406-2.6 9.483M96.293 92.314c-1.973 2.748-3.586 5.76-4.124 9.128a16.225 16.225 0 0 0 .09 5.495" stroke="#000" stroke-miterlimit="10" stroke-linecap="round" stroke-linejoin="round"/><path d="M92.348 101.442c1.166.266 1.883 1.507 1.793 2.659 0 .355-.09.62-.179.886-.269.798-.897 1.418-1.614 1.95-.986.62-2.152.975-3.228 1.241-4.394 1.063-9.146 1.329-13.54.354-4.483-.975-8.921-3.19-11.88-6.647M61.234 49.687l1.855 5.501M65.807 45.168l-6.725-2.039 2.152 6.558M72.263 47.13l-6.456-1.962M64.103 57.397s-8.876 5.406-7.8 8.065c.358.798 1.882.975 3.676.798 3.945-.444 9.591-2.752 9.591-2.752M60.068 66.26s-4.124 5.76-2.33 7.444c.537.532 1.434.354 2.51-.177 3.497-1.773 9.413-7.714 11.296-8.068M60.427 73.704s-.986 5.583 1.076 6.38c1.524.62 3.945-4.962 6.366-8.241.807-1.064 1.614-1.95 2.421-2.216" stroke="#000" stroke-miterlimit="10" stroke-linecap="round" stroke-linejoin="round"/><path d="M65.807 45.168c-1.255-.089-2.42.443-3.318 1.24-.896.887-1.344 2.039-1.255 3.28M96.114 79.819 65.628 49.687M69.214 47.295l6.367 5.937M100.777 76.628 81.499 58.727M72.98 63.424 63.5 53.5M93.065 84.427l-9.594-10.014M59.082 43.13s-.986 3.278-5.021 11.343c-2.242 4.52-4.304 6.203-5.65 6.735-1.075.443-2.42 0-2.958-.975-1.255-2.215-.807-6.469.448-8.153.538-.709 1.614-.532 1.883.355 1.435 4.874-4.931 14.445-8.249 14.888-3.587.532-3.318-10.634-.359-10.546 2.96.177 0 6.38-1.524 9.394-1.614 3.013-3.318 5.14-3.318 5.14" stroke="#000" stroke-miterlimit="10" stroke-linecap="round" stroke-linejoin="round"/></svg>