<svg width="178" height="172" fill="none" xmlns="http://www.w3.org/2000/svg"><path fill="" d="M6 0h172v172H6z"/><path d="m134.231 141.047 6.654 18.179c.475 1.188-.475 2.376-1.664 2.376H45.236c-1.188 0-2.139-1.188-1.663-2.376l6.654-18.179c-18.18-13.07-30.061-34.339-30.061-58.459 0-39.804 32.2-72.003 72.003-72.003 39.804 0 72.004 32.2 72.004 72.003 0 24.002-11.882 45.389-29.942 58.459Z" fill="#FFE84D"/><path d="m78.624 72.252 79.846 27.804c3.684 1.307 7.724-.594 9.031-4.278l.118-.356c1.307-3.683-.594-7.723-4.396-9.03l-1.069-.357c1.544-4.515 3.564-9.861 4.515-12.594.832-2.377-.357-5.11-2.852-6.06-2.376-.832-5.109.356-6.06 2.733l-5.109 12.713-3.802-1.307 2.139-6.416c.713-2.257-.475-4.753-2.733-5.466-2.139-.712-4.753.357-5.584 2.496l-2.614 6.535-53.945-18.764-1.474-.55" fill="#FFE84D"/><path d="m78.624 72.252 79.846 27.804c3.684 1.307 7.724-.594 9.031-4.278l.118-.356c1.307-3.683-.594-7.723-4.396-9.03l-1.069-.357c1.544-4.515 3.564-9.861 4.515-12.594.832-2.377-.357-5.11-2.852-6.06-2.376-.832-5.109.356-6.06 2.733l-5.109 12.713-3.802-1.307 2.139-6.416c.713-2.257-.475-4.753-2.733-5.466-2.139-.712-4.753.357-5.584 2.496l-2.614 6.535-53.945-18.764-1.474-.55" stroke="#000" stroke-miterlimit="10" stroke-linecap="round" stroke-linejoin="round"/><path d="M112.368 60.488c-1.426.237-2.733.831-4.04 1.663l.238-.713c-.713-1.663-2.614-2.733-4.515-2.852-1.545-.118-2.971.238-4.278.951-1.188-1.307-3.445-1.545-5.228-.95-1.782.712-3.089 2.138-4.04 3.683-3.326 4.99-3.683 11.406-1.069 16.753.594 1.07 1.307 2.258 2.376 2.852 1.189.594 2.733.594 3.684-.357l.119-.713c.594.951 1.188 1.902 2.02 2.614.712.713 1.9.951 2.851.713 1.07-.237 2.139-1.307 1.901-4.04.357 1.189.832 2.258 1.545 3.09.951 1.188 2.376 2.02 3.802 2.02 1.07 0 1.545-.713 1.901-1.545a3.292 3.292 0 0 0 0-2.139c-2.257-5.94 3.565-12.357 5.822-12.119l2.733-6.773c-1.307-1.782-3.564-2.495-5.822-2.138Z" fill="#FFE84D"/><path d="M95.377 80.57c-.237.475-.95.475-1.425.356-1.426-.476-2.14-2.02-2.733-3.327-1.307-3.565-1.664-7.605-.476-11.17 1.189-3.564 4.278-6.653 8.08-7.366-2.376-1.07-5.11-.475-7.01 1.188-1.901 1.664-3.09 4.278-3.565 6.773-.832 3.683-.475 7.604.832 11.05.356.95.832 1.901 1.545 2.614.713.713 1.544 1.307 2.614 1.426.95.119 2.814-.44 2.138-1.545Z" fill="#fff"/><path d="M126.745 67.376c-1.901 1.902-3.09 4.278-4.634 7.843-2.139 4.633-3.684 5.346-5.228 4.99-5.585-2.733.475-17.229 4.277-20.08.475-.357.832-.594 1.307-.832l4.278 8.08Z" fill="#FFE84D"/><path d="M130.548 61.679c-.594-.357-.95-.595-1.188-.595-2.139-.594-4.04-.237-5.941 1.426-3.208 2.377-7.961 12.833-6.179 17.823h-.237c-5.585-2.733.475-17.229 4.277-20.08 1.901-1.664 3.803-2.02 5.941-1.307.357 0 1.901.594 3.327 2.733Z" fill="#fff"/><path d="M126.745 67.382c-1.901 1.901-3.09 4.278-4.634 7.842-2.139 4.634-3.684 5.347-5.228 4.99-5.585-2.732.475-17.228 4.277-20.08 1.901-1.663 3.802-2.02 5.941-1.426 1.188.357 6.535 2.97 6.535 16.873" stroke="#000" stroke-miterlimit="10" stroke-linecap="round" stroke-linejoin="round"/><path d="M109.279 84.253c-1.664.357-3.446-.713-4.278-2.138-.831-1.426-1.069-3.209-1.069-4.99 0-2.615.475-5.11 1.545-7.486 1.069-2.377 2.732-4.397 4.99-5.704 2.258-1.307 4.99-1.782 7.486-.95-.238-.95-1.189-1.664-2.139-2.02-2.733-.95-5.822-.357-8.199 1.307-2.376 1.663-3.921 4.277-4.752 7.129-.832 2.852-.832 5.703-.476 8.555.119 1.188.357 2.495.832 3.564.475 1.07 1.307 2.14 2.376 2.733 1.07.594 2.614.594 3.684 0Z" fill="#fff"/><path d="M100.13 83.66c-1.07-.475-1.782-1.544-2.257-2.614-1.783-4.04-2.496-8.555-1.307-12.832 1.188-4.278 4.396-7.961 8.555-9.268-2.852-.475-5.585.594-7.724 2.614-2.02 2.02-3.327 4.753-3.683 7.604-.356 2.852.119 5.822.95 8.555.476 1.307.951 2.614 1.783 3.802.831 1.07 3.29 3.468 3.683 2.14Z" fill="#fff"/><path d="M115.695 69.396c-2.257-.238-7.961 6.178-5.822 12.12a3.292 3.292 0 0 1 0 2.138c-.356.95-.832 1.545-1.901 1.545-1.426 0-2.852-.832-3.802-2.02-.951-1.188-1.545-2.733-1.901-4.278-1.188-5.465.594-11.525 4.277-15.208 1.664-1.664 3.565-2.852 5.822-3.09 2.139-.356 4.515.357 6.06 2.139" stroke="#000" stroke-miterlimit="10" stroke-linecap="round" stroke-linejoin="round"/><path d="M108.803 61.318c-.831-1.544-2.614-2.733-4.515-2.851-1.901-.12-3.802.594-5.346 1.663-1.545 1.188-2.614 2.614-3.446 4.277-1.545 3.09-2.139 6.417-1.782 9.743.356 3.327 1.663 7.01 4.158 9.268.713.713 1.782.95 2.852.713.914-.228 2.049-1.227 1.922-3.736" stroke="#000" stroke-miterlimit="10" stroke-linecap="round" stroke-linejoin="round"/><path d="M80.288 116.687c1.07-12.239 4.634-24.358 10.575-35.17-.594-.951-1.07-2.02-1.664-3.09-5.822 10.456-9.743 22.1-11.05 33.982-.238 1.664 1.307 2.852 2.139 4.278Z" fill="#fff"/><path d="M99.892 59.422c-1.188-1.307-3.446-1.545-5.228-.95-1.782.712-3.09 2.138-4.04 3.683-3.327 4.99-3.683 11.406-1.07 16.753.595 1.07 1.308 2.258 2.377 2.852 1.188.594 2.733.594 3.684-.357M89.2 78.427c-4.667 8.99-8.304 18.458-10.458 28.293-.095.434-.278 2.879-.368 3.315" stroke="#000" stroke-miterlimit="10" stroke-linecap="round" stroke-linejoin="round"/><path d="M46.305 11.416c-22.338-.95-41.23 15.209-42.18 36.002v2.02c.237 20.08 17.347 36.596 38.972 37.546 21.625.95 40.042-14.14 41.943-33.982.118-.713.118-1.426.118-2.02.951-20.912-16.515-38.616-38.853-39.566Zm28.279 39.091c0 .713-.12 1.426-.238 2.139-1.663 14.377-15.09 25.19-30.893 24.476C27.65 76.41 15.175 64.528 14.7 50.032v-2.02c.713-15.565 14.615-27.447 31.13-26.734 16.635.713 29.468 13.783 28.755 29.23Z" fill="#FFE84D"/><path d="M74.584 50.509c0 .713-.12 1.426-.12 2.02-.474-14.496-12.95-26.497-28.753-27.21-15.803-.594-29.23 10.219-31.012 24.714v-2.02c.713-15.565 14.615-27.446 31.13-26.733 16.635.712 29.467 13.782 28.755 29.229Z" fill="#000"/><path d="M85.04 53.002v2.02c-.95 20.912-19.842 37.071-42.18 36.12C20.522 90.073 3.056 72.489 4.006 51.576c0-.713.12-1.426.12-2.02.237 19.962 17.346 36.477 38.971 37.428 21.625.95 39.923-14.14 41.943-33.982Z" fill="#000" stroke="#000" stroke-miterlimit="10" stroke-linecap="round" stroke-linejoin="round"/><path d="M73.514 22.704c-6.653-5.228-15.208-8.555-24.595-8.912-22.338-1.07-41.23 15.09-42.062 36.002v2.02c.12 10.1 4.515 19.249 11.644 26.021-8.673-6.891-14.258-16.99-14.376-28.278v-2.02c.95-20.912 19.842-37.072 42.18-36.121 10.694.475 20.2 4.753 27.21 11.288Z" fill="#fff"/><path d="M46.305 11.416c-22.338-.95-41.23 15.209-42.18 36.002v2.02c.237 20.08 17.347 36.596 38.972 37.546 21.625.95 40.042-14.14 41.943-33.982.118-.713.118-1.426.118-2.02.951-20.912-16.515-38.616-38.853-39.566Z" stroke="#000" stroke-miterlimit="10" stroke-linecap="round" stroke-linejoin="round"/><path d="M100.605 105.993c4.277-5.465 11.05-8.911 17.942-9.03 4.633-6.297 18.179-17.704 21.387-14.733 3.683 3.564-6.416 16.159-9.624 22.1-2.971 5.584-5.585 11.406-7.486 17.466l-22.219-15.803Z" fill="#FFE84D"/><path d="M118.891 97.144c3.683-3.315 8.805-7.902 14.152-10.635 1.188-.594 2.495-1.188 3.802-1.188s2.733.713 3.327 1.901c.356-.831.594-1.782.594-2.732 0-.951-.238-2.02-.95-2.614-.595-.476-1.545-.595-2.377-.476-.832.12-1.544.476-2.257.832-6.773 3.565-17.398 13.142-16.291 14.912Z" fill="#fff"/><mask id="a" style="mask-type:alpha" maskUnits="userSpaceOnUse" x="20" y="10" width="145" height="152"><path d="m134.232 141.047 6.653 18.179c.476 1.188-.475 2.376-1.663 2.376H45.237c-1.189 0-2.14-1.188-1.664-2.376l6.654-18.179c-18.18-13.07-30.061-34.339-30.061-58.459 0-39.804 32.2-72.003 72.004-72.003s72.004 32.2 72.004 72.003c0 24.002-11.882 45.389-29.942 58.459Z" fill="#6EDBFF"/></mask><g mask="url(#a)"><path d="M119.972 133.635c-1.188 9.149-1.782 19.772-1.307 28.683H79.693c-4.396-17.585-4.634-37.713-.95-55.417 2.138 9.031 9.386 16.635 18.297 19.368 8.793 2.733 18.892.594 25.784-5.347a75.829 75.829 0 0 0-2.852 12.713Z" fill="#000" stroke="#000" stroke-miterlimit="10" stroke-linecap="round" stroke-linejoin="round"/></g><path d="M101.08 106.23c5.228-4.04 11.026-7.292 17.442-8.718-.95-.594-1.877-.43-3.065-.193-4.99.713-9.743 3.208-13.308 6.891-.594.594-.95 1.189-1.069 2.02Z" fill="#fff"/><path d="M100.605 105.993c4.277-5.465 11.05-8.911 17.942-9.03 4.633-6.297 18.179-17.704 21.387-14.733 3.683 3.564-6.416 16.159-9.624 22.1-2.971 5.584-6.204 12.537-8.106 18.597M56.286 74.982c-3.921 1.545-8.318 2.258-12.833 2.139C27.65 76.408 15.174 64.526 14.7 50.03v-2.02c.713-15.566 14.615-27.448 31.13-26.735 16.516.713 29.467 13.783 28.755 29.23 0 .712-.12 1.425-.238 2.138-.95 7.367-4.872 13.902-10.694 18.298" stroke="#000" stroke-miterlimit="10" stroke-linecap="round" stroke-linejoin="round"/><path d="M142.074 78.67c.594-1.306 1.069-2.613 1.663-4.039.357-.832.713-1.663 1.188-2.258.476-.594 1.307-1.188 2.139-1.307.832 0 1.664.357 2.139 1.07-.357-.238-.832-.12-1.188 0-1.426.594-2.614 1.544-3.446 2.733-.951 1.188-1.782 2.495-2.495 3.802ZM164.768 70.115c-.594-.713-1.426-1.307-2.376-1.307-.951 0-1.902.357-2.496.95-.475.595-.831 1.308-1.069 2.02-.594 1.426-1.069 2.852-1.663 4.278.831-1.663 1.663-3.446 2.851-4.753.594-.713 1.307-1.188 2.139-1.544.95-.238 1.901 0 2.614.356Z" fill="#fff" stroke="#fff" stroke-miterlimit="10" stroke-linecap="round" stroke-linejoin="round"/><path d="M114.864 70.469c-2.02 1.663-3.327 4.04-3.564 6.535-.238 2.495.594 5.109 2.139 7.129-1.189.237-2.496-.238-3.209-1.307-.712-.95-.95-2.258-.95-3.565-.119-3.802 4.822-10.85 5.584-8.792Z" fill="#000"/><path d="M68.287 51.459c-.594 6.178-4.515 11.763-9.624 15.327-.95.713-2.02 1.307-3.208 1.426-1.188.119-2.495-.356-2.97-1.426-.476-.95-.238-2.257.356-3.208.594-.95 1.307-1.782 1.901-2.851 1.426-2.614 1.07-5.822 0-8.555-1.07-2.733-2.733-5.228-3.92-7.961-1.189-2.733-2.258-6.06-.714-8.674 3.446-6.178 19.962-.594 18.18 15.922ZM46.187 72.727c1.069-.475 2.138-1.188 2.732-2.139.594-1.07.594-2.376-.237-3.327-.713-.831-2.02-1.07-3.208-1.07-1.901.12-3.684.833-5.228 2.02-1.07.832-1.902 2.14-1.545 3.447.238.831.95 1.425 1.663 1.782 1.664.713 4.04 0 5.823-.713Z" fill="#fff"/><path d="M113.437 136.767a1.902 1.902 0 1 0-.001-3.803 1.902 1.902 0 0 0 .001 3.803Z" fill="#FFE84D"/></svg>
