<svg width="177" height="174" fill="none" xmlns="http://www.w3.org/2000/svg"><path fill="" d="M0 1h172v172H0z"/><path d="M121.918 17.718V4.09a1.327 1.327 0 0 0-2.001-1.228 97.946 97.946 0 0 1-51.852 14.82H46.971a31.985 31.985 0 0 0-31.924 32.145v75.647a31.921 31.921 0 0 0 31.924 32.133v13.641a1.323 1.323 0 0 0 .63 1.219 1.33 1.33 0 0 0 1.372.009 97.92 97.92 0 0 1 51.851-14.832h21.094a31.932 31.932 0 0 0 22.648-9.424 31.934 31.934 0 0 0 9.276-22.709V49.949a32.073 32.073 0 0 0-31.924-32.23Z" fill="#B880FF"/><path d="m70.742 105.545.467.332 5.451.417c-.172.7-.294 1.302-.417 1.94a2.381 2.381 0 0 0 2.087 2.861c20.223 1.977 40.642 3.389 60.864 5.366a2.346 2.346 0 0 0 2.579-2.038c2.124-16.417 11.455-78.349 10.387-91.02.111-.872.209-1.744.319-2.628v-.086a1.728 1.728 0 0 0-.389-1.313 1.748 1.748 0 0 0-1.219-.627 344.904 344.904 0 0 0-4.654-.307 5.039 5.039 0 0 0-3.793-1.743c-1.13-.074-2.26-.11-3.34-.172a1.816 1.816 0 0 1-1.646-2.161c.295-1.535.59-3.094.897-4.641l23.157.454c.455-.002.894.169 1.228.479l.417.601c.134.305.177.642.123.97-2.014 13.887-13.31 92.776-15.962 111.574a4.331 4.331 0 0 1-1.584 2.738 4.257 4.257 0 0 1-3.045.884l-72.443-7.048a3.168 3.168 0 0 1-2.455-1.596 3.142 3.142 0 0 1-.393-2.013l1.154-8.178a116.57 116.57 0 0 0 2.21-3.045Z" fill="#B880FF"/><path d="M70.422 119.69c.173.296.384.568.627.81l-.762-.073a3.181 3.181 0 0 1-2.455-1.596 3.145 3.145 0 0 1-.393-2.014l1.154-8.177c.761-1.13 1.498-2.149 2.161-3.095l.467.332h.306l-1.534 11.517a3.498 3.498 0 0 0 .43 2.296ZM163.297 12.279c0 .417-.136.908-.222 1.448a.811.811 0 0 0-.073-.245l-.418-.602a1.79 1.79 0 0 0-1.228-.479l-23.157-.454-.662 3.401a1.8 1.8 0 0 1 0-.933c.294-1.535.589-3.094.896-4.641l23.157.454c.455-.002.894.17 1.228.48l.417.6c.113.311.135.648.062.97Z" fill="#fff"/><path d="M145.824 61.073a220.3 220.3 0 0 1-3.683 14.181c-.258.884-.528 1.756-.799 2.64-.27.884-.54 1.756-.822 2.628-.282.872-.565 1.756-.859 2.615-.197.577-.393 1.154-.602 1.731a174.674 174.674 0 0 1-2.186 6.005 125.645 125.645 0 0 1-1.363 3.388c0 .11-.098.221-.135.332-.38.933-.773 1.842-1.227 2.763-.627 1.436-1.228 2.848-1.928 4.248-.43.896-.86 1.78-1.314 2.664l-.43.86a95.317 95.317 0 0 1-1.535 2.934c-.871 1.854-1.129 2.014-3.388 1.842-10.547-.835-22.323-1.658-33.742-2.456l-4.91-.356-10.081-.749h-.258l-5.452-.417-.466-.332c1.362-1.89 2.455-3.388 3.229-4.457A39.19 39.19 0 0 0 75.1 99.32c5.635 2.763 37.632 5.427 47.823 4.948.326-.142.668.181.873-.11 11.05-22.445 20.726-43.908 23.942-60.533a173.203 173.203 0 0 0 4.605-22.813c-.111.884-.209 1.756-.319 2.628-1.069 8.803-2.37 17.73-4.04 26.582 0 .148 0 .283-.086.43l-.515 2.689c-.295 1.473-.59 2.947-.921 4.42a38.9 38.9 0 0 1-.639 3.512ZM122.729 33.287l-2.493-2.284 5.882-1.056 4.96 4.568-5.869 1.056-.638-.577-1.241-1.142-.601-.565Z" fill="#fff"/><path d="M109.222 14.366a1.79 1.79 0 0 1-1.78 1.228c-2.014-.074-2.873-.184-4.911-.27a5.684 5.684 0 0 0-2.456.454c-1.658-.098-5.808-.295-8.006-.454a2.05 2.05 0 0 0-2.124 1.485 403.028 403.028 0 0 1-14.353 42.226c2.836-25.134 5.599-40.261 6.667-47.48a4.174 4.174 0 0 1 1.446-2.564c.777-.651 2.77-.31 3.784-.286l23.072.099a56.164 56.164 0 0 1-1.339 5.562Z" fill="#B880FF"/><path d="M110.524 8.829c-.147.749-.295 1.51-.479 2.283L88.509 10.4a4.175 4.175 0 0 0-4.224 3.536c-.896 6.14-3.008 17.816-5.353 36.43a372.667 372.667 0 0 1-3.377 8.681c2.836-25.134 5.6-40.26 6.667-47.48a4.175 4.175 0 0 1 4.224-3.537l24.078.799ZM104.336 57.684c.16.454-3.34 5.71-3.77 6.36a1263.2 1263.2 0 0 1 3.77-6.36Z" fill="#fff"/><path d="M125.614 109.904c2.259.172 2.517 0 3.389-1.842a95.317 95.317 0 0 0 1.535-2.934l.43-.86c.454-.884.884-1.768 1.314-2.664.663-1.4 1.301-2.812 1.927-4.248.405-.909.798-1.83 1.228-2.763 0-.11.086-.22.135-.332.467-1.113.921-2.242 1.363-3.388.761-1.99 1.498-3.99 2.185-6.004.221-.577.418-1.154.602-1.732.295-.86.577-1.73.86-2.615.282-.884.552-1.744.822-2.628.27-.884.54-1.755.798-2.64a257.934 257.934 0 0 0 3.684-14.18c.27-1.18.528-2.358.773-3.537.332-1.473.627-2.947.921-4.42.18-.9.352-1.797.516-2.69-.933 5.158-7.367 39.034-18.86 61.638-13.813-.651-48.855-5.292-52.269-5.746l10.08.749 4.912.356c11.333.86 23.108 1.645 33.655 2.48Z" fill="#000"/><path d="M139.096 16.515c1.081 0 2.21.098 3.34.172a5.034 5.034 0 0 1 3.794 1.743c.46.576.776 1.254.92 1.977l-48.88-2.235a.515.515 0 0 1-.368-.871 5.821 5.821 0 0 1 2.136-1.498 5.686 5.686 0 0 1 2.456-.454c2.075.085 2.935.196 4.911.27a1.796 1.796 0 0 0 1.781-1.228c.527-1.823.961-3.671 1.301-5.538.332-1.62.639-3.241 1.081-4.911a3.484 3.484 0 0 1 3.352-2.603c6.937 0 13.899.282 20.873.32a3.441 3.441 0 0 1 3.254 2.636c.117.488.125.997.025 1.489-.258 1.313-.504 2.627-.75 3.929-.307 1.547-.601 3.106-.896 4.64a1.818 1.818 0 0 0 1.67 2.162Zm-15.017-5.157a3.684 3.684 0 0 0 3.574-3.315 2.94 2.94 0 0 0-1.72-3.05 2.934 2.934 0 0 0-1.215-.253 3.684 3.684 0 0 0-3.561 3.303 2.942 2.942 0 0 0 .709 2.32 2.925 2.925 0 0 0 2.213.995Z" fill="#B880FF"/><path d="m86.999 107.056 4.91.356-4.91-.356Z" fill="#000"/><path d="M76.918 106.319c3.352.454 37.425 4.912 51.643 5.722a.972.972 0 0 0 .908-.528c11.321-22.605 17.644-55.965 18.578-61.085 0-.172.061-.307.073-.417 1.67-8.853 2.972-17.78 4.04-26.583 1.068 12.671-8.263 74.603-10.388 91.019a2.343 2.343 0 0 1-2.578 2.039c-20.223-1.977-40.641-3.389-60.864-5.366a2.385 2.385 0 0 1-2.086-1.87 2.383 2.383 0 0 1-.001-.991c.123-.638.245-1.228.417-1.94h.258Z" fill="#fff"/><path d="M147.85 43.576c-3.204 16.562-12.794 37.9-23.817 60.277-.083.17-.175.338-.305.475a1.96 1.96 0 0 1-.24.215c-.239.181-.529.236-.829.247-10.64.371-41.89-2.795-47.448-5.519a189.6 189.6 0 0 0 43.748 3.524 3.436 3.436 0 0 0 2.702-1.523c.834-1.228 1.657-2.53 2.455-3.806.59-.945 1.228-1.89 1.756-2.836a209.03 209.03 0 0 0 3.094-5.28c.369-.639.725-1.228 1.081-1.928s.872-1.596 1.301-2.455c.32-.59.627-1.228.934-1.78a165.928 165.928 0 0 0 3.057-6.14c.466-.97.933-1.952 1.387-2.947.59-1.228 1.167-2.59 1.732-3.892.282-.614.54-1.228.798-1.854a15.5 15.5 0 0 0 .491-1.228c.282-.675.565-1.35.822-2.026.455-1.105.884-2.222 1.314-3.34.332-.884.663-1.768.982-2.652a185.965 185.965 0 0 0 2.53-7.367c.135-.43.27-.86.393-1.228.331-1.031.651-2.075.945-3.106.039-.109.071-.22.098-.331a75.64 75.64 0 0 0 .921-3.291c.035-.069.068-.138.098-.209Z" fill="#000"/><path d="m75.298 99.198-.062.074.062-.087v.013Z" fill="#fff"/><path d="M142.669 127.474a4.254 4.254 0 0 0 3.045-.884 4.336 4.336 0 0 0 1.584-2.738c2.689-18.798 13.985-97.686 15.962-111.573a1.726 1.726 0 0 0-.123-.97l.086.122a13.508 13.508 0 0 1 2.357 9.737c-2.812 19.547-12.475 86.993-15.2 105.914a5.125 5.125 0 0 1-1.376 2.836 5.178 5.178 0 0 1-4.322 1.645l-68.918-6.716a9.568 9.568 0 0 1-7.981-6.017 3.178 3.178 0 0 0 2.455 1.597l72.431 7.047Z" fill="#000"/><path d="M146.229 18.43c1.425.086 2.616.16 4.654.307a1.748 1.748 0 0 1 1.548 1.243c.067.226.088.463.061.697v.086a173.531 173.531 0 0 1-4.605 22.813c-.027.112-.06.223-.098.332a147.282 147.282 0 0 1-.921 3.29c-.027.112-.06.223-.098.332a99.316 99.316 0 0 1-.946 3.106c-.122.43-.257.86-.393 1.228a427.34 427.34 0 0 1-2.529 7.367 63.03 63.03 0 0 1-.982 2.652c-.43 1.118-.86 2.235-1.314 3.34-.27.675-.54 1.35-.823 2.026-.159.393-.319.786-.491 1.228-.258.626-.528 1.228-.798 1.854a224.639 224.639 0 0 1-1.731 3.892 109.85 109.85 0 0 1-1.387 2.947 196.32 196.32 0 0 1-3.058 6.14c-.307.6-.626 1.227-.933 1.78-.43.798-.86 1.596-1.302 2.455l-1.08 1.928a185.896 185.896 0 0 1-3.094 5.28c-.577.957-1.167 1.903-1.756 2.836-.798 1.228-1.621 2.554-2.456 3.806a3.429 3.429 0 0 1-2.701 1.523c-14.67.523-29.35-.66-43.748-3.524l.062-.074c4.002-5.992 7.305-12.855 4.91-14.734-2.602-2.026-7.538 3.18-9.564 5.083a38.837 38.837 0 0 1-5.93 4.519 2.309 2.309 0 0 1-3.684-1.867 5.032 5.032 0 0 1 .086-1.35A399.676 399.676 0 0 0 75.58 59.17a403.035 403.035 0 0 0 14.353-42.226 2.05 2.05 0 0 1 2.124-1.485c2.198.16 6.348.356 8.006.454a5.819 5.819 0 0 0-2.137 1.498.516.516 0 0 0 .369.872l48.88 2.234a4.616 4.616 0 0 0-.946-2.087Zm-15.151 16.085-4.42-4.064a1.46 1.46 0 0 0-1.228-.369l-4.396.786a1.648 1.648 0 0 0-1.154.81c-5.095 8.681-10.363 17.338-15.508 26.006-1.702-4.395-3.405-8.795-5.107-13.2l-5.882 1.07c-1.596.453-3.389.515-4.985.969 3.61 9.724 7.208 18.418 10.83 28.24l6.753-1.228c8.546-13.714 16.527-25.317 25.097-39.02Z" fill="#fff"/><path d="M62.122 94.262a2.591 2.591 0 0 0 2.628-.16 38.842 38.842 0 0 0 5.93-4.518c2.026-1.904 6.962-7.11 9.565-5.084 2.358 1.83-.945 8.693-4.911 14.734l-.062.086c-.417.614-.834 1.228-1.227 1.818-.762 1.068-1.867 2.566-3.23 4.457-.663.945-1.4 1.964-2.16 3.094-2.051 2.996-4.42 6.63-6.852 10.878a42.567 42.567 0 0 1-21.536 4.286 29.199 29.199 0 0 1-19.523-9.455 259.7 259.7 0 0 1 3.389-15.839 60.405 60.405 0 0 1 5.071-14.464c2.456-4.494 6.066-10.62 11.701-10.62a11.936 11.936 0 0 1 9.442-2.8c.443-.328.91-.62 1.4-.872a6.84 6.84 0 0 1 5.722-.368 104.89 104.89 0 0 1 7.65-11.05c.638-.823 3.683-4.912 5.795-3.623 1.448.921 1.547 2.775.724 5.353-.59 1.83-8.055 20.64-10.265 29.8-.073.32-.16.663-.22.982-.09.445-.119.899-.087 1.35a2.59 2.59 0 0 0 1.056 2.015Z" fill="#B880FF"/><path d="M41.986 83.727s7.71-13.826 13.764-12.278l.995-2.088s-7.994-3.4-14.76 14.366ZM50.851 84.01s14.636-26.792 18.86-25.344c2.455.823.454 5.231.454 5.231s3.512-8.19.7-9.16c-2.812-.97-17.055 17.19-20.014 29.272Z" fill="#fff"/><path d="M35.122 82.99s5.796-9.11 12.868-10.731c2.284-1.633 1.228-1.78 1.228-1.78A17.018 17.018 0 0 0 35.122 82.99Z" fill="#fff"/><path d="m37.517 77.047 2.21-3.683S27.375 77.858 22.88 103.42l-2.21 12.598 1.535 1.228c7.661-37.302 15.31-40.2 15.31-40.2Z" fill="#fff"/><mask id="a" style="mask-type:alpha" maskUnits="userSpaceOnUse" x="15" y="2" width="139" height="171"><path d="M121.918 17.718V4.09a1.327 1.327 0 0 0-2.001-1.228 97.946 97.946 0 0 1-51.852 14.82H46.971a31.985 31.985 0 0 0-31.924 32.145v75.647a31.921 31.921 0 0 0 31.924 32.133v13.641a1.323 1.323 0 0 0 .63 1.219 1.33 1.33 0 0 0 1.372.009 97.92 97.92 0 0 1 51.851-14.832h21.094a31.932 31.932 0 0 0 22.648-9.424 31.934 31.934 0 0 0 9.276-22.709V49.949a32.073 32.073 0 0 0-31.924-32.23Z" fill="#FF9400"/></mask><g mask="url(#a)"><path d="M40.832 73.425c-5.636 0-9.245 6.14-11.701 10.621A60.413 60.413 0 0 0 24.06 98.51c-1.228 5.243-2.456 10.535-3.39 15.839a265.753 265.753 0 0 0-4.198 38.677 21.939 21.939 0 0 0 13.248 9.123 18.03 18.03 0 0 0 14.268-2.578c3.118-16.441 11.897-29.825 17.742-40.053 2.456-4.248 4.8-7.882 6.851-10.878.761-1.13 1.498-2.149 2.161-3.094 1.363-1.891 2.456-3.389 3.23-4.457.43-.59.847-1.228 1.227-1.818l.062-.086c4.002-5.992 7.305-12.855 4.911-14.734-2.603-2.026-7.539 3.18-9.565 5.084a38.841 38.841 0 0 1-5.93 4.518 2.308 2.308 0 0 1-3.684-1.866 5.033 5.033 0 0 1 .086-1.35" stroke="#000" stroke-linecap="round" stroke-linejoin="round"/><path d="M40.194 123.804a42.567 42.567 0 0 0 21.536-4.286 131.08 131.08 0 0 0-15.2 40.409c-4.556 2.897-11.53 3.315-16.81 2.222a21.943 21.943 0 0 1-13.248-9.123 265.753 265.753 0 0 1 4.199-38.677 29.198 29.198 0 0 0 19.523 9.455Z" fill="#000"/></g><path d="M61.104 90.873c.061-.32.147-.663.22-.983 2.21-9.16 9.676-27.97 10.265-29.8.823-2.578.725-4.432-.724-5.353-2.112-1.35-5.157 2.8-5.795 3.622a104.88 104.88 0 0 0-7.65 11.051 107.115 107.115 0 0 0-7.502 14.845M34.349 82.99a24.925 24.925 0 0 1 5.906-9.074l.576-.49a11.935 11.935 0 0 1 9.443-2.8" stroke="#000" stroke-linecap="round" stroke-linejoin="round"/><path d="M41.986 83.727a28.93 28.93 0 0 1 5.243-10.068 15.967 15.967 0 0 1 3.07-3.046c.442-.327.91-.619 1.399-.871a6.84 6.84 0 0 1 5.722-.368M20.67 114.349a29.198 29.198 0 0 0 19.523 9.455 42.567 42.567 0 0 0 21.537-4.286M152.492 20.677a1.746 1.746 0 0 0-1.609-1.94 343.041 343.041 0 0 0-4.654-.307" stroke="#000" stroke-linecap="round" stroke-linejoin="round"/><path d="M75.236 99.271a189.605 189.605 0 0 0 43.748 3.524 3.436 3.436 0 0 0 2.701-1.523c.835-1.227 1.658-2.53 2.456-3.806.589-.945 1.228-1.89 1.756-2.836a212.276 212.276 0 0 0 3.094-5.28l1.08-1.928c.442-.798.872-1.596 1.302-2.455.307-.59.626-1.228.933-1.78a164.371 164.371 0 0 0 3.057-6.14c.467-.97.933-1.952 1.388-2.947.589-1.227 1.166-2.59 1.731-3.892.27-.614.54-1.228.798-1.854.172-.38.331-.774.491-1.228.282-.675.553-1.35.823-2.026a154.8 154.8 0 0 0 1.313-3.34c.332-.884.664-1.768.983-2.652a187.63 187.63 0 0 0 2.529-7.367c.135-.417.27-.847.393-1.228.332-1.031.651-2.075.946-3.106a3.47 3.47 0 0 0 .098-.331c.331-1.093.638-2.186.921-3.291.038-.109.071-.22.098-.332a173.362 173.362 0 0 0 4.604-22.813M100.038 15.803c-1.657-.099-5.807-.295-8.005-.455a2.05 2.05 0 0 0-2.124 1.486 403.006 403.006 0 0 1-14.354 42.225 396.456 396.456 0 0 1-14.452 31.802M162.719 10.646a1.79 1.79 0 0 0-1.227-.48l-23.158-.454M163.222 11.37c-.09-.23-.319-.56-.503-.724" stroke="#000" stroke-linecap="round" stroke-linejoin="round"/><path d="m68.58 108.639-1.153 8.178c-.098.696.04 1.405.392 2.013a3.178 3.178 0 0 0 2.456 1.597l72.443 7.047a4.254 4.254 0 0 0 3.045-.884 4.331 4.331 0 0 0 1.584-2.738c2.689-18.798 13.985-97.686 15.962-111.573a1.717 1.717 0 0 0-.123-.97M89.037 8.129l-2.59-.086a4.175 4.175 0 0 0-4.225 3.536c-1.068 7.22-3.83 22.347-6.667 47.48M110.524 8.829l-15.962-.516" stroke="#000" stroke-linecap="round" stroke-linejoin="round"/><path d="M163.223 11.37a13.508 13.508 0 0 1 2.357 9.737c-2.812 19.547-12.475 86.992-15.2 105.913a5.127 5.127 0 0 1-1.376 2.837 5.178 5.178 0 0 1-4.322 1.645l-68.918-6.716a9.568 9.568 0 0 1-7.981-6.017M152.16 23.39c.111-.871.209-1.743.319-2.627v-.086" stroke="#000" stroke-linecap="round" stroke-linejoin="round"/><path d="M143.516 70.417a294.254 294.254 0 0 0 2.309-9.344c.27-1.178.527-2.357.773-3.536.332-1.473.626-2.947.921-4.42.18-.9.352-1.797.515-2.69l.074-.416c1.67-8.853 2.972-17.78 4.04-26.583" stroke="#000" stroke-linecap="round" stroke-linejoin="round"/><path d="m71.209 105.828 5.451.417h.258l10.08.749 4.912.357c11.419.822 23.194 1.645 33.741 2.455 2.259.172 2.517 0 3.389-1.842a95.286 95.286 0 0 0 1.534-2.934l.43-.86c.455-.884.884-1.768 1.314-2.664.663-1.4 1.302-2.812 1.928-4.248.405-.909.798-1.83 1.228-2.763 0-.11.086-.221.135-.332.466-1.113.92-2.242 1.362-3.388.762-1.99 1.498-3.99 2.186-6.005.209-.576.405-1.154.602-1.73a204.207 204.207 0 0 0 1.682-5.243c.27-.885.54-1.756.798-2.64a215.95 215.95 0 0 0 1.351-4.838M144.83 92.223c3.45-24.839 8.091-59.66 7.367-68.759M143.921 98.805c.283-2.088.59-4.298.909-6.581" stroke="#000" stroke-linecap="round" stroke-linejoin="round"/><path d="M76.636 106.307c-.172.7-.295 1.301-.418 1.94a2.383 2.383 0 0 0 2.087 2.861c20.223 1.976 40.642 3.388 60.864 5.365a2.34 2.34 0 0 0 1.706-.492c.483-.381.796-.936.873-1.546.442-3.475 1.228-8.988 2.149-15.63M146.229 18.43a5.029 5.029 0 0 0-3.793-1.743c-1.13-.074-2.26-.11-3.34-.172a1.816 1.816 0 0 1-1.645-2.161c.294-1.535.589-3.094.896-4.641.245-1.302.491-2.616.749-3.93a3.431 3.431 0 0 0-.677-2.827 3.429 3.429 0 0 0-2.602-1.298c-6.961 0-13.923-.332-20.873-.32a3.486 3.486 0 0 0-3.352 2.604c-.442 1.645-.749 3.266-1.08 4.911a56.198 56.198 0 0 1-1.302 5.538 1.791 1.791 0 0 1-1.78 1.227c-2.014-.073-2.873-.184-4.912-.27a5.68 5.68 0 0 0-2.455.455 5.819 5.819 0 0 0-2.137 1.498.516.516 0 0 0 .369.871l48.88 2.235a4.61 4.61 0 0 0-.946-1.977v0Z" stroke="#000" stroke-linecap="round" stroke-linejoin="round"/><path d="M124.902 4.752a2.936 2.936 0 0 1 2.75 3.29 3.68 3.68 0 0 1-3.573 3.316 2.934 2.934 0 0 1-2.922-3.316c.08-.765.398-1.486.909-2.062M123.293 33.852l1.228 1.142" stroke="#000" stroke-linecap="round" stroke-linejoin="round"/><path d="M104.336 57.684c5.12-8.595 10.375-17.19 15.433-25.895a.725.725 0 0 1 1.13-.16l1.83 1.658.601.565 1.228 1.142.639.577c-.074.11-.136.233-.197.331L100.049 75.14c-1.977-1.318-8.09-18.83-11.7-28.555 1.596-.454 3.389-.515 4.985-.97 2.456 6.14 4.8 12.377 7.183 18.553.479-.774 3.978-6.029 3.819-6.483Z" fill="#B880FF"/><path d="M99.228 44.435c1.702 4.396 3.405 8.796 5.108 13.2-1.228 2.124-2.53 4.248-3.77 6.36-2.382-6.14-4.788-12.377-7.183-18.553l5.845-1.007Z" fill="#000"/><path d="m100.523 74.678 5.74-1.007c8.595-13.69 16.245-25.454 24.815-39.156l-6.066 1.387M92.205 45.823l7.023-1.338c1.702 4.395 3.405 8.795 5.108 13.2" stroke="#000" stroke-linecap="round" stroke-linejoin="round"/><path d="M125.209 35.57c-.074.111-.135.234-.197.332A37080.663 37080.663 0 0 0 101.02 74.15a1.223 1.223 0 0 1-1.213.681 1.229 1.229 0 0 1-1.07-.89c-3.266-8.68-6.803-17.816-10.02-26.447a.921.921 0 0 1 .688-1.228c.92-.172 1.879-.282 2.8-.454a1.387 1.387 0 0 1 1.571.871c2.26 5.796 4.506 11.616 6.753 17.411l3.807-6.421c5.279-8.89 10.694-17.78 15.962-26.681" stroke="#000" stroke-linecap="round" stroke-linejoin="round"/><path d="m120.292 30.99 5.212-.932a1.226 1.226 0 0 1 1.055.307l4.519 4.15-5.869 1.056-.638-.577-1.228-1.142-.602-.565-2.449-2.297Z" stroke="#000" stroke-linecap="round" stroke-linejoin="round"/></svg>
