<svg width="172" height="172" fill="none" xmlns="http://www.w3.org/2000/svg"><path fill="" d="M0 0h172v172H0z"/><path d="M97.271 118.142c-30.032 12.345-47.482 18.399-78.465 30.27-.474.119-.95.356-1.305.475-4.036 1.424-8.072-1.425-8.191-5.698-1.187-35.493-.712-71.936-.475-103.987 0-2.967 1.78-5.698 4.51-6.766.476-.237.95-.356 1.544-.475l9.615-1.662" fill="#fff"/><path d="M72.808 10.902 16.396 67.325a3.088 3.088 0 0 0-.908 2.205v92.093c0 .973.778 1.751 1.75 1.751h92.076c.843 0 1.621-.324 2.204-.908l56.413-56.423c.389-.389.583-.973.519-1.492-3.632-22.829-14.266-44.684-31.838-62.26-17.572-17.575-39.424-28.212-62.248-31.843-.584-.13-1.102 0-1.556.454Z" fill="#C7FA73"/><path d="m137.157 103.421-2.255 2.849c-.356-1.662-1.187-4.867-1.424-6.53a598.382 598.382 0 0 0-4.274-19.942c-.831-3.798-1.899-7.597-4.036-10.92-1.543-2.375-3.917-4.393-6.647-5.224l-1.306-1.543.831-.237c3.917-.119 7.478 2.374 9.615 5.698 2.137 3.205 3.086 7.122 4.036 10.92a595.855 595.855 0 0 1 4.273 19.943c.356 1.662.713 3.324 1.187 4.986Z" fill="#fff"/><path d="M110.444 62.23c4.392.594 8.547 3.205 10.921 6.885-.238-2.136-1.425-4.51-3.087-6.054-1.543-1.543-3.679-2.493-5.935-2.611-.593 0-1.068 0-1.543.237-.475.356-.356.95-.356 1.543ZM105.938 62.24c3.68 1.543 7.317 4.468 9.216 8.03v-.238c-.593-2.137-.824-4.231-2.249-5.893-.474-.593-2.1-1.306-2.693-1.9-.713-.711-1.662-1.186-2.374-1.78-.357-.237-.713-.475-1.069-.593-.356-.12-.831-.238-1.187 0a.892.892 0 0 0-.593.83c-.119.357.118.713.356.95l.593.594Z" fill="#fff"/><path d="m77.676 16.772.118 4.036M97.271 118.142c-30.032 12.345-47.482 18.399-78.465 30.27-.474.119-.95.356-1.305.475-4.036 1.424-8.072-1.425-8.191-5.698-1.187-35.493-.712-71.936-.475-103.987 0-2.967 1.78-5.698 4.51-6.766.476-.237.95-.356 1.544-.475l9.615-1.662" stroke="#000" stroke-miterlimit="10" stroke-linecap="round" stroke-linejoin="round"/><path d="m78.032 36.235.356 22.554c0 2.136 2.018 3.68 4.036 3.205 1.068-.238 9.971-2.612 11.396-2.85l9.021-2.255c3.562-.95 7.242-1.899 10.684-2.73 1.543-.356 2.612-1.662 2.612-3.323-.119-11.04-.713-28.371-.831-39.41 0-2.019-1.781-3.562-3.799-3.325-9.853 1.425-21.13 4.036-30.864 5.46-1.78.238-2.967 1.663-2.967 3.325v.356l.356 18.993.356 22.554c0 2.136 2.018 3.68 4.036 3.205 1.068-.238 9.971-2.612 11.396-2.85l-15.788-22.91Z" fill="#C7FA73"/><path d="M116.151 50.837c0 1.425-.95 2.73-2.255 3.205v-.237c-.119-11.04-.713-28.371-.831-39.41 0-2.019-1.781-3.562-3.799-3.324-9.852 1.543-21.13 4.036-30.863 5.46-.238 0-.357.119-.594.119.119-1.543 1.306-2.85 2.849-3.087 9.853-1.424 21.13-3.917 30.864-5.46 2.018-.237 3.798 1.187 3.798 3.324.119 10.92.712 28.37.831 39.41Z" fill="#fff"/><path d="m78.032 36.235.356 22.554c0 2.136 2.018 3.68 4.036 3.205 1.068-.238 9.971-2.612 11.396-2.85l9.021-2.255c3.562-.95 7.242-1.899 10.684-2.73 1.543-.356 2.612-1.662 2.612-3.323-.119-11.04-.713-28.371-.831-39.41 0-2.019-1.781-3.562-3.799-3.325-9.853 1.425-21.13 4.036-30.864 5.46-1.78.238-2.967 1.663-2.967 3.325v.356l.356 18.993Zm0 0 .356 22.554c0 2.136 2.018 3.68 4.036 3.205 1.068-.238 9.971-2.612 11.396-2.85" stroke="#000" stroke-miterlimit="10" stroke-linecap="round" stroke-linejoin="round"/><path d="M97.388 110.789c-4.749 2.018-8.31 3.561-13.295 5.105-2.374.712-4.63-1.306-4.63-3.68l-.593-37.867c0-1.9 1.424-3.443 3.205-3.8 3.798-.949 9.852-2.492 13.295-3.441" fill="#C7FA73"/><path d="M97.388 110.789c-4.749 2.018-8.31 3.561-13.295 5.105-2.374.712-4.63-1.306-4.63-3.68l-.593-37.867c0-1.9 1.424-3.443 3.205-3.8 3.798-.949 9.852-2.492 13.295-3.441" stroke="#000" stroke-miterlimit="10" stroke-linecap="round" stroke-linejoin="round"/><path d="M78.035 36.225s-3.205.594-8.784 1.78c-.119-5.222-.356-10.327-.356-15.55l5.223-.95 3.68-.593.237 15.313ZM24.388 46.078s-9.94 2.543-15.45 3.75c-.073.017.07-.015-.003 0 0-3.442-.097-6.955-.097-10.635 0-2.967 1.78-5.698 4.51-6.766l7.242-1.068 3.68-.594.118 15.313ZM94.067 33.865V21.163l.83.238 1.472-1.306-2.184-1.069c-5.579.475-10.327 6.885-10.683 14.839-.356 8.19 4.154 14.838 10.09 14.838 3.798 0 7.241-2.85 9.377-7.004l-8.902-7.834Z" fill="#000" stroke="#000" stroke-miterlimit="10" stroke-linecap="round" stroke-linejoin="round"/><path d="M105.22 42.761c-2.018 4.274-5.46 7.004-9.377 7.004-5.936 0-10.447-6.648-10.09-14.838.356-7.954 4.985-14.364 10.683-14.839v14.839l8.784 7.834Z" fill="#C7FA73" stroke="#000" stroke-miterlimit="10" stroke-linecap="round" stroke-linejoin="round"/><path d="M108.427 36.225c.593-1.543.949-3.205 1.068-4.985.475-7.598-3.799-13.889-9.497-13.889h-.593l-.237 13.889 8.309 7.24 2.374.713-1.424-2.968Z" fill="#000" stroke="#000" stroke-miterlimit="10" stroke-linecap="round" stroke-linejoin="round"/><path d="M103.805 22.101s-3.918-3.561-3.087-4.63c1.781.12 4.392 1.188 4.392 1.188" fill="#000"/><path d="M103.805 22.101s-3.918-3.561-3.087-4.63c1.781.12 4.392 1.188 4.392 1.188" stroke="#000" stroke-miterlimit="10" stroke-linecap="round" stroke-linejoin="round"/><path d="M111.755 31.956c-.119 2.612-.618 5.08-1.805 7.217l-8.523-7.217.238-13.888h.593c5.698 0 9.971 6.173 9.497 13.888Z" fill="#fff" stroke="#000" stroke-miterlimit="10" stroke-linecap="round" stroke-linejoin="round"/><path d="M64.844 123.492c-12.345 4.511-20.773 7.954-34.662 13.177-2.493.949-4.985-.712-4.985-3.205l-.713-44.396c0-2.018 1.425-3.918 3.443-4.392 12.464-3.562 23.504-6.173 36.205-9.497 2.493-.594 4.748.475 4.748 3.917.12 13.533-.118 26.591 0 40.004-.118 1.781-2.255 3.68-4.036 4.392ZM68.77 60.453c0 1.9 0 4.867-3.917 5.935-12.346 3.324-22.198 5.46-34.544 8.666-2.492.593-5.104-1.662-5.223-4.273l-.712-44.397c0-2.018 1.425-3.798 3.443-4.154 13.176-2.256 23.503-4.036 36.205-5.936 2.493-.356 4.748.831 4.748 4.274v1.9c.119 5.104 0 30.15 0 37.985Z" fill="#C7FA73"/><path d="M68.77 118.854c0 1.425-1.069 2.849-2.374 3.799-.12-13.177.118-25.997 0-39.292 0-3.443-2.256-4.51-4.749-3.917-12.701 3.323-23.741 5.935-36.205 9.496-.356.119-.712.238-1.069.475v-.475c0-2.018 1.425-3.917 3.443-4.392 12.464-3.561 23.504-6.173 36.205-9.496 2.493-.713 4.749.474 4.749 3.917.237 13.414-.12 26.471 0 39.885ZM68.77 60.453c0 1.543 0 3.799-2.137 5.223v-.95c-.118-7.834.12-32.762 0-37.985v-1.9c0-3.442-2.255-4.748-4.748-4.273-12.701 1.9-23.029 3.68-36.205 5.935-.475.119-.95.238-1.306.475v-.594c0-2.018 1.425-3.798 3.443-4.154 13.176-2.256 23.503-4.036 36.205-5.936 2.493-.356 4.748.831 4.748 4.274v1.9c.119 5.104 0 30.15 0 37.985Z" fill="#fff"/><path d="m24.848 115.894-.474-26.946c0-2.018 1.424-3.917 3.442-4.392 12.464-3.561 23.504-6.173 36.205-9.497 2.493-.593 4.749.475 4.749 3.918.118 13.532-.12 26.59 0 40.004 0 1.899-2.137 3.917-4.036 4.629-12.346 4.511-20.774 7.954-34.663 13.177-2.492.949-4.985-.713-4.985-3.205l-.238-11.871M68.77 60.453c0 1.9 0 4.867-3.917 5.935-12.346 3.324-22.198 5.46-34.544 8.666-2.492.593-5.104-1.662-5.223-4.273l-.712-44.397c0-2.018 1.425-3.798 3.443-4.154 13.176-2.256 23.503-4.036 36.205-5.936 2.493-.356 4.748.831 4.748 4.274v1.9c.119 5.104 0 30.15 0 37.985Z" stroke="#000" stroke-miterlimit="10" stroke-linecap="round" stroke-linejoin="round"/><path d="M44.57 39.914v18.162c0 1.069-.712 2.018-1.78 2.256a480.033 480.033 0 0 0-6.53 1.661 2.3 2.3 0 0 1-2.848-2.255V41.576c0-1.068.712-2.018 1.78-2.255 1.543-.356 3.68-.95 5.817-1.425.475-.118.95-.118 1.424 0 1.306.356 3.205 1.069 3.562 1.306.593.356-1.425-.119-1.425.712Z" fill="#000" stroke="#000" stroke-miterlimit="10" stroke-linecap="round" stroke-linejoin="round"/><path d="m34.717 58.076-.356 3.56 2.73 1.425 1.9-.83-4.274-4.155ZM39.701 43.358c0-.119 2.374-4.392 2.374-4.392h2.493v3.798l-4.867.594ZM61.896 25.912s-2.018-.95-3.087-1.306c-.356-.118-.83-.237-1.187-.118-1.305.356-4.392 1.068-6.41 1.543-1.068.237-1.78 1.187-1.78 2.255v27.421a2.3 2.3 0 0 0 2.849 2.256c2.611-.594 4.867-1.187 6.528-1.543 1.069-.238 1.781-1.188 1.781-2.256v-27.42c0-.476-.119-.832-.356-1.188l1.662.356Z" fill="#000" stroke="#000" stroke-miterlimit="10" stroke-linecap="round" stroke-linejoin="round"/><path d="m51.693 52.618-1.068 5.104 2.493 1.306 1.306-2.136-2.73-4.274Z" fill="#000" stroke="#000" stroke-miterlimit="10" stroke-linecap="round" stroke-linejoin="round"/><path d="M47.065 41.222v18.162c0 1.068-.712 2.018-1.78 2.255-2.375.594-4.749 1.187-6.53 1.662a2.3 2.3 0 0 1-2.848-2.256V42.883c0-1.068.712-2.018 1.78-2.255 1.78-.475 4.036-.95 6.53-1.662a2.3 2.3 0 0 1 2.848 2.256Z" fill="#C7FA73" stroke="#000" stroke-miterlimit="10" stroke-linecap="round" stroke-linejoin="round"/><path d="M63.2 28.04v27.422c0 1.068-.713 2.018-1.781 2.255-1.662.356-4.036.95-6.529 1.543a2.3 2.3 0 0 1-2.849-2.255V29.584c0-1.069.712-2.018 1.78-2.256 2.493-.593 4.749-1.187 6.53-1.543a2.3 2.3 0 0 1 2.848 2.256Z" fill="#fff" stroke="#000" stroke-miterlimit="10" stroke-linecap="round" stroke-linejoin="round"/><path d="M104.158 60.331c.712-.475 1.78-.593 2.611-.356.95.238 1.662.712 2.493 1.187 2.968 2.018 5.223 5.223 6.173 8.666M109.263 60.804c2.73-.712 5.698-.356 7.953 1.188 2.375 1.424 4.036 3.917 4.63 6.647" stroke="#000" stroke-miterlimit="10" stroke-linecap="round" stroke-linejoin="round"/><mask id="a" style="mask-type:alpha" maskUnits="userSpaceOnUse" x="15" y="10" width="154" height="154"><path d="M72.806 10.89 16.395 67.315a3.089 3.089 0 0 0-.908 2.205v92.093c0 .973.778 1.751 1.751 1.751h92.075c.843 0 1.621-.324 2.205-.908l56.412-56.423c.389-.389.584-.973.519-1.492-3.631-22.828-14.265-44.684-31.837-62.26-17.572-17.575-39.424-28.211-62.248-31.843-.584-.13-1.103 0-1.556.454Z" fill="#C7FA73"/></mask><g mask="url(#a)"><path d="m152.117 139.499-22.673 18.4c-14.719-13.295-24.583-26.828-31.349-38.936 7.36 1.425 14.968 1.187 21.971-1.306 7.123-2.493 13.533-7.597 16.975-14.244 3.087 12.82 8.191 25.047 15.076 36.086Z" fill="#000" stroke="#000" stroke-miterlimit="10" stroke-linecap="round" stroke-linejoin="round"/></g><path d="M117.692 62.02c3.917-.12 7.949 2.225 10.086 5.43 2.137 3.205 3.086 7.123 4.036 10.921a595.903 595.903 0 0 1 4.273 19.943c.356 1.662.713 3.442 1.069 5.104" stroke="#000" stroke-miterlimit="10" stroke-linecap="round" stroke-linejoin="round"/><path d="M108.664 72.789 97.98 118.966c-11.277-20.3-13.65-36.562-13.77-40.598 0-.712 0-1.424.238-2.018.237-.593.83-1.306 1.543-1.424 4.036-1.069 5.46 6.291 13.058 12.345-.119-.83-.356-1.543-.475-2.255-2.85-13.889-4.273-23.267-4.748-35.73 0-.95.118-1.9.475-2.731.356-.831 1.068-1.662 2.017-1.78 1.544-.238 2.85 1.305 3.562 2.73.474.95 1.187 2.611 2.018 4.866 2.374 5.936 5.579 15.551 6.766 20.418Z" fill="#C7FA73"/><path d="M108.667 72.794c-1.543-5.224-5.104-10.921-7.359-16.382a60.467 60.467 0 0 0-2.137-4.867c-.831-1.424-2.137-2.968-3.799-2.73-.593.119-1.058.475-1.414.83v-.593c0-.95-.102-1.433.254-2.264.356-.83.954-1.785 1.904-1.903 1.543-.238 2.968.962 3.68 2.387.475.95 1.2 2.611 2.031 4.867 2.374 6.172 5.653 15.788 6.84 20.655Z" fill="#fff" stroke="#fff" stroke-miterlimit="10" stroke-linecap="round" stroke-linejoin="round"/><path d="M108.547 79.796c5.935-2.73 12.345-4.273 18.755-4.748" stroke="#000" stroke-miterlimit="10" stroke-linecap="round" stroke-linejoin="round"/><path d="M141.909 118.972c-3.68 5.698-9.378 9.971-15.788 12.227-6.054 2.136-12.701 2.611-19.112 1.78-3.442-4.748-6.243-9.378-8.736-13.888 7.36 1.424 14.909 1.187 21.913-1.306 7.122-2.493 13.532-7.597 16.975-14.245 1.187 5.223 2.849 10.327 4.748 15.432Z" fill="#000" stroke="#000" stroke-miterlimit="10" stroke-linecap="round" stroke-linejoin="round"/><path d="M98.1 118.965C86.702 98.666 84.33 82.404 84.21 78.368c0-.712 0-1.425.238-2.137.237-.593.83-1.187 1.543-1.424 4.036-1.069 5.46 6.29 13.058 12.345-3.205-15.194-4.749-24.928-5.223-37.986 0-.95.118-1.9.475-2.73.356-.831 1.068-1.662 2.017-1.78 1.544-.238 2.85 1.305 3.562 2.73 1.899 3.56 7.122 18.874 8.903 25.402M108.432 55.702v4.616" stroke="#000" stroke-miterlimit="10" stroke-linecap="round" stroke-linejoin="round"/><path d="M58.452 95.117c0-6.291-4.748-10.209-10.565-8.547-5.816 1.662-10.565 8.072-10.565 14.482v.712c0 10.209 10.09 19.587 10.09 19.587l3.324 1.543v-5.816c4.036-7.123 7.597-14.957 7.716-21.368v-.593Zm-10.565 8.428c-2.849.831-5.104-1.068-5.104-4.155 0-3.086 2.255-6.172 5.104-6.885 2.849-.83 5.105 1.069 5.105 4.155 0 3.087-2.256 6.173-5.105 6.885Zm4.392-12.701.712-4.274 3.206 1.187 1.305 2.968" fill="#000"/><path d="m52.28 90.844.712-4.274 3.205 1.187 1.305 2.968m.95 4.392c0-6.291-4.748-10.209-10.565-8.547-5.816 1.662-10.565 8.072-10.565 14.482v.712c0 10.209 10.09 19.587 10.09 19.587l3.324 1.543v-5.816c4.036-7.123 7.597-14.957 7.716-21.368v-.593Zm-10.565 8.428c-2.849.831-5.104-1.068-5.104-4.155 0-3.086 2.255-6.172 5.104-6.885 2.849-.83 5.105 1.069 5.105 4.155 0 3.087-2.256 6.173-5.105 6.885Z" stroke="#000" stroke-miterlimit="10" stroke-linecap="round" stroke-linejoin="round"/><path d="M50.733 87.52c-5.816 1.662-10.564 8.072-10.564 14.482v.713c0 10.208 10.564 20.061 10.564 20.061 5.105-8.191 10.328-18.281 10.565-26.115v-.594c0-6.291-4.748-10.09-10.565-8.547Zm0 17.094c-2.73.831-5.104-1.068-5.104-4.155 0-3.086 2.255-6.172 5.104-6.885 2.85-.83 5.105 1.069 5.105 4.155 0 2.968-2.256 6.054-5.105 6.885Z" fill="#fff" stroke="#000" stroke-miterlimit="10" stroke-linecap="round" stroke-linejoin="round"/><path d="M108.786 128.025c1.073-.491 1.457-1.952.858-3.264-.6-1.312-1.956-1.977-3.029-1.486-1.074.49-1.457 1.951-.858 3.263.6 1.312 1.956 1.977 3.029 1.487Z" fill="#C7FA73"/></svg>
