<svg xmlns="http://www.w3.org/2000/svg" viewBox="0 0 1440 320"><path fill="#0099ff" fill-opacity="1" d="M0,224L6.2,213.3C12.3,203,25,181,37,192C49.2,203,62,245,74,229.3C86.2,213,98,139,111,138.7C123.1,139,135,213,148,234.7C160,256,172,224,185,192C196.9,160,209,128,222,96C233.8,64,246,32,258,58.7C270.8,85,283,171,295,192C307.7,213,320,171,332,165.3C344.6,160,357,192,369,208C381.5,224,394,224,406,213.3C418.5,203,431,181,443,181.3C455.4,181,468,203,480,192C492.3,181,505,139,517,106.7C529.2,75,542,53,554,42.7C566.2,32,578,32,591,58.7C603.1,85,615,139,628,154.7C640,171,652,149,665,149.3C676.9,149,689,171,702,197.3C713.8,224,726,256,738,245.3C750.8,235,763,181,775,160C787.7,139,800,149,812,149.3C824.6,149,837,139,849,138.7C861.5,139,874,149,886,165.3C898.5,181,911,203,923,213.3C935.4,224,948,224,960,202.7C972.3,181,985,139,997,138.7C1009.2,139,1022,181,1034,202.7C1046.2,224,1058,224,1071,208C1083.1,192,1095,160,1108,149.3C1120,139,1132,149,1145,160C1156.9,171,1169,181,1182,165.3C1193.8,149,1206,107,1218,85.3C1230.8,64,1243,64,1255,58.7C1267.7,53,1280,43,1292,64C1304.6,85,1317,139,1329,176C1341.5,213,1354,235,1366,250.7C1378.5,267,1391,277,1403,245.3C1415.4,213,1428,139,1434,101.3L1440,64L1440,0L1433.8,0C1427.7,0,1415,0,1403,0C1390.8,0,1378,0,1366,0C1353.8,0,1342,0,1329,0C1316.9,0,1305,0,1292,0C1280,0,1268,0,1255,0C1243.1,0,1231,0,1218,0C1206.2,0,1194,0,1182,0C1169.2,0,1157,0,1145,0C1132.3,0,1120,0,1108,0C1095.4,0,1083,0,1071,0C1058.5,0,1046,0,1034,0C1021.5,0,1009,0,997,0C984.6,0,972,0,960,0C947.7,0,935,0,923,0C910.8,0,898,0,886,0C873.8,0,862,0,849,0C836.9,0,825,0,812,0C800,0,788,0,775,0C763.1,0,751,0,738,0C726.2,0,714,0,702,0C689.2,0,677,0,665,0C652.3,0,640,0,628,0C615.4,0,603,0,591,0C578.5,0,566,0,554,0C541.5,0,529,0,517,0C504.6,0,492,0,480,0C467.7,0,455,0,443,0C430.8,0,418,0,406,0C393.8,0,382,0,369,0C356.9,0,345,0,332,0C320,0,308,0,295,0C283.1,0,271,0,258,0C246.2,0,234,0,222,0C209.2,0,197,0,185,0C172.3,0,160,0,148,0C135.4,0,123,0,111,0C98.5,0,86,0,74,0C61.5,0,49,0,37,0C24.6,0,12,0,6,0L0,0Z"></path></svg>