<svg width="182" height="182" fill="none" xmlns="http://www.w3.org/2000/svg"><path fill="" d="M9 5h172v172H9z"/><path d="M97.453 16.808c-39.17-.602-71.953 31.095-72.556 70.145-.482 24.466 11.45 46.04 29.77 59.298 4.218 3.013 6.75 7.834 6.75 13.016v5.304c0 .964.843 1.807 1.807 1.807h66.409c.964 0 1.807-.843 1.807-1.807v-5.304a16.014 16.014 0 0 1 6.87-13.137 71.269 71.269 0 0 0 29.649-57.972c-.12-38.808-31.457-70.747-70.506-71.35Z" fill="#FF788F"/><path d="M43.25 97.7c22.34 0 40.45-18.11 40.45-40.45 0-22.34-18.11-40.45-40.45-40.45C20.91 16.8 2.8 34.91 2.8 57.25c0 22.34 18.11 40.45 40.45 40.45Z" fill="#FF788F" stroke="#000" stroke-linecap="round" stroke-linejoin="round"/><path d="M44.782 97.592c-1.858.11-3.607 0-5.466-.11C17.123 95.297.833 75.618 3.02 53.316c2.187-22.193 21.865-38.483 44.167-36.296 9.293.875 17.602 4.92 23.943 10.933-19.897.765-36.624 16.18-38.592 36.514a39.97 39.97 0 0 0 12.244 33.126Z" fill="#fff"/><path d="M43.25 97.7c22.34 0 40.45-18.11 40.45-40.45 0-22.34-18.11-40.45-40.45-40.45C20.91 16.8 2.8 34.91 2.8 57.25c0 22.34 18.11 40.45 40.45 40.45Z" fill="#FF788F"/><path d="M83.481 61.186c-2.186 22.193-21.865 38.482-44.167 36.296-.656-.11-1.421-.11-2.077-.219 19.241-1.42 35.312-16.508 37.28-36.405 2.077-21.537-13.12-40.669-34.22-43.84 2.297-.109 4.593-.109 6.888.11C69.38 19.205 85.56 38.884 83.481 61.186ZM33.082 46.318c0 4.045-1.53 7.653-3.936 10.058 0 0-7.215 6.56-9.62 13.337-1.531 3.062-.328 10.168-2.952 10.714-2.733.547-7.434-8.09-7.434-23.177 0-12.681 3.607-17.601 5.466-19.897 2.186-2.405 4.92-3.936 8.09-3.936 5.794 0 10.386 5.685 10.386 12.9Z" fill="#fff"/><path d="m60.74 108.196 4.811 9.183-6.997 5.685-7.434-14.54c1.53.218 3.28.218 5.138 0h.11c.218 0 .546-.11.874-.11.219 0 .438-.109.656-.109.438-.109.875-.109 1.312-.219.11 0 .219 0 .219-.109h.218c.328-.109.657-.109.984-.219h.11v.438Z" fill="#FF788F"/><path d="M134.864 88.845c2.077 0 3.389 1.53 2.951 3.499-.437 1.968-2.405 3.498-4.373 3.498-1.967 0-3.389-1.53-2.951-3.498.328-1.968 2.405-3.499 4.373-3.499ZM100.535 101.417c2.952-2.842 16.508-13.775 18.367-15.305.109-.11.218 0 .218.109.438 2.405 2.078 14.103 2.734 17.929.109.328.437.547.765.438l12.463-5.576c.328-.11.656 0 .765.328l3.28 13.666c.109.437-.328.765-.656.656-5.357-1.64-32.688-9.84-37.717-11.37-.328-.109-.438-.656-.219-.875ZM108.079 55.392c1.968.109 3.498 1.749 3.498 3.717 0 2.077-1.64 3.717-3.607 3.717-1.968 0-3.608-1.64-3.608-3.717 0-1.203.546-2.296 1.312-2.952l2.405-.765Z" fill="#000"/><path d="M107.97 62.935c1.968 0 3.608-1.64 3.608-3.717s-1.531-3.717-3.499-3.717l-2.296.765c-.874.656-1.311 1.75-1.311 2.952-.11 1.968 1.53 3.717 3.498 3.717Zm-1.203-11.37c15.634 1.858 42.2 5.794 66.47 11.698 5.248 1.421 6.778 4.482 5.576 9.511-.656 2.952-1.312 6.013-2.187 9.074-14.868-4.154-78.823-16.945-78.823-16.945.874-2.843 1.64-5.795 2.405-8.856.656-2.842 3.498-4.81 6.559-4.482Z" fill="#000"/><path d="M137.815 92.234c.438-1.968-.874-3.498-2.951-3.498-2.078 0-4.046 1.53-4.373 3.498-.438 1.968.874 3.499 2.951 3.499s3.936-1.53 4.373-3.499Zm-15.196 12.245c-.328.109-.656-.11-.765-.438-.656-3.935-2.296-15.524-2.733-17.929 0-.11-.11-.11-.219-.11-1.859 1.531-15.415 12.464-18.367 15.306-.328.219-.218.766.219.875 5.029 1.53 32.36 9.73 37.717 11.37.438.109.766-.219.656-.656l-3.28-13.666c-.109-.328-.437-.546-.765-.328l-12.463 5.576Zm26.566 15.633c-.546.984-1.749 1.531-2.842 1.203-11.37-3.608-40.997-12.245-54.116-16.399-1.64-.547-2.187-2.077-1.312-3.498 4.263-6.67 8.2-15.087 11.042-24.27.328-1.203 1.53-1.86 2.842-1.64l54.444 12.9c1.312.328 2.077 1.64 1.749 2.952-2.733 9.292-6.778 19.022-11.807 28.752Z" fill="#fff"/><path d="M66.644 136.073c2.187.875 5.248.875 8.856.219 2.296-.438 4.7-1.203 7.215-2.296a34.111 34.111 0 0 0 7.872-4.701c2.624-2.187 4.373-4.482 4.81-6.56l-.875 3.936-2.405 11.151c-.328 1.312-2.077 2.952-4.591 4.045-2.296.984-4.483 1.203-5.685.766l-15.197-6.56Z" fill="#FF788F"/><path d="m95.178 120.112-.218-.437-2.296-4.482-9.402-18.257-1.203-2.296c-.11.218-.328.546-.546.765-.438.547-.875 1.093-1.422 1.75l-.765.764c-.218.22-.546.547-.874.766-.11.109-.22.218-.328.218-.22.219-.438.438-.656.547-.328.219-.656.547-.984.765-.328.219-.547.438-.875.656-.11 0-.11.11-.219.11-.109.109-.328.218-.437.328.547.765.984 1.53 1.421 2.295.11.219.11.547-.109.656.547.656 1.093 1.312 1.53 2.077 1.203 1.968 2.187 4.046 3.28 6.013.984 1.968 2.187 3.936 3.28 5.904 1.968 3.717 3.498 7.653 5.904 11.151.109-.109 1.312 10.605 1.42 10.495 1.313-4.373 3.171-15.196 3.718-17.164v-.109a3.937 3.937 0 0 0-.219-2.515Z" fill="#fff"/><path d="m90.258 146.678-8.527-3.826c1.312.437 3.498.218 5.685-.765 2.405-1.094 4.264-2.734 4.592-4.045l-1.75 8.636Z" fill="#000"/><path d="m65.551 117.489 9.949 18.913c-3.499.656-6.67.547-8.856-.219l-.328-.218c-.328-.11-.546-.219-.765-.438-.11 0-.219-.109-.328-.218-.328-.219-.547-.547-.875-.875-.109-.109-.218-.218-.218-.328-.11-.109-.11-.218-.219-.328l-5.466-10.604 7.106-5.685Z" fill="#FF788F"/><path d="M88.51 141.649c-.329.109-.657.328-.985.437-2.296.984-4.482 1.203-5.685.765l-15.087-6.778c2.187.875 5.248.984 8.856.219l11.26 5.029c.438.219.984.328 1.64.328Z" fill="#FF788F"/><path d="M57.788 108.414c-.218 0-.437.11-.656.11-.328 0-.546.109-.874.109h-.11.11c2.296-.547 4.81-1.421 7.215-2.405 2.843-1.203 5.466-2.733 7.653-4.264 2.952-2.077 5.138-4.264 6.56-6.45 1.53-2.405 2.077-4.701 1.311-6.56-.109-.218-.218-.437-.328-.546-.546-1.203-1.858-4.045-2.405-7.544 0-.11.11-.11.11-.218.765-.984 1.312-2.078 1.968-3.17.109-.22.328-.547.437-.766a20.409 20.409 0 0 0 1.64-3.499v.11c-.11.765-.219 1.421-.219 2.186 0 .875 0 1.75.11 2.624.109.656.109 1.203.218 1.859.11.328.11.656.219.984.109.546.218 1.093.328 1.53.109.219.109.547.218.765.11.219.11.438.219.766.11.328.219.546.328.874.11.438.328.875.437 1.203.11.328.328.656.438.984.109.11.109.218.218.437 0 .11.11.11.11.219v.109c.109.11.218.328.218.437.328.766.437 1.53.328 2.406v.655c0 .22-.11.328-.11.547 0 .219-.109.328-.218.547 0 .109-.11.218-.11.437-.218.656-.655 1.312-1.093 1.968-.109.218-.327.546-.546.765-.437.547-.875 1.203-1.421 1.75l-.766.765c-.218.218-.546.546-.874.765-.11.11-.219.218-.328.218-.219.22-.438.329-.656.547-.328.219-.656.547-.984.765-.328.219-.547.438-.875.656-.109.11-.109.11-.218.11-2.187 1.53-4.81 3.061-7.653 4.263-1.53.656-3.061 1.203-4.592 1.75-.218.109-.546.218-.765.218-.656.219-1.203.328-1.858.438h-.11c-.328.109-.656.218-.984.218h-.218c-.11 0-.22 0-.22.11-.436 0-.874.109-1.202.218Z" fill="#fff"/><mask id="a" style="mask-type:alpha" maskUnits="userSpaceOnUse" x="28" y="30" width="150" height="137"><path d="M101.192 30.793c-35.53-.547-72.001 28.206-72.548 63.627-.437 22.193 10.386 41.762 27.004 53.788 3.826 2.733 6.122 7.106 6.122 11.807v4.811c0 .874.765 1.64 1.64 1.64h66.972c.875 0 1.64-.766 1.64-1.64v-4.811c0-4.701 2.296-9.183 6.231-11.916 16.29-11.698 32.386-46.058 38.945-67.377-.109-35.202-40.584-49.382-76.006-49.93Z" fill="#45E0A8"/></mask><g mask="url(#a)"><path d="M92.227 104.806c13.119 4.154 42.746 12.682 54.116 16.399 1.093.328 2.296-.11 2.843-1.203 5.029-9.621 9.074-19.46 11.807-28.862.328-1.312-.437-2.624-1.749-2.952l-54.444-12.9c-1.203-.328-2.406.437-2.843 1.64-2.842 9.183-6.669 17.601-11.042 24.27-.874 1.531-.328 3.17 1.312 3.608Zm-10.495 38.045 8.527 3.826 1.859-8.636 2.405-11.151.875-3.936v-.11c.218-.983.109-1.858-.219-2.623l-.219-.438-2.295-4.482-6.533-18.706c5.794-8.964 10.153-17.242 13.979-29.705 0 0 61.538 10.912 76.406 15.067-3.608 13.119-10.386 27.222-17.492 40.887-9.074 18.586-21.209 36.734-34.984 52.039H58.336L33.41 137.494c9.184-4.154 17.602-8.855 25.036-14.431l5.466 10.605c0 .109.11.218.219.328.109.109.109.218.218.328.219.328.547.546.875.874.11.11.218.11.328.219.218.219.437.328.765.437l.328.219 15.087 6.778Z" fill="#FF788F"/><path d="M58.446 124.047c-7.543 5.576-15.743 9.293-24.926 13.557l24.926 37.28 67.782.109c13.447-14.978 23.614-32.798 33.235-50.946" stroke="#000" stroke-miterlimit="10" stroke-linecap="round" stroke-linejoin="round"/></g><path d="M160.993 119.018c1.64-3.17 3.389-6.45 4.81-9.73M167.881 104.915c3.279-7.871 6.668-15.633 8.746-23.067.874-3.061 1.53-6.123 2.186-9.074 1.093-5.03-.328-8.09-5.576-9.512-24.27-5.903-50.836-9.948-66.469-11.698-3.061-.328-5.795 1.64-6.56 4.592-.765 3.061-1.53 6.013-2.405 8.855-3.826 12.464-8.637 22.959-14.43 32.033" stroke="#000" stroke-miterlimit="10" stroke-linecap="round" stroke-linejoin="round"/><path d="M108.08 55.392c1.968.109 3.498 1.749 3.498 3.717 0 2.077-1.64 3.717-3.607 3.717-1.968 0-3.608-1.64-3.608-3.717a3.62 3.62 0 0 1 1.093-2.624" stroke="#FF788F" stroke-miterlimit="10" stroke-linecap="round" stroke-linejoin="round"/><path d="M159.244 88.299c1.311.327 2.077 1.64 1.749 2.951-2.733 9.402-6.778 19.132-11.807 28.862-.547.984-1.75 1.531-2.843 1.203-11.37-3.608-40.997-12.245-54.116-16.399-1.64-.547-2.186-2.077-1.312-3.498 4.264-6.67 8.2-15.087 11.042-24.27.328-1.203 1.531-1.86 2.843-1.64l54.444 12.79Z" stroke="#fff" stroke-miterlimit="10" stroke-linecap="round" stroke-linejoin="round"/><path d="m92.665 115.192 49.415 15.087M115.404 133.231l20.444 6.231M92.665 136.948l31.923 9.73M94.523 126.89l15.197 4.592M76.377 80.429A40 40 0 0 1 58.776 94.64c-3.827 1.64-7.981 2.624-12.245 2.952-2.296.218-4.7.11-7.106-.11a24.024 24.024 0 0 1-4.045-.656C15.155 92.892.943 74.198 3.02 53.316 5.206 31.123 24.885 14.833 47.187 17.02 69.49 19.206 85.67 38.885 83.483 61.187c-.437 4.155-1.421 8.2-2.952 11.917M78.78 76.491c-.11.219-.328.547-.437.766M66.645 136.073c2.187.875 5.248.875 8.856.219 2.296-.438 4.7-1.203 7.215-2.296a34.114 34.114 0 0 0 7.872-4.701c2.624-2.187 4.373-4.482 4.81-6.56M51.011 108.633l7.434 14.54 5.467 10.605c0 .109.109.218.218.328.11.109.11.218.219.328.219.328.546.546.874.874.11.11.22.11.329.219.218.218.437.328.765.437M82.061 94.64l1.203 2.295 9.402 18.257 2.295 4.483.22.437c.327.765.436 1.64.218 2.624" stroke="#000" stroke-miterlimit="10" stroke-linecap="round" stroke-linejoin="round"/><path d="M44.562 104.915c-4.045-6.887-9.402-8.09-9.402-8.09h.109M92.118 138.041l-1.858 8.637-8.528-3.827c1.312.438 3.499.219 5.685-.765 2.515-1.093 4.373-2.733 4.701-4.045Z" stroke="#000" stroke-miterlimit="10" stroke-linecap="round" stroke-linejoin="round"/><path d="m66.317 135.964.328.109 15.087 6.778M92.118 138.041l2.405-11.151.875-4.045v-.11M51.012 108.633c-2.952-.328-5.248-1.422-6.232-3.171-.11-.218-.218-.328-.218-.546-.875-2.078-.22-4.701 1.858-7.435.765-1.093 1.859-2.186 3.061-3.28M78.233 98.902c-.218.219-.437.328-.656.547-.328.219-.656.547-.984.765-.328.219-.546.438-.874.656M80.201 97.044l-.765.765c-.219.219-.547.547-.875.766M80.578 73.183c-1.39 7.643 4.454 14.591 2.685 18.941-.427 1.05-1.296 2.38-1.296 2.598" stroke="#000" stroke-miterlimit="10" stroke-linecap="round" stroke-linejoin="round"/><path d="M78.561 84.581c2.078.547 3.608 1.421 4.483 2.733M75.72 100.98c-.11.109-.11.109-.22.109-2.186 1.531-4.81 3.061-7.652 4.264-1.53.656-3.061 1.203-4.592 1.749M78.562 98.684c-.11.11-.22.219-.33.219M81.623 95.295c-.437.546-.875 1.203-1.421 1.75M78.78 76.49a20.412 20.412 0 0 0 1.64-3.498v.11M76.376 80.427c.765-.984 1.311-2.077 1.967-3.17M63.263 107.104s-5.036 1.31-7.004 1.529c-1.968.218-3.717.218-5.248 0M52.761 91.687c.984-.656 1.968-1.312 3.061-1.968 1.312-.765 2.733-1.421 4.264-2.077.984-.437 1.968-.875 2.952-1.203l.984-.328M176.517 81.848c-14.452-4.038-75.285-16.237-78.676-16.916M50.683 62.17c4.154 9.839 10.495 20.006 10.495 20.006M50.683 62.169c3.39-6.67 2.187-14.322-1.42-13.338-3.062.765-1.531 6.669 1.42 13.338ZM41.718 68.838c2.296-.109 4.592-.984 6.341-2.842 1.093-1.203 1.968-2.405 2.624-3.827" stroke="#000" stroke-miterlimit="10" stroke-linecap="round" stroke-linejoin="round"/><path d="M41.72 68.838c-4.155-5.028-7.981-8.308-10.059-6.56-2.186 2.953 4.155 6.998 10.058 6.56Z" stroke="#000" stroke-miterlimit="10" stroke-linecap="round" stroke-linejoin="round"/><path d="M58.664 94.64s-1.094-1.969-2.843-4.92c-3.28-5.467-8.964-14.54-14.103-20.882M60.742 108.195l4.81 9.293 9.733 18.504M90.479 129.295l-12.9-24.379-2.078-3.827M138.472 113.661c.437.11.765-.218.656-.656l-3.28-13.665c-.109-.328-.437-.547-.765-.328l-12.463 5.575c-.328.11-.656-.109-.766-.437-.656-3.936-2.295-15.524-2.733-17.93 0-.109-.109-.109-.218-.109-1.859 1.53-15.415 12.463-18.367 15.306-.328.219-.219.765.219.874 5.029 1.531 32.469 9.73 37.717 11.37Z" stroke="#000" stroke-miterlimit="10" stroke-linecap="round" stroke-linejoin="round"/><path d="M118.674 65.438c-1.919 0-3.518-1.6-3.518-3.731 0-2.026 1.599-3.624 3.518-3.624 1.919 0 3.518 1.599 3.518 3.624 0 2.132-1.493 3.73-3.518 3.73ZM128.694 67.57c1.943 0 3.518-1.624 3.518-3.625 0-2.002-1.575-3.625-3.518-3.625-1.943 0-3.518 1.623-3.518 3.625 0 2.001 1.575 3.624 3.518 3.624Z" fill="#FF788F" stroke="#FF788F" stroke-miterlimit="10" stroke-linecap="round" stroke-linejoin="round"/></svg>
