<svg width="257" height="51" viewBox="0 0 257 51" fill="none" xmlns="http://www.w3.org/2000/svg">
<path d="M239.759 27.2021C239.41 27.2439 239.057 27.2727 238.715 27.3354C238.493 27.3745 238.397 27.2596 238.249 27.1995C238.2 27.1786 238.147 27.1368 238.101 27.142C237.755 27.1838 237.41 27.2309 237.064 27.2779C236.958 27.3798 236.891 27.5156 236.729 27.5652C236.57 27.6123 236.383 27.6123 236.207 27.6358C235.974 27.6645 235.741 27.6933 235.508 27.7194C235.392 27.7324 235.296 27.7821 235.258 27.8761C235.251 27.8918 235.328 27.931 235.37 27.9545C235.512 28.0328 235.649 28.1216 235.804 28.1817C235.953 28.2392 236.136 28.1452 236.295 28.2183C236.651 28.3829 236.655 28.3803 236.926 28.3489C237.159 28.3202 237.392 28.2889 237.625 28.268C237.671 28.2627 237.724 28.3019 237.773 28.3228C237.921 28.3803 238.016 28.5109 238.235 28.4613C238.401 28.4221 238.584 28.4142 238.757 28.3933C238.902 28.4691 239.036 28.5553 239.191 28.6154C239.336 28.6728 239.378 28.7173 239.301 28.793C239.23 28.8636 239.131 28.8923 239.001 28.8975C238.884 28.9001 238.768 28.9236 238.651 28.9367C238.591 28.9445 238.535 28.9498 238.479 28.9576C238.256 28.9863 238.256 28.9863 237.851 28.8191C237.692 28.7538 237.512 28.8453 237.36 28.7826C237.258 28.7408 237.17 28.6781 237.071 28.6337C237.029 28.6154 236.962 28.6128 236.909 28.618C236.732 28.6363 236.556 28.6493 236.387 28.6833C236.267 28.7068 236.196 28.78 236.21 28.8531C236.214 28.8818 236.298 28.9236 236.348 28.9263C236.461 28.9315 236.581 28.8949 236.69 28.9132C236.796 28.9315 236.905 28.9837 236.983 29.0412C237.142 29.1613 237.321 29.0542 237.473 29.0856C237.632 29.1196 237.762 29.2241 237.914 29.2867C237.953 29.3024 238.027 29.2763 238.087 29.2684C238.26 29.2502 238.433 29.2345 238.606 29.2162C238.75 29.292 238.906 29.3599 239.036 29.4461C239.272 29.6028 239.526 29.6629 239.833 29.5871C240.006 29.5453 240.176 29.561 240.313 29.6629C240.454 29.7674 240.617 29.7569 240.796 29.736C240.962 29.7152 241.132 29.6577 241.301 29.7308C241.668 29.8928 241.671 29.9006 242.105 29.8379C242.236 29.8196 242.335 29.8144 242.433 29.8745C242.525 29.9294 242.624 29.9764 242.719 30.0286C242.892 30.0103 243.068 29.9921 243.241 29.9712C243.464 29.9424 243.587 29.979 243.64 30.1253C243.672 30.2141 243.686 30.2951 243.763 30.3552C243.855 30.4283 243.954 30.4257 244.088 30.4048C244.215 30.3865 244.307 30.3578 244.36 30.2637C244.381 30.2246 244.423 30.188 244.462 30.1566C244.494 30.1331 244.543 30.0965 244.571 30.1018C244.624 30.1122 244.695 30.1409 244.712 30.1749C244.885 30.491 244.885 30.4936 245.062 30.585C245.256 30.6869 245.457 30.7783 245.633 30.8933C245.792 30.9951 245.951 30.9508 246.124 30.9508C246.254 30.9508 246.339 31.0187 246.328 31.0866C246.321 31.1258 246.272 31.1832 246.229 31.1885C245.884 31.2407 245.534 31.2851 245.185 31.3217C245.143 31.3269 245.09 31.2799 245.041 31.2564C244.942 31.2094 244.854 31.1362 244.748 31.1205C244.642 31.1049 244.518 31.1441 244.402 31.1571C244.286 31.1702 244.162 31.2042 244.056 31.1833C243.95 31.1624 243.866 31.0866 243.767 31.037C243.721 31.0134 243.658 30.9795 243.619 30.9873C243.361 31.05 243.171 30.9638 242.987 30.8489C242.948 30.8254 242.881 30.8097 242.832 30.8149C242.423 30.8593 242.017 30.9116 241.608 30.9612C241.442 30.9821 241.308 30.8907 241.273 30.7365C241.255 30.6503 241.22 30.5641 241.22 30.4779C241.22 30.3212 241.026 30.235 240.885 30.2533C240.652 30.2794 240.415 30.3003 240.186 30.3395C239.999 30.3708 239.84 30.3395 239.713 30.2454C239.565 30.1383 239.396 30.1592 239.227 30.188C239.1 30.2089 239.064 30.2951 239.071 30.5119C239.078 30.6869 239.018 30.7418 238.789 30.7705C238.5 30.8071 238.207 30.8436 237.914 30.8724C237.868 30.8776 237.815 30.8332 237.769 30.8097C237.671 30.7627 237.582 30.6869 237.477 30.6712C237.371 30.6529 237.247 30.6921 237.131 30.7078C237.014 30.7209 236.891 30.7574 236.785 30.7392C236.679 30.7209 236.591 30.6425 236.496 30.5929C236.45 30.5694 236.394 30.5354 236.348 30.5406C236.115 30.5615 235.882 30.5929 235.649 30.6216C235.388 30.653 235.388 30.653 235.018 30.491C234.848 30.4179 234.679 30.4753 234.513 30.4962C234.337 30.5171 234.171 30.5276 234.033 30.4231C233.942 30.3552 233.839 30.3134 233.73 30.3264C233.437 30.3578 233.148 30.397 232.855 30.4283C232.806 30.4335 232.739 30.4205 232.7 30.397C232.513 30.2872 232.329 30.201 232.068 30.2559C231.843 30.3029 231.599 30.3055 231.373 30.3499C231.25 30.3734 231.193 30.457 231.218 30.5223C231.232 30.5563 231.306 30.5955 231.356 30.5955C231.469 30.5981 231.592 30.5589 231.698 30.5746C231.917 30.6059 232.026 30.8254 232.312 30.7653C232.481 30.7287 232.658 30.7156 232.834 30.7052C232.88 30.7026 232.929 30.7522 232.979 30.7783C233.12 30.8489 233.243 30.9403 233.448 30.8933C233.617 30.8567 233.797 30.8463 233.97 30.8254C234.245 30.7914 234.245 30.794 234.601 30.9534C234.771 31.0291 234.94 30.969 235.106 30.9508C235.229 30.9377 235.346 30.9116 235.445 30.9481C235.596 31.003 235.706 31.1284 235.893 31.1205C236.069 31.1127 236.242 31.0761 236.418 31.0631C236.528 31.0552 236.63 31.097 236.718 31.1676C236.81 31.2381 236.909 31.2694 237.029 31.2538C237.201 31.2329 237.378 31.2067 237.554 31.1937C237.604 31.1911 237.66 31.2146 237.706 31.2355C237.805 31.2825 237.9 31.3374 237.995 31.387C238.168 31.3713 238.345 31.3661 238.514 31.3348C238.644 31.3113 238.736 31.3217 238.842 31.374C238.976 31.4445 239.085 31.5699 239.304 31.5098C239.414 31.4811 239.541 31.4889 239.65 31.4628C239.784 31.4288 239.876 31.4419 239.971 31.5202C240.151 31.6691 240.377 31.6717 240.609 31.6143C240.863 31.5516 241.054 31.6247 241.245 31.7397C241.446 31.8598 241.446 31.8572 241.601 32.1472C241.647 32.2308 241.777 32.27 241.887 32.2543C242.07 32.2282 242.229 32.2412 242.363 32.3405C242.504 32.4476 242.673 32.4345 242.846 32.4058C243.075 32.3666 243.305 32.3327 243.492 32.4842C243.583 32.5573 243.682 32.5756 243.806 32.5573C244.155 32.5103 244.508 32.4816 244.85 32.4241C245.058 32.3875 245.178 32.4711 245.319 32.5416C245.51 32.6383 245.718 32.7245 245.718 32.9309C245.718 32.9648 245.767 33.004 245.81 33.0301C245.901 33.085 246 33.132 246.095 33.1842C246.237 33.2626 246.374 33.3279 246.568 33.2861C246.737 33.2522 246.917 33.2417 247.09 33.2182C247.263 33.1947 247.422 33.1816 247.577 33.2809C247.757 33.3932 247.947 33.5003 248.152 33.5839C248.297 33.644 248.487 33.5421 248.643 33.6231C248.738 33.6727 248.829 33.7302 248.932 33.772C248.974 33.7903 249.041 33.7772 249.098 33.772C249.214 33.7616 249.334 33.7537 249.447 33.7276C249.577 33.6989 249.676 33.7041 249.775 33.7642C249.867 33.819 249.958 33.8948 250.064 33.9105C250.223 33.934 250.399 33.8295 250.558 33.9496C250.639 34.0097 250.742 34.0672 250.847 34.0855C250.953 34.1038 251.077 34.0646 251.19 34.0672C251.239 34.0672 251.299 34.109 251.327 34.143C251.345 34.1612 251.32 34.2109 251.296 34.237C251.264 34.2683 251.218 34.3101 251.172 34.3154C250.823 34.3624 250.474 34.4016 250.124 34.446C249.916 34.4721 249.916 34.4721 249.496 34.3075C249.397 34.2683 249.288 34.2762 249.165 34.2945C248.999 34.318 248.83 34.3624 248.657 34.3154C248.431 34.1377 248.152 34.122 247.856 34.19C247.732 34.2187 247.619 34.2187 247.528 34.1691C247.334 34.0698 247.129 33.9784 246.956 33.8608C246.822 33.7694 246.759 33.7616 246.702 33.887C246.685 33.9261 246.667 33.9679 246.67 34.0045C246.692 34.1351 246.73 34.2631 246.752 34.3937C246.759 34.4303 246.73 34.4721 246.713 34.5113C246.656 34.621 246.582 34.6132 246.459 34.5217C246.335 34.4303 246.187 34.3702 245.99 34.412C245.82 34.4486 245.637 34.4434 245.467 34.4826C245.206 34.54 245.023 34.4564 244.836 34.3441C244.797 34.3206 244.73 34.3075 244.681 34.3128C244.155 34.3728 243.633 34.4408 243.107 34.5008C242.994 34.5139 242.892 34.4747 242.804 34.4042C242.712 34.3337 242.61 34.2971 242.497 34.3101C242.031 34.365 241.565 34.4146 241.1 34.4826C240.909 34.5113 240.758 34.4773 240.627 34.3859C240.528 34.318 240.437 34.2971 240.313 34.3049C240.179 34.3127 240.084 34.3389 240.017 34.4146C239.953 34.4878 239.999 34.5322 240.14 34.5896C240.292 34.6523 240.433 34.7333 240.578 34.8065C240.694 34.796 240.811 34.7751 240.923 34.7777C240.973 34.7777 241.019 34.8247 241.068 34.8509C241.209 34.9266 241.34 35.0024 241.541 34.9606C241.71 34.924 241.89 34.9162 242.063 34.8927C242.303 34.8639 242.303 34.8639 242.691 35.0285C242.79 35.0703 242.896 35.0677 243.023 35.0442C243.132 35.0259 243.245 35.0625 243.322 35.1408C243.354 35.1722 243.344 35.2244 243.277 35.3969C243.277 35.5249 243.351 35.4674 243.375 35.3838C243.414 35.2636 243.34 35.2244 243.199 35.2897C243.1 35.3368 243.051 35.4047 243.075 35.4595C243.09 35.4883 243.157 35.5249 243.277 35.3969C243.587 35.2401 243.823 35.2218 244.049 35.18C244.183 35.1565 244.268 35.1669 244.374 35.2349C244.501 35.3158 244.628 35.4021 244.836 35.3603C245.062 35.3133 245.302 35.308 245.531 35.2688C245.743 35.2323 245.852 35.3472 245.986 35.4151C246.148 35.4961 246.328 35.4047 246.476 35.4517C246.632 35.4987 246.741 35.6137 246.921 35.6346C247.182 35.564 247.348 35.6946 247.545 35.7809C247.701 35.8462 247.884 35.7887 248.05 35.7599C248.237 35.7286 248.392 35.7573 248.523 35.8514C248.671 35.9585 248.837 35.935 249.006 35.9115C249.401 35.8592 249.415 35.8514 249.644 35.995C249.81 36.0995 249.969 36.0525 250.135 36.0395C250.279 36.11 250.421 36.1857 250.572 36.2484C250.611 36.2641 250.685 36.238 250.745 36.2302C250.918 36.2093 251.094 36.1884 251.267 36.1675C251.384 36.1544 251.507 36.1152 251.613 36.1309C251.719 36.1492 251.807 36.2249 251.902 36.2746C251.998 36.3242 252.096 36.3738 252.188 36.4261C252.329 36.5044 252.463 36.5698 252.661 36.5306C252.83 36.4966 253.007 36.4862 253.183 36.4627C253.405 36.4339 253.398 36.4418 253.811 36.5985C254.033 36.6847 254.262 36.5802 254.488 36.5698C254.601 36.5645 254.711 36.5933 254.788 36.669C254.82 36.7004 254.809 36.7526 254.82 36.797C254.238 36.8676 253.652 36.9276 253.077 37.0138C252.855 37.0478 252.738 36.9537 252.619 36.8754C252.421 36.75 252.16 36.9328 251.973 36.7709C251.86 36.6742 251.698 36.6194 251.504 36.6664C251.391 36.6925 251.271 36.6899 251.154 36.7134C250.858 36.7709 250.586 36.7735 250.35 36.5933C250.269 36.5306 250.152 36.4966 250.068 36.4365C249.969 36.3712 249.874 36.3346 249.757 36.3477C249.232 36.4104 248.71 36.4731 248.187 36.541C248.142 36.5462 248.096 36.5854 248.057 36.6142C247.958 36.6873 247.99 36.7448 248.149 36.7918C248.201 36.8075 248.244 36.8414 248.293 36.8675C248.389 36.9172 248.477 36.9956 248.583 37.0138C248.688 37.0321 248.812 36.9956 248.928 36.9825C249.045 36.9694 249.168 36.9302 249.274 36.9459C249.38 36.9642 249.468 37.04 249.567 37.087C249.613 37.1105 249.669 37.1497 249.715 37.1471C249.948 37.1314 250.177 37.1027 250.41 37.0791C250.555 37.1497 250.678 37.2516 250.851 37.2751C250.96 37.2907 251.077 37.262 251.19 37.2672C251.239 37.2698 251.303 37.309 251.327 37.343C251.341 37.3639 251.296 37.4161 251.26 37.4423C251.126 37.5415 250.943 37.5232 250.777 37.5546C250.597 37.5885 250.435 37.5781 250.297 37.4762C250.205 37.4083 250.103 37.3717 249.99 37.3848C249.697 37.4188 249.408 37.4579 249.115 37.4867C249.066 37.4919 249.006 37.4684 248.96 37.4501C248.59 37.2908 248.59 37.2855 248.329 37.3195C247.944 37.3691 247.944 37.3691 247.686 37.2306C247.637 37.2045 247.584 37.1549 247.542 37.1575C247.133 37.1993 246.727 37.2411 246.321 37.3012C246.187 37.3195 246.095 37.3195 245.997 37.2516C245.912 37.1941 245.813 37.1288 245.707 37.1131C245.598 37.0974 245.478 37.1366 245.362 37.1497C245.245 37.1627 245.122 37.1967 245.019 37.1758C244.914 37.1549 244.822 37.0818 244.73 37.0295C244.635 36.9747 244.533 36.9773 244.402 36.9981C244 37.0582 243.996 37.0504 243.598 36.8885C243.552 36.8702 243.492 36.8493 243.442 36.8545C243.15 36.8858 242.86 36.925 242.567 36.9564C242.455 36.9694 242.345 36.9355 242.268 36.8597C242.236 36.8284 242.246 36.7761 242.225 36.6742C242.201 36.6507 242.229 36.6925 242.236 36.7317C242.289 36.7265 242.352 36.7317 242.391 36.7108C242.49 36.6612 242.539 36.5959 242.515 36.541C242.5 36.5123 242.433 36.4757 242.391 36.4757C242.313 36.4757 242.246 36.5332 242.225 36.6742C242.003 36.7604 241.767 36.7787 241.537 36.8205C241.403 36.8467 241.319 36.8336 241.213 36.7657C241.086 36.6821 240.955 36.6011 240.747 36.6429C240.521 36.6899 240.281 36.6978 240.049 36.7343C239.78 36.7761 239.664 36.541 239.438 36.5462C239.205 36.5515 238.972 36.5959 238.74 36.6272C238.535 36.6534 238.535 36.6533 238.112 36.4835C237.956 36.4208 237.773 36.5123 237.621 36.447C237.519 36.4052 237.431 36.3425 237.332 36.2981C237.29 36.2798 237.223 36.2798 237.17 36.285C236.877 36.3164 236.581 36.3373 236.298 36.3947C235.977 36.4627 235.734 36.3895 235.505 36.2354C235.215 36.2641 234.922 36.2798 234.637 36.3294C234.429 36.366 234.309 36.2798 234.167 36.2093C234.118 36.1858 234.076 36.1466 234.023 36.1361C233.97 36.1257 233.906 36.1466 233.85 36.1544C233.617 36.1831 233.377 36.1962 233.151 36.2432C232.873 36.3033 232.767 36.0891 232.552 36.063C232.407 36.191 232.329 36.366 232.044 36.379C231.811 36.3895 231.578 36.4313 231.345 36.46C231.229 36.4731 231.112 36.4888 230.996 36.5018C230.809 36.5254 230.721 36.6272 230.76 36.784C230.781 36.8702 230.798 36.9564 230.816 37.0426C230.851 37.1967 230.763 37.3273 230.615 37.3456C230.206 37.3952 229.8 37.4475 229.391 37.4919C229.281 37.5049 229.175 37.4605 229.087 37.39C228.996 37.3195 228.893 37.2881 228.78 37.3012C228.371 37.3508 227.965 37.4031 227.556 37.4475C227.51 37.4527 227.45 37.4266 227.405 37.4057C227.306 37.3587 227.21 37.3038 227.115 37.2542C226.882 37.2777 226.653 37.2933 226.424 37.3247C226.053 37.3717 226.053 37.3743 225.782 37.2306C225.732 37.2045 225.683 37.1549 225.637 37.1575C225.461 37.168 225.288 37.1941 225.111 37.2176C224.593 37.2855 224.593 37.2855 224.441 37.2071C224.303 37.134 224.18 37.0452 223.972 37.087C223.746 37.134 223.506 37.1497 223.273 37.1758C223.1 37.1941 222.928 37.215 222.755 37.2202C222.709 37.2228 222.659 37.1732 222.61 37.1471C222.469 37.0661 222.331 37.0008 222.137 37.0452C222.024 37.0713 221.904 37.0765 221.788 37.0896C221.485 37.1262 221.485 37.1262 220.987 36.9694C220.938 36.9537 220.878 36.9355 220.828 36.9433C220.419 36.9903 220.013 37.0426 219.604 37.087C219.555 37.0922 219.495 37.0765 219.446 37.0635C218.888 36.9119 218.888 36.912 218.295 36.9851C218.07 37.0112 218.063 37.0217 217.826 36.8832C217.72 36.8231 217.632 36.7944 217.509 36.8127C217.043 36.8754 216.574 36.9172 216.112 36.9903C215.903 37.0217 215.784 36.9433 215.642 36.8728C215.593 36.8493 215.54 36.797 215.498 36.7996C215.032 36.8493 214.566 36.9094 214.101 36.959C214.058 36.9642 214.005 36.912 213.956 36.8885C213.861 36.8414 213.769 36.7709 213.663 36.7552C213.554 36.7396 213.434 36.7787 213.314 36.7918C213.021 36.8258 213.021 36.8232 212.682 36.669C212.637 36.6481 212.577 36.6194 212.531 36.6246C212.065 36.6769 211.596 36.7213 211.134 36.797C210.869 36.8388 210.689 36.7631 210.502 36.6533C210.463 36.6298 210.396 36.6194 210.347 36.6246C209.821 36.6847 209.299 36.7526 208.774 36.8127C208.664 36.8258 208.558 36.7813 208.47 36.7134C208.329 36.6063 208.163 36.6194 207.987 36.6429C207.581 36.6977 207.578 36.6952 207.338 36.5698C207.288 36.5436 207.246 36.5097 207.193 36.4966C207.144 36.4836 207.08 36.4914 207.027 36.4966C206.794 36.5227 206.562 36.5515 206.329 36.5802C206.096 36.6089 205.859 36.6246 205.63 36.669C205.348 36.7239 205.214 36.5541 205.016 36.4757C204.727 36.5097 204.431 36.5306 204.145 36.5854C203.926 36.6272 203.824 36.5123 203.679 36.4522C203.63 36.4313 203.577 36.3869 203.531 36.3921C203.005 36.4496 202.48 36.5123 201.958 36.5828C201.831 36.5985 201.746 36.5776 201.64 36.5149C201.404 36.3738 201.393 36.3791 200.998 36.4313C200.825 36.4548 200.659 36.4757 200.511 36.3686C200.381 36.272 200.222 36.2484 200.035 36.2798C199.806 36.319 199.569 36.3399 199.336 36.366C199.104 36.3947 198.871 36.4339 198.638 36.447C198.451 36.46 198.338 36.3373 198.19 36.2746C198.144 36.2563 198.08 36.2537 198.028 36.2589C197.795 36.2824 197.555 36.3007 197.329 36.3451C197.054 36.3999 196.902 36.2563 196.708 36.1727C196.666 36.1544 196.595 36.1649 196.542 36.1727C196.133 36.2197 195.727 36.2719 195.318 36.3216C195.173 36.251 195.025 36.1831 194.881 36.1126C194.648 36.1387 194.415 36.1675 194.182 36.1936C194.006 36.2145 193.826 36.2223 193.66 36.2615C193.445 36.3138 193.339 36.191 193.194 36.1309C193.145 36.11 193.092 36.0656 193.046 36.0708C192.753 36.0995 192.46 36.1309 192.171 36.1753C191.896 36.2197 191.787 35.9846 191.561 35.9872C191.328 35.9898 191.088 36.0238 190.862 36.0708C190.601 36.1257 190.418 36.0421 190.231 35.9297C190.192 35.9062 190.125 35.8932 190.076 35.8984C189.783 35.9297 189.494 35.9689 189.201 36.0003C189.151 36.0055 189.091 35.9924 189.042 35.9768C188.485 35.8227 188.485 35.82 188.241 35.8514C188.068 35.8723 187.892 35.8984 187.715 35.9115C187.666 35.9167 187.606 35.8932 187.56 35.8723C187.193 35.7129 187.193 35.7103 186.929 35.7417C186.696 35.7704 186.463 35.7991 186.23 35.8279C186.085 35.7573 185.937 35.6894 185.793 35.6189C185.503 35.6529 185.207 35.679 184.921 35.726C184.787 35.7469 184.699 35.739 184.597 35.6737C184.47 35.5954 184.343 35.504 184.131 35.5484C183.905 35.5954 183.665 35.6006 183.436 35.6398C183.161 35.6868 183.048 35.4491 182.826 35.4517C182.593 35.4543 182.353 35.4883 182.127 35.5353C181.866 35.5901 181.683 35.5066 181.496 35.3942C181.457 35.3707 181.39 35.3577 181.34 35.3629C180.698 35.4387 180.06 35.5144 179.418 35.5954C179.023 35.645 179.023 35.6476 178.271 35.5039C178.218 35.4935 178.162 35.4831 178.109 35.4883C177.876 35.5118 177.636 35.5301 177.41 35.5745C177.135 35.6293 176.983 35.4883 176.789 35.4021C176.747 35.3838 176.68 35.3942 176.624 35.3994C176.447 35.4177 176.274 35.4413 176.098 35.4622C175.865 35.4909 175.632 35.5196 175.399 35.5484C175.255 35.4804 175.107 35.4099 174.962 35.342C174.673 35.3759 174.376 35.3942 174.091 35.4491C173.872 35.4909 173.77 35.3812 173.625 35.3185C173.576 35.2976 173.523 35.2532 173.477 35.2558C172.951 35.3133 172.425 35.3733 171.903 35.4465C171.688 35.4778 171.589 35.3603 171.445 35.3002C171.395 35.2819 171.339 35.2479 171.293 35.2532C170.944 35.2897 170.594 35.3341 170.245 35.3786C170.048 35.4047 170.048 35.4047 169.617 35.2427C169.568 35.2244 169.511 35.2061 169.462 35.2114C168.354 35.342 167.25 35.4804 166.142 35.611C166.029 35.6241 165.927 35.5849 165.839 35.5144C165.747 35.4439 165.645 35.4073 165.532 35.4204C165.066 35.4752 164.597 35.5249 164.135 35.5928C163.944 35.6215 163.793 35.5875 163.662 35.4961C163.563 35.4282 163.472 35.4021 163.348 35.4177C163.115 35.4491 162.882 35.4752 162.65 35.5039C162.417 35.5327 162.184 35.5614 161.951 35.5902C161.718 35.6189 161.482 35.6346 161.253 35.679C160.97 35.7338 160.833 35.5719 160.639 35.4909C160.289 35.5301 159.94 35.5693 159.594 35.611C159.129 35.6659 158.663 35.726 158.197 35.7782C158.155 35.7835 158.102 35.7364 158.053 35.7129C157.908 35.6476 157.802 35.5562 157.587 35.5849C156.543 35.7234 155.491 35.8409 154.444 35.9768C154.225 36.0055 154.13 35.8932 153.981 35.8331C153.932 35.8148 153.876 35.7782 153.83 35.7835C153.248 35.8488 152.666 35.9219 152.084 35.9924C151.847 36.0212 151.847 36.0212 151.452 35.8592C151.406 35.8409 151.346 35.8174 151.297 35.8226C150.538 35.9114 149.783 36.0055 149.025 36.0969C148.912 36.11 148.81 36.0734 148.718 36.0029C148.63 35.9324 148.524 35.8932 148.414 35.9062C147.716 35.9898 147.014 36.0708 146.319 36.1622C146.132 36.1884 145.977 36.1649 145.843 36.0708C145.747 36.0029 145.652 35.9741 145.532 35.9898C144.484 36.1178 143.437 36.2406 142.389 36.3765C142.188 36.4026 142.047 36.3529 141.92 36.2667C141.817 36.1988 141.729 36.1857 141.602 36.1962C141.468 36.2093 141.387 36.238 141.313 36.3164C141.218 36.4182 141.158 36.5462 140.932 36.5541C140.699 36.5619 140.463 36.5933 140.233 36.6377C140.014 36.6821 139.912 36.5645 139.775 36.494C139.672 36.4444 139.577 36.4365 139.447 36.46C139.327 36.4809 139.252 36.5253 139.182 36.6089C139.027 36.7866 139.013 36.7866 138.822 36.6742C138.72 36.6142 138.628 36.5671 138.515 36.5776C138.049 36.6298 137.584 36.6873 137.118 36.7474C136.85 36.7813 136.846 36.7866 136.645 36.656C136.547 36.5907 136.451 36.5593 136.335 36.575C135.054 36.7317 133.774 36.8832 132.493 37.0478C132.295 37.0739 132.161 37.0191 132.02 36.9407C131.974 36.9146 131.929 36.878 131.876 36.8675C131.823 36.8571 131.763 36.8675 131.706 36.8728C130.775 36.9851 129.84 37.0922 128.912 37.2176C128.7 37.2463 128.588 37.1628 128.443 37.0948C128.394 37.0713 128.351 37.0347 128.298 37.0243C128.245 37.0165 128.182 37.0347 128.125 37.0426C127.194 37.1549 126.259 37.262 125.331 37.3874C125.109 37.4161 125.014 37.3064 124.869 37.249C124.82 37.2281 124.767 37.1888 124.721 37.1941C124.428 37.2228 124.139 37.262 123.846 37.296C123.148 37.3822 122.449 37.4632 121.75 37.552C121.482 37.5859 121.366 37.3534 121.14 37.3639C120.847 37.3769 120.558 37.4292 120.265 37.4658C120.032 37.4945 119.8 37.5206 119.567 37.552C119.337 37.5807 119.337 37.5807 118.766 37.4292C118.716 37.4161 118.656 37.3978 118.607 37.4031C117.792 37.4997 116.974 37.5964 116.162 37.7009C115.975 37.7244 115.82 37.7113 115.686 37.6147C115.591 37.5468 115.492 37.5128 115.376 37.5285C114.151 37.6773 112.931 37.8263 111.706 37.9726C111.661 37.9778 111.601 37.9516 111.555 37.9308C111.456 37.8837 111.361 37.8289 111.265 37.7793C111.195 37.8393 111.103 37.8942 111.057 37.9621C110.994 38.0535 110.909 38.0797 110.775 38.0953C110.641 38.111 110.556 38.1058 110.451 38.0379C110.324 37.9543 110.193 37.8889 109.985 37.9151C108.704 38.0796 107.424 38.2286 106.143 38.3905C105.931 38.4166 105.833 38.3017 105.684 38.2416C105.635 38.2233 105.578 38.1946 105.533 38.1998C105.007 38.2599 104.485 38.3252 103.959 38.3879C102.502 38.5655 101.045 38.7353 99.5916 38.9234C99.3271 38.9574 99.1471 38.8921 98.9601 38.7797C98.9213 38.7562 98.8543 38.7432 98.8049 38.7484C96.7658 38.9939 94.7266 39.2421 92.691 39.4903C92.5817 39.5033 92.4758 39.4615 92.3876 39.3936C92.2959 39.3231 92.1936 39.2891 92.0807 39.3022C91.1493 39.4145 90.218 39.5269 89.2866 39.6418C89.0538 39.6705 89.0502 39.6731 88.8103 39.5477C88.7609 39.5216 88.708 39.472 88.6692 39.4772C88.5881 39.4903 88.5104 39.5556 88.454 39.6444C88.3976 39.7384 88.3093 39.7646 88.1788 39.7828C88.0447 39.8011 87.9566 39.7933 87.8543 39.7306C87.7237 39.6522 87.6038 39.5765 87.3921 39.6026C84.7144 39.937 82.0367 40.2583 79.359 40.59C79.1438 40.6161 79.045 40.5065 78.8968 40.4464C78.8475 40.4281 78.7981 40.4019 78.7452 40.3967C78.6887 40.3915 78.6288 40.4072 78.5723 40.415C74.2047 40.9453 69.8372 41.4782 65.4697 42.0085C65.2086 42.0399 65.2121 42.0399 64.9264 42.2802C64.8911 42.3089 64.8452 42.3481 64.7958 42.3533C63.4587 42.5205 62.1181 42.6825 60.7775 42.8444C60.1954 42.915 59.6133 42.9881 59.0312 43.056C58.8231 43.0795 58.8231 43.0795 58.3256 43.3617C58.2833 43.3852 58.2339 43.4165 58.1845 43.4218C55.856 43.7065 53.5276 43.9912 51.1956 44.2707C51.0122 44.2916 50.864 44.3387 50.7794 44.4641C50.7194 44.5529 50.6418 44.6051 50.5254 44.6208C48.8955 44.8193 47.2656 45.0205 45.6322 45.2138C45.4382 45.2373 45.3217 45.3104 45.2264 45.4202C45.1947 45.4567 45.1664 45.4985 45.1206 45.5246C45.0782 45.5481 45.0148 45.556 44.9618 45.5638C43.5648 45.7336 42.1678 45.9086 40.7672 46.0706C40.559 46.0941 40.4743 46.1908 40.372 46.2926C40.3367 46.3266 40.312 46.3736 40.2662 46.3971C40.2203 46.418 40.1533 46.418 40.0968 46.4233C38.9326 46.5643 37.7684 46.708 36.6042 46.8491C36.3785 46.836 36.329 46.9875 36.2197 47.0789C36.1809 47.1103 36.1527 47.1521 36.1068 47.173C36.0574 47.1939 35.9939 47.1913 35.9339 47.1965C35.0025 47.3088 34.0712 47.429 33.1363 47.5335C32.9211 47.557 32.8787 47.6902 32.7623 47.7816C32.7235 47.8104 32.6847 47.8548 32.6389 47.8626C32.0568 47.9384 31.4747 48.0089 30.8926 48.0768C30.6985 48.1003 30.6985 48.0977 30.3563 48.3563C30.3175 48.3851 30.2716 48.4164 30.2222 48.4243C29.3508 48.534 28.4759 48.6385 27.601 48.7456C27.4881 48.7586 27.4105 48.8213 27.3541 48.9101C27.2976 48.999 27.2165 49.0564 27.1036 49.0695C26.4051 49.1557 25.7065 49.2445 25.0079 49.3229C24.8139 49.3438 24.6869 49.4091 24.6023 49.5266C24.5388 49.6155 24.4611 49.6598 24.3377 49.6755C23.6391 49.7591 22.9406 49.8506 22.2386 49.9237C22.034 49.9446 21.9281 50.0334 21.8434 50.1431C21.7764 50.2319 21.6988 50.2633 21.5682 50.279C20.2876 50.4305 19.0035 50.582 17.7264 50.7492C17.5112 50.7779 17.4018 50.6865 17.2606 50.6212C17.0596 50.5297 16.8726 50.4305 16.8726 50.2267C16.8726 50.1954 16.8126 50.1588 16.7703 50.1327C16.4563 49.9367 16.4563 49.9368 16.4069 49.7278C16.3787 49.5998 16.3469 49.4692 16.3223 49.3386C16.2764 49.1244 16.1635 49.0695 15.8389 49.1087C15.7225 49.1217 15.606 49.14 15.4896 49.1505C15.3168 49.1687 15.1862 49.0825 15.1545 48.9258C15.1369 48.8396 15.1157 48.7534 15.0981 48.6672C15.2745 48.6463 15.2709 48.6437 15.5814 48.3276C15.7119 48.1944 15.7119 48.1944 15.4615 48.0612C15.3662 48.0115 15.2745 47.9566 15.1722 47.9096C15.1263 47.8887 15.0663 47.8757 15.0169 47.8809C14.7241 47.9122 14.4348 47.9488 14.1456 47.9854C13.6799 48.0429 13.6798 48.0428 13.2071 47.7764C13.1683 47.7555 13.1083 47.7163 13.1153 47.6954C13.1542 47.5988 13.2494 47.557 13.3693 47.5465C13.5457 47.5308 13.7186 47.5047 13.8915 47.4838C14.0079 47.4708 14.1243 47.4551 14.2407 47.442C14.3501 47.3428 14.4631 47.2461 14.5654 47.1442C14.7276 46.9875 14.7276 46.9823 14.5053 46.8726C14.3642 46.7994 14.2125 46.7341 14.0679 46.6662C13.895 46.6871 13.7186 46.7106 13.5457 46.7289C13.327 46.7524 13.2388 46.7027 13.1824 46.5329C13.133 46.384 13.1929 46.2561 13.3623 46.2247C13.5352 46.1934 13.6975 46.1725 13.7857 46.0393C13.8704 45.9113 14.0185 45.8616 14.202 45.8512C14.3184 45.8433 14.4348 45.825 14.5512 45.8094C14.7029 45.7885 14.7841 45.6552 14.7523 45.5063C14.7347 45.4097 14.6994 45.3287 14.5618 45.3078C13.9515 45.2164 13.9444 45.219 13.641 45.0414C13.6128 45.0257 13.5917 44.9787 13.6022 44.9552C13.6199 44.916 13.6587 44.8585 13.701 44.8507C14.1067 44.7932 14.5124 44.741 14.9182 44.7018C15.0522 44.6887 15.151 44.6704 15.1969 44.5737C15.2604 44.4405 15.2321 44.3178 15.1087 44.2263C15.0699 44.1976 15.0063 44.161 14.964 44.1636C14.4983 44.2107 14.0361 44.2707 13.5705 44.3177C13.5281 44.323 13.4506 44.2786 13.4329 44.2446C13.3976 44.1819 13.4505 44.0983 13.574 44.0696C13.7363 44.0304 13.9021 44.0278 14.0115 43.8972C14.1632 43.7117 14.3501 43.5419 14.5195 43.3643C14.5477 43.3329 14.5936 43.2728 14.583 43.2676C14.4948 43.2101 14.3925 43.1657 14.3008 43.1109C14.1455 43.0194 14.1455 42.8915 14.1808 42.7687C14.209 42.6694 14.3148 42.6302 14.4454 42.6302C14.5018 42.6302 14.5724 42.6302 14.6182 42.6067C14.7382 42.5493 14.777 42.4761 14.717 42.4212C14.6818 42.3899 14.6183 42.3455 14.576 42.3507C13.821 42.4369 13.0624 42.5205 12.311 42.6276C12.0887 42.659 11.9865 42.5597 11.8524 42.4892C11.7501 42.4343 11.6548 42.4134 11.5278 42.4526C11.4078 42.4892 11.2915 42.4683 11.2174 42.3821C11.1574 42.3115 11.2632 42.2515 11.549 42.1835C11.6019 42.1705 11.6618 42.1626 11.7007 42.1365C12.1099 41.8544 12.1099 41.8518 12.3921 41.8152C12.6673 41.7812 12.6674 41.7786 12.812 41.6271C12.879 41.5566 12.9531 41.486 13.0166 41.4129C13.0413 41.3842 13.0836 41.3319 13.0695 41.3162C12.9919 41.2353 12.886 41.217 12.7626 41.2353C12.4874 41.2797 12.1629 41.2431 12.0182 41.4913C11.9618 41.5853 11.8736 41.6115 11.7466 41.6271C10.4695 41.7786 9.19231 41.9406 7.91167 42.0869C7.70353 42.1104 7.60833 42.207 7.52719 42.3142C7.45663 42.403 7.379 42.4291 7.24493 42.4448C7.11087 42.4604 7.00499 42.4683 6.92737 42.3821C6.88151 42.3298 6.92033 42.2567 7.02616 42.1835C7.17786 42.079 7.14963 41.9484 7.10024 41.8257C7.06496 41.7447 6.95559 41.6872 6.83917 41.6924C6.66631 41.7029 6.50054 41.7316 6.35589 41.6271C6.27122 41.567 6.16537 41.5252 6.07011 41.473C5.88666 41.3659 5.7032 41.2562 5.44566 41.3267C5.26927 41.3006 5.14579 41.2065 5.00467 41.1334C4.7683 41.0132 4.74714 40.9949 4.91648 40.8669C5.10698 40.7233 4.95878 40.5352 5.06462 40.3941C5.17751 40.2426 5.33279 40.1094 5.47038 39.9683C5.50566 39.9318 5.53743 39.8978 5.57271 39.8612C5.49156 39.809 5.41749 39.7437 5.32224 39.7071C5.19876 39.6601 5.13526 39.6026 5.14231 39.4407C5.11762 39.4171 5.12813 39.4772 5.15635 39.4929C5.1881 39.5086 5.26577 39.4955 5.30458 39.4772C5.40336 39.4276 5.4527 39.3623 5.42801 39.3074C5.4139 39.2787 5.34692 39.2421 5.30458 39.2421C5.22697 39.2421 5.15995 39.2996 5.13878 39.4407C4.74365 39.5478 4.33435 39.6 3.92511 39.6418C3.88278 39.647 3.82989 39.5948 3.7805 39.5686C3.61821 39.4798 3.61819 39.4824 3.14192 39.4563C3.09253 39.4537 3.02554 39.4171 3.00084 39.3806C2.89853 39.2212 2.90209 39.0462 2.8527 38.8764C2.94442 38.7667 3.03608 38.6596 3.13133 38.5525C3.32184 38.3357 3.56885 38.145 3.71702 37.9072C3.68527 37.7792 3.64293 37.6512 3.79816 37.5468C4.23914 37.4161 4.23564 37.4161 4.35559 37.2908C4.6978 36.9355 5.03646 36.5776 5.39278 36.2275C5.48803 36.1361 5.48805 36.0865 5.31871 36.0473C5.26579 36.0369 5.20927 36.0342 5.15282 36.0395C4.97642 36.0578 4.80003 36.1048 4.62716 36.0943C4.4543 36.0865 4.32729 35.9715 4.18617 35.901C4.04153 35.8279 3.89689 35.7521 3.75225 35.6764C3.58644 35.6842 3.42065 35.7573 3.25484 35.6398C3.12784 35.5484 2.96909 35.483 2.82445 35.4073C2.93381 35.2088 3.13846 35.0572 3.29722 34.8822C3.44186 34.7229 3.44531 34.7255 3.83338 34.6027C4.01683 34.5452 4.08034 34.25 3.92511 34.1638C3.73813 34.0594 3.54061 33.9627 3.3501 33.8634C3.18429 33.8713 3.01499 33.9418 2.85623 33.8243C2.73275 33.7354 2.59161 33.6753 2.38699 33.7093C2.04125 33.7668 1.68847 33.7955 1.33921 33.8425C1.21926 33.8582 1.08869 33.8478 1.03577 33.759C1.00049 33.6963 1.10281 33.6101 1.21923 33.5918C1.39562 33.5656 1.55436 33.5343 1.64256 33.4037C1.72723 33.2731 1.88244 33.2339 2.06589 33.2156C2.11528 33.2104 2.17177 33.179 2.19647 33.1477C2.32347 32.9962 2.4646 32.8656 2.73625 32.8708C2.84914 32.8185 2.90908 32.7532 2.8738 32.6905C2.85263 32.6566 2.77858 32.6122 2.73625 32.6174C2.44343 32.6435 2.15063 32.6696 1.86486 32.7167C1.7308 32.7376 1.62844 32.7428 1.54377 32.6644C1.48379 32.6122 1.51554 32.5416 1.62844 32.4659C1.72722 32.4006 1.75547 32.3248 1.74842 32.236C1.73078 32.0296 1.62492 31.9695 1.28624 31.9826C1.04281 31.993 0.982834 31.9591 0.929915 31.7814C0.915803 31.7397 0.880586 31.6822 0.905282 31.6535C1.05698 31.4758 1.15577 31.2564 1.44153 31.1728C1.55442 31.1415 1.67433 31.1415 1.74488 31.0735C1.81544 31.0056 1.87898 30.9272 1.95306 30.8619C2.04479 30.7836 2.10823 30.7104 2.06589 30.6608C1.99534 30.572 1.88248 30.5641 1.75195 30.5955C1.63905 30.6216 1.51911 30.6242 1.40269 30.6399C1.19454 30.6686 1.02524 30.6007 1.00054 30.4858C0.933512 30.1827 0.862933 29.8823 0.802958 29.5793C0.795903 29.5427 0.813494 29.4957 0.841717 29.4644C0.940499 29.3546 1.04638 29.2502 1.14869 29.1431C1.26864 29.0203 1.45917 29.0438 1.62146 29.0203C1.85077 28.9863 1.85069 28.9889 2.15762 28.7381C2.27757 28.6389 2.48573 28.6781 2.60921 28.5893C2.64801 28.5605 2.70799 28.5135 2.6974 28.4874C2.68329 28.4534 2.61277 28.4273 2.55985 28.4116C2.51046 28.3959 2.4505 28.3881 2.39758 28.396C1.7555 28.4717 1.11697 28.5527 0.474886 28.6258C0.365521 28.6389 0.245568 28.5814 0.206761 28.5005C0.167954 28.4247 0.178504 28.3332 0.171448 28.247C0.273757 28.1399 0.390134 28.0407 0.478332 27.9257C0.545362 27.8369 0.62299 27.7977 0.757051 27.7925C0.933446 27.7847 1.10633 27.7533 1.30389 27.7298C1.6708 27.3484 2.03062 26.9488 2.42575 26.5674C2.5845 26.4132 2.54576 26.2565 2.57751 26.0919C2.60926 25.9404 2.84562 25.9639 3.00437 25.9195C3.13138 25.8829 3.17366 25.7993 3.12427 25.7419C3.09604 25.7079 3.03258 25.6687 2.98319 25.6687C2.86676 25.6687 2.75035 25.6922 2.63393 25.7053C2.5175 25.7184 2.38345 25.7105 2.2882 25.7549C2.19647 25.7967 2.13646 25.8855 2.07649 25.9613C2.00946 26.0449 1.92132 26.0736 1.78726 26.0789C1.61439 26.0841 1.44154 26.1076 1.26867 26.1259C1.07816 26.024 0.880555 25.9247 0.697104 25.8176C0.661825 25.7967 0.654731 25.7367 0.658259 25.6975C0.665315 25.5956 0.61241 25.5329 0.495988 25.4833C0.397207 25.4415 0.316058 25.3814 0.224332 25.3291C0.29489 25.2586 0.372532 25.1907 0.428979 25.1149C0.552456 24.9556 0.707701 24.8407 0.975823 24.8459C1.08166 24.744 1.16631 24.6186 1.30389 24.5481C1.43443 24.4802 1.6567 24.5481 1.75548 24.3939C1.80487 24.3182 1.879 24.232 1.97425 24.2006C2.12595 24.151 2.32351 24.1771 2.41171 24.0309C2.46463 23.9473 2.54221 23.8715 2.64452 23.8506C2.76094 23.8271 2.88086 23.8219 2.96553 23.7722C3.01139 23.7461 3.06079 23.7043 3.06079 23.6677C3.06079 23.6442 2.99029 23.6077 2.9409 23.592C2.89503 23.5737 2.83499 23.5606 2.78207 23.5659C2.60567 23.5815 2.43281 23.6103 2.25641 23.6259C2.20702 23.6312 2.15059 23.6129 2.09768 23.5972C1.94245 23.5554 1.95301 23.5032 2.07649 23.4091C2.19996 23.3177 2.28821 23.2001 2.39052 23.093C2.50341 23.0747 2.64451 23.0826 2.72212 23.0329C2.85266 22.952 2.94436 22.8344 3.0502 22.7325C3.16662 22.7169 3.28656 22.7116 3.39592 22.6829C3.44179 22.6725 3.46297 22.615 3.50178 22.581C3.57234 22.5157 3.63236 22.4217 3.72761 22.3903C3.88284 22.3433 4.07335 22.3616 4.16507 22.2179C4.21799 22.1343 4.2991 22.0455 4.39788 22.0403C4.67306 22.0299 4.78949 21.8862 4.9306 21.7503C5.03644 21.6484 5.26223 21.7007 5.37865 21.5988C5.45627 21.5335 5.51275 21.4525 5.59036 21.3898C5.62211 21.3637 5.68912 21.3507 5.74204 21.3428C6.03133 21.3036 6.32414 21.2749 6.61342 21.2331C6.65929 21.2253 6.70166 21.1861 6.73694 21.1547C6.81102 21.0868 6.85683 20.9928 6.94856 20.9484C7.04028 20.9039 7.1708 20.904 7.28369 20.8909C7.64707 20.8517 7.67532 20.8621 7.84113 20.6401C7.97519 20.4598 8.30333 20.5879 8.4127 20.3893C8.4762 20.2744 8.59257 20.1804 8.80071 20.1673C9.09353 20.149 9.38281 20.0994 9.67563 20.0654C9.9367 20.0341 9.93318 20.034 10.2154 19.7911C10.3424 19.6814 10.5294 19.6971 10.6952 19.6762C10.8716 19.6553 11.0339 19.6239 11.1186 19.4933C11.2032 19.3653 11.3585 19.3235 11.5384 19.3052C11.7042 19.2869 11.8912 19.3 12.0217 19.1955C12.3393 18.9448 12.3357 18.9421 12.558 18.916C12.9073 18.8742 13.2565 18.8324 13.6058 18.788C13.8386 18.7593 14.082 18.754 14.3008 18.6966C14.4595 18.6548 14.5301 18.5085 14.6324 18.4066C14.9217 18.3674 15.2109 18.3282 15.5002 18.2917C15.9059 18.2394 16.3152 18.1924 16.7244 18.1428C16.9008 18.0435 16.9255 17.8241 17.2219 17.8136C17.3983 17.8084 17.5711 17.7745 17.7475 17.7536C18.0404 17.717 18.3296 17.67 18.6225 17.6517C18.8447 17.6386 18.8835 17.4975 18.9999 17.4087C19.0387 17.3774 19.074 17.333 19.1199 17.3251C19.5785 17.252 20.0512 17.2363 20.4993 17.1292C20.5451 17.1188 20.5875 17.0639 20.598 17.0247C20.6051 17.0038 20.5451 16.9647 20.5063 16.9464C20.4605 16.9255 20.4005 16.9046 20.3511 16.9098C18.8941 17.0848 17.4371 17.2625 15.9801 17.4375C15.7754 17.4636 15.7754 17.461 15.278 17.7483C15.2357 17.7718 15.1862 17.7979 15.1333 17.8058C14.9005 17.8371 14.6641 17.8554 14.4348 17.8946C14.2478 17.926 14.0926 17.8946 13.9586 17.8006C13.8633 17.7326 13.7645 17.7118 13.6445 17.717C13.5105 17.7248 13.4223 17.7536 13.3447 17.8241C13.2424 17.9207 13.1895 18.0461 12.9743 18.0722C11.9829 18.1846 10.9915 18.31 10.0037 18.4301C9.86611 18.3936 9.79909 18.3387 9.83437 18.2734C9.85554 18.2342 9.89789 18.182 9.94022 18.1767C10.3459 18.1219 10.7552 18.0749 11.1609 18.0226C11.2173 18.0148 11.2949 18.02 11.3267 17.9939C11.4819 17.8763 11.5384 17.6856 11.8312 17.6726C12.0006 17.6647 12.1734 17.6255 12.3357 17.589C12.3816 17.5785 12.4239 17.5237 12.4345 17.4845C12.438 17.4636 12.3816 17.4244 12.3392 17.4061C12.184 17.3303 12.0041 17.4218 11.8489 17.3696C11.796 17.3513 11.7218 17.3251 11.7112 17.2938C11.7042 17.2651 11.7642 17.218 11.8065 17.1893C11.8453 17.1632 11.8982 17.1397 11.9511 17.1318C12.4168 17.0717 12.8826 17.009 13.3482 16.962C13.5388 16.9437 13.6728 16.8784 13.7575 16.7583C13.821 16.6694 13.8986 16.6224 14.0185 16.6094C14.8335 16.5127 15.6484 16.4056 16.4669 16.3168C16.6715 16.2959 16.7774 16.2097 16.862 16.0974C16.9291 16.0086 17.0067 15.9772 17.1372 15.9615C18.305 15.8257 19.4656 15.6742 20.6334 15.5436C20.8486 15.5201 20.9121 15.4077 21.0215 15.3111C21.0603 15.2771 21.0849 15.2353 21.1343 15.2144C21.1837 15.1935 21.2472 15.1961 21.3072 15.1909C22.2385 15.0786 23.17 14.9584 24.1049 14.8539C24.3236 14.8304 24.3659 14.6998 24.4787 14.6084C24.5176 14.5796 24.5529 14.5326 24.5987 14.5248C25.2973 14.436 25.9958 14.3524 26.6943 14.2662C27.16 14.2087 27.6256 14.1512 28.0913 14.0964C28.3206 14.0702 28.3207 14.0676 28.6311 13.8195C28.6664 13.7907 28.7158 13.7568 28.7617 13.7489C30.1023 13.5817 31.4393 13.4224 32.7799 13.2578C32.8928 13.2448 32.974 13.1847 33.0304 13.0958C33.0869 13.007 33.1681 12.947 33.2774 12.9339C34.3252 12.8033 35.373 12.6753 36.4243 12.5525C36.6148 12.5316 36.7488 12.4689 36.8335 12.3514C36.897 12.2625 36.9746 12.2155 37.0946 12.2025C38.1424 12.0771 39.1902 11.9438 40.2415 11.8237C40.4426 11.8002 40.5414 11.7114 40.6401 11.6069C40.6754 11.5703 40.7037 11.5102 40.746 11.505C41.2681 11.4318 41.7867 11.3561 42.3124 11.3064C42.5311 11.2856 42.6052 11.1758 42.6934 11.0713C42.764 10.9877 42.8451 10.959 42.9792 10.9486C43.272 10.9251 43.5613 10.8807 43.8471 10.8363C43.8894 10.8284 43.9423 10.7709 43.9458 10.7344C43.9529 10.6665 43.8717 10.6194 43.7377 10.5959C42.3406 10.7657 40.9401 10.9355 39.543 11.1053C39.3137 11.134 39.3137 11.134 39.0032 11.3822C38.968 11.411 38.9185 11.4449 38.8691 11.4528C37.5285 11.6173 36.1915 11.7793 34.8509 11.9439C34.738 11.9569 34.6568 12.017 34.6004 12.1058C34.544 12.1946 34.4627 12.2547 34.3534 12.2678C33.0727 12.4245 31.7921 12.5839 30.508 12.7328C30.3175 12.7537 30.1835 12.8137 30.0988 12.9339C30.0353 13.0227 29.9577 13.0697 29.8377 13.0828C28.6135 13.2291 27.3928 13.3832 26.1651 13.5243C26.0416 13.5373 25.95 13.4616 25.957 13.391C25.9605 13.3545 26.0134 13.2944 26.0557 13.2892C26.6943 13.203 27.3294 13.1142 27.9714 13.0488C28.1866 13.0279 28.2501 12.913 28.3595 12.8164C28.3947 12.7824 28.423 12.738 28.4688 12.7197C28.5182 12.6988 28.5817 12.7014 28.6417 12.6962C30.1552 12.5107 31.6687 12.3226 33.1857 12.1476C33.4044 12.1215 33.4467 11.9935 33.5596 11.9021C33.5984 11.8707 33.6337 11.8237 33.6796 11.8185C34.1453 11.7558 34.6109 11.7009 35.0766 11.6461C35.8916 11.5468 36.7065 11.4475 37.525 11.3483C37.7613 11.3195 37.7614 11.3195 38.0648 11.074C38.1 11.0452 38.1495 11.0087 38.1953 11.0034C40.3509 10.7396 42.5065 10.4758 44.662 10.2145C44.7749 10.2015 44.856 10.1414 44.9125 10.0526C44.9689 9.96637 45.0501 9.90368 45.1594 9.888C48.0735 9.53273 50.984 9.17745 53.8981 8.8274C54.0886 8.80389 54.2226 8.74903 54.3073 8.62625C54.3673 8.53744 54.4484 8.49043 54.5684 8.47475C57.7717 8.08553 60.975 7.6963 64.1819 7.30446C66.3375 7.04323 68.4931 6.77678 70.6486 6.52078C70.8462 6.49727 70.952 6.41627 71.0508 6.30917C71.0825 6.2726 71.1143 6.21251 71.1566 6.20729C71.6188 6.14198 72.0809 6.08191 72.5431 6.02183C72.6877 6.09236 72.8323 6.16029 72.977 6.23082C73.0864 6.13155 73.1923 6.02967 73.3016 5.9304C74.0001 5.85465 74.6881 5.73709 75.3936 5.70052C75.4395 5.69791 75.4889 5.74755 75.5383 5.77367C75.8664 5.93825 76.0534 5.92518 76.2615 5.70575C76.3356 5.62738 76.3991 5.55685 76.512 5.54379C76.8612 5.49677 77.2141 5.46542 77.5598 5.41056C77.7468 5.38183 77.902 5.40794 78.0361 5.50199C78.1313 5.5699 78.2301 5.59865 78.3466 5.58298C78.9886 5.50461 79.6272 5.42885 80.2693 5.34526C80.3151 5.34003 80.3574 5.29561 80.3927 5.26426C80.4668 5.19634 80.5303 5.12321 80.6009 5.05268C80.6961 5.09709 80.802 5.13106 80.8796 5.18853C80.9784 5.25644 81.0701 5.25643 81.2041 5.23814C83.7654 4.92206 86.3302 4.61381 88.8915 4.29512C89.1102 4.26899 89.2055 4.37872 89.3536 4.43619C89.403 4.45709 89.4524 4.4832 89.5053 4.48842C89.5618 4.49365 89.6217 4.47799 89.6782 4.47015C91.6009 4.23505 93.5236 4.00254 95.4463 3.76743C95.7004 3.73608 95.7004 3.73608 96.0779 3.89805C96.1237 3.91894 96.1837 3.94246 96.2331 3.93462C97.108 3.83274 97.9829 3.72304 98.8543 3.61855C98.9672 3.60549 99.0625 3.64727 99.1648 3.70735C99.3659 3.82491 99.3799 3.82492 99.5281 3.65251C99.5986 3.57153 99.6727 3.52187 99.7892 3.49836C99.9162 3.47224 100.019 3.4801 100.117 3.52712C100.258 3.59243 100.361 3.70213 100.576 3.67339C101.507 3.55062 102.442 3.44875 103.37 3.32336C103.582 3.29462 103.695 3.38344 103.836 3.44874C103.885 3.47225 103.931 3.50883 103.984 3.51666C104.037 3.5245 104.1 3.5062 104.157 3.49836C105.321 3.3573 106.489 3.21887 107.649 3.06736C107.868 3.03863 107.963 3.15093 108.112 3.2084C108.161 3.2293 108.217 3.26589 108.263 3.26067C108.962 3.17969 109.664 3.09346 110.362 3.00725C110.613 2.9759 110.613 2.97852 110.994 3.13787C111.04 3.15876 111.1 3.17967 111.149 3.17444C111.964 3.07779 112.783 2.97852 113.597 2.87925C113.848 2.84791 113.848 2.84791 114.571 2.98375C114.624 2.9942 114.681 3.00989 114.733 3.00467C115.665 2.89234 116.6 2.78261 117.531 2.66245C117.718 2.63894 117.873 2.65983 118.007 2.75387C118.103 2.82179 118.201 2.85054 118.318 2.83486C119.366 2.70686 120.417 2.58409 121.461 2.44825C121.662 2.42213 121.793 2.47958 121.934 2.55533C121.98 2.58146 122.026 2.61804 122.079 2.62848C122.132 2.63893 122.191 2.62848 122.248 2.62064C123.296 2.49264 124.347 2.37248 125.391 2.23403C125.603 2.20529 125.716 2.29411 125.857 2.35941C125.906 2.38292 125.959 2.42995 126.002 2.42733C126.411 2.38293 126.82 2.34376 127.226 2.27845C127.444 2.24188 127.54 2.36202 127.688 2.41949C127.737 2.43778 127.794 2.47698 127.84 2.47175C128.715 2.36988 129.59 2.26278 130.461 2.15306C130.584 2.13739 130.676 2.16088 130.775 2.2288C130.905 2.32023 131.057 2.3568 131.248 2.32807C131.653 2.26798 132.063 2.2262 132.472 2.17657C132.712 2.14783 132.712 2.14784 133.446 2.28368C133.498 2.29413 133.555 2.30979 133.608 2.30457C134.306 2.22097 135.008 2.14 135.703 2.04857C135.89 2.02244 136.046 2.04595 136.18 2.13999C136.275 2.20791 136.37 2.23666 136.49 2.22099C137.132 2.14262 137.771 2.06424 138.413 1.98588C138.646 1.95714 138.879 1.90749 139.111 1.90749C139.281 1.91011 139.404 2.03549 139.556 2.09819C139.598 2.11647 139.669 2.0956 139.725 2.09037C140.54 1.99111 141.359 1.89967 142.17 1.78734C142.382 1.75861 142.495 1.84742 142.636 1.91272C142.685 1.93623 142.738 1.98326 142.78 1.98065C143.073 1.95191 143.362 1.91272 143.655 1.87876C144.005 1.83697 144.357 1.80562 144.703 1.74815C144.985 1.70113 145.091 1.92839 145.317 1.93623C145.49 1.94406 145.666 1.89966 145.839 1.87876C146.188 1.83697 146.538 1.78995 146.887 1.75338C147.01 1.74032 147.106 1.6985 147.144 1.60446C147.151 1.58618 147.092 1.54701 147.053 1.5235C146.583 1.25705 146.583 1.25703 146.111 1.3145C145.818 1.35108 145.529 1.38765 145.236 1.419C145.186 1.42423 145.13 1.40333 145.081 1.38765C144.939 1.34325 144.954 1.29101 145.074 1.19696C145.193 1.10292 145.285 0.987992 145.387 0.880889C145.532 0.948808 145.673 1.0167 145.818 1.08462C145.934 1.07156 146.051 1.05591 146.167 1.04285C146.749 0.97493 147.331 0.904393 147.914 0.841699C147.956 0.836474 148.009 0.888727 148.058 0.91485C148.199 0.990606 148.326 1.05589 148.531 1.02716C149.053 0.951404 149.579 0.896546 150.101 0.831239C150.33 0.802504 150.33 0.802507 150.732 0.964468C150.778 0.982754 150.838 1.00365 150.887 0.998429C151.413 0.938346 151.935 0.873047 152.461 0.810353C152.574 0.797291 152.683 0.831249 152.764 0.907005C152.796 0.938353 152.789 0.990588 152.923 1.419C153.339 1.76643 153.625 1.72988 153.914 1.69853C154.038 1.68547 154.147 1.6724 154.228 1.62015C154.271 1.59142 154.324 1.54961 154.324 1.51565C154.324 1.48953 154.246 1.44773 154.197 1.4425C153.847 1.39026 153.516 1.49999 153.174 1.5235C153.015 1.53395 152.877 1.44252 152.849 1.29362C152.842 1.25182 152.831 1.20741 152.821 1.16562C152.81 1.12382 152.803 1.07942 152.793 1.03762C152.655 1.02456 152.574 1.07157 152.514 1.16039C152.465 1.23353 152.394 1.31712 152.299 1.35631C152.203 1.39811 152.073 1.39028 151.956 1.40334C151.844 1.41641 151.72 1.45036 151.614 1.43207C151.508 1.41118 151.424 1.33541 151.325 1.28839C151.279 1.26488 151.223 1.23093 151.177 1.23615C150.771 1.28056 150.369 1.32496 149.967 1.38243C149.755 1.41377 149.649 1.30407 149.515 1.23615C149.409 1.18391 149.303 1.19695 149.286 1.31712C149.24 1.60447 149.402 1.72463 149.762 1.66977C150.058 1.62275 150.327 1.61494 150.559 1.79257C150.591 1.81608 150.665 1.82653 150.711 1.8213C151 1.78995 151.286 1.75077 151.575 1.71942C151.628 1.71419 151.685 1.72463 151.734 1.73508C152.454 1.87614 152.454 1.87876 152.697 1.84742C152.814 1.83174 152.927 1.81868 152.916 1.42162C153.138 0.995815 153.491 0.967085 153.833 0.904391C154.056 0.865206 154.151 0.980152 154.295 1.04023C154.345 1.06113 154.398 1.10292 154.444 1.0977C155.202 1.01149 155.957 0.920049 156.712 0.823395C156.839 0.807721 156.931 0.823397 157.03 0.891316C157.157 0.977521 157.298 1.03239 157.499 1.00104C157.901 0.938349 158.31 0.899174 158.719 0.846928C158.928 0.820805 158.928 0.820779 159.347 0.98274C159.393 1.00103 159.453 1.02193 159.503 1.0167C159.912 0.972292 160.318 0.917451 160.723 0.87043C160.836 0.857368 160.939 0.893936 161.027 0.964468C161.115 1.035 161.221 1.07157 161.33 1.05851C161.739 1.01148 162.145 0.959256 162.551 0.912235C162.6 0.90701 162.66 0.925295 162.706 0.943581C163.136 1.10554 163.136 1.10552 163.334 1.07939C163.623 1.04021 163.92 1.02194 164.205 0.969697C164.484 0.917452 164.629 1.06895 164.819 1.15254C165.341 1.09246 165.867 1.04284 166.386 0.969697C166.597 0.93835 166.71 1.02455 166.851 1.09247C166.901 1.11598 166.95 1.16562 166.996 1.163C167.172 1.15255 167.345 1.12382 167.518 1.10293C167.691 1.08203 167.867 1.06113 168.04 1.04023C168.238 1.11599 168.368 1.29362 168.651 1.23354C168.82 1.19697 169 1.18913 169.173 1.16823C169.346 1.14733 169.522 1.12644 169.695 1.10554C169.811 1.09248 169.931 1.08463 170.044 1.06112C170.252 1.02194 170.355 1.14995 170.503 1.20742C170.552 1.22571 170.609 1.25704 170.654 1.25181C171.004 1.21524 171.356 1.18389 171.699 1.12381C171.963 1.07679 172.143 1.15517 172.33 1.26489C172.369 1.2884 172.436 1.30146 172.485 1.29623C172.895 1.25182 173.3 1.19695 173.706 1.14993C173.815 1.13687 173.921 1.17866 174.009 1.24658C174.101 1.31711 174.203 1.3511 174.316 1.33804C174.722 1.29102 175.131 1.23876 175.537 1.19173C175.586 1.18651 175.646 1.20741 175.692 1.22831C176.087 1.39027 176.087 1.39289 176.32 1.36154C176.377 1.3537 176.437 1.34846 176.493 1.34062C176.782 1.30405 177.082 1.291 177.365 1.22831C177.689 1.15778 177.925 1.2466 178.155 1.3955C178.444 1.36415 178.74 1.34586 179.023 1.29362C179.234 1.25443 179.347 1.35369 179.488 1.419C179.538 1.44251 179.591 1.48953 179.633 1.48431C180.042 1.4399 180.451 1.40073 180.854 1.33542C181.072 1.29885 181.168 1.41638 181.316 1.47646C181.365 1.49736 181.418 1.53395 181.464 1.52873C181.697 1.50783 181.93 1.47647 182.163 1.44773C182.434 1.41377 182.434 1.41638 182.794 1.57573C182.963 1.65149 183.133 1.5914 183.298 1.57312C183.475 1.55222 183.641 1.53655 183.782 1.64365C183.87 1.71157 183.976 1.75337 184.085 1.74292C184.318 1.71941 184.554 1.69591 184.784 1.65673C184.967 1.62538 185.126 1.64627 185.26 1.74292C185.355 1.81084 185.454 1.84482 185.57 1.82915C186.093 1.76645 186.618 1.70112 187.14 1.64104C187.186 1.63581 187.25 1.65933 187.292 1.68284C187.391 1.72986 187.486 1.7821 187.581 1.83434C187.811 1.81083 188.047 1.80041 188.273 1.76384C188.513 1.72727 188.731 1.7142 188.918 1.85788C188.957 1.88922 189.014 1.93361 189.06 1.931C189.236 1.92055 189.409 1.89443 189.582 1.87353C189.755 1.85264 189.931 1.83174 190.104 1.81084C190.305 1.87615 190.432 2.06423 190.714 2.00415C190.884 1.96758 191.063 1.95974 191.236 1.93884C191.409 1.91794 191.586 1.89443 191.758 1.87615C191.815 1.87092 191.878 1.85786 191.928 1.8683C191.981 1.87875 192.027 1.91533 192.072 1.94146C192.213 2.01721 192.344 2.09298 192.545 2.04857C192.714 2.012 192.894 2.00416 193.067 1.98065C193.304 1.95191 193.304 1.95192 193.695 2.11649C193.854 2.18441 194.034 2.09559 194.186 2.15306C194.288 2.19225 194.376 2.25754 194.475 2.30195C194.517 2.32024 194.584 2.32806 194.634 2.32284C194.867 2.29933 195.103 2.27583 195.332 2.23664C195.519 2.2053 195.674 2.23664 195.805 2.33068C195.9 2.3986 195.995 2.42735 196.115 2.41168C196.697 2.33853 197.28 2.27582 197.858 2.19484C198.056 2.1661 198.214 2.21052 198.324 2.30457C198.511 2.46653 198.775 2.27583 198.969 2.40645C199.089 2.48743 199.209 2.58148 199.428 2.54229C199.83 2.47437 200.24 2.43778 200.645 2.39076C200.79 2.46129 200.935 2.53184 201.083 2.60237C201.316 2.57363 201.548 2.54488 201.781 2.51876C201.954 2.49786 202.13 2.47435 202.303 2.45607C202.36 2.45084 202.42 2.44039 202.473 2.45345C202.526 2.46651 202.568 2.50048 202.617 2.5266C202.861 2.6546 202.861 2.65723 203.263 2.60498C203.436 2.58147 203.602 2.5658 203.746 2.67029C203.88 2.76694 204.039 2.78522 204.222 2.75648C204.568 2.70424 204.918 2.66506 205.27 2.62848C205.38 2.61542 205.482 2.65983 205.574 2.72775C205.711 2.83486 205.881 2.82441 206.054 2.79567C206.283 2.7591 206.509 2.72254 206.703 2.86883C206.741 2.90017 206.801 2.94456 206.844 2.94194C207.133 2.92105 207.426 2.90538 207.708 2.85575C207.99 2.80612 208.128 2.96807 208.322 3.04644C208.611 3.01248 208.904 2.97852 209.193 2.94456C209.25 2.93672 209.317 2.91323 209.366 2.92629C209.574 2.98115 209.694 3.17706 209.98 3.11698C210.146 3.08302 210.326 3.07258 210.499 3.06475C210.545 3.06213 210.605 3.10652 210.636 3.14048C210.654 3.15877 210.636 3.2084 210.615 3.23452C210.552 3.30766 210.474 3.3756 210.418 3.45136C210.41 3.46181 210.478 3.50881 210.516 3.52971C210.612 3.57673 210.721 3.56891 210.848 3.54801C210.957 3.52972 211.07 3.56629 211.148 3.64466C211.18 3.67601 211.169 3.72825 211.102 3.90066C211.102 4.02866 211.176 3.97118 211.201 3.88759C211.24 3.76742 211.165 3.72824 211.024 3.79355C210.926 3.84057 210.876 3.90849 210.901 3.96335C210.915 3.99209 210.982 4.02866 211.102 3.90066C211.412 3.74392 211.645 3.7152 211.878 3.68647C211.938 3.67863 212.009 3.65249 212.051 3.66816C212.203 3.73086 212.344 3.80663 212.492 3.87716C212.661 3.86149 212.82 3.82228 212.986 3.92416C213.219 4.06784 213.229 4.05478 213.455 4.02604C213.572 4.01037 213.688 3.99733 213.804 3.98427C213.921 3.97121 214.012 4.01038 214.115 4.07046C214.323 4.19324 214.341 4.19323 214.478 4.02604C214.559 3.92417 214.616 3.89022 214.718 3.93724C215.057 4.09658 215.06 4.10703 215.35 4.06001C215.589 4.02082 215.815 4.01037 215.992 4.15927C216.112 4.26376 216.15 4.24026 216.246 4.13054C216.5 3.84058 216.616 3.84579 217.092 4.05478C217.315 4.15404 217.544 4.04695 217.77 4.03389C217.96 4.02344 218.094 4.08612 218.108 4.2507C218.119 4.35257 218.151 4.42573 218.278 4.45969C218.327 4.47275 218.387 4.49103 218.436 4.48581C218.729 4.45446 219.019 4.41788 219.311 4.38131C219.46 4.36302 219.541 4.24027 219.513 4.07831C219.481 3.9059 219.537 3.84318 219.749 3.79355C219.876 3.76481 219.978 3.77006 220.081 3.81708C220.193 3.86933 220.162 3.91635 220.063 4.01039C219.827 4.24027 219.855 4.38131 220.158 4.54065C220.264 4.59551 220.349 4.64517 220.373 4.72615C220.387 4.76794 220.373 4.8228 220.405 4.85415C220.578 5.02917 220.818 5.14151 221.086 5.2251C221.343 5.15457 221.52 5.2721 221.717 5.36614C221.873 5.43929 222.056 5.37661 222.222 5.35048C222.409 5.32175 222.564 5.34264 222.698 5.43929C222.793 5.50721 222.892 5.53855 223.009 5.52549C223.241 5.49675 223.478 5.47847 223.707 5.43668C223.905 5.40011 224.053 5.45236 224.176 5.54118C224.332 5.6535 224.505 5.57773 224.667 5.59341C224.886 5.61169 224.995 5.84418 225.281 5.78148C225.45 5.74491 225.626 5.73186 225.803 5.72141C225.849 5.7188 225.905 5.76321 225.944 5.79456C226.131 5.93823 226.35 5.93039 226.59 5.8886C226.755 5.85986 226.918 5.83375 227.08 5.93302C227.348 6.1002 227.644 6.2465 227.927 6.40062C227.965 6.52079 227.937 6.66182 228.138 6.73236C228.244 6.76893 228.343 6.82381 228.424 6.88389C228.523 6.95442 228.615 6.97271 228.742 6.95442C228.971 6.91785 229.211 6.90999 229.437 6.86297C229.645 6.82117 229.775 6.90741 229.902 6.98839C230.005 7.05369 230.1 7.08502 230.223 7.038C230.35 6.99359 230.442 7.02232 230.544 7.09285C230.689 7.18951 230.7 7.17907 231.179 7.20781C231.229 7.21042 231.289 7.24958 231.317 7.28354C231.331 7.30183 231.299 7.3541 231.275 7.38023C231.243 7.41157 231.193 7.44812 231.148 7.45596C230.625 7.52388 230.1 7.58396 229.578 7.65188C229.525 7.65972 229.468 7.67802 229.43 7.70415C229.387 7.73288 229.334 7.77204 229.334 7.80861C229.334 7.83473 229.405 7.86609 229.454 7.88438C229.609 7.94446 229.793 7.85303 229.945 7.92095C230.047 7.96536 230.132 8.02804 230.234 8.06984C230.276 8.08812 230.343 8.08552 230.396 8.0803C230.573 8.06201 230.745 8.03589 230.922 8.02022C230.971 8.01761 231.028 8.04374 231.073 8.06464C231.412 8.22138 231.412 8.22137 231.705 8.18741C231.821 8.17435 231.945 8.13516 232.054 8.15083C232.16 8.16651 232.252 8.23704 232.347 8.28145C232.545 8.37549 232.732 8.46692 232.746 8.67067C232.753 8.74904 232.869 8.81695 232.986 8.82218C233.099 8.8274 233.218 8.79869 233.335 8.78302C233.61 8.75167 233.61 8.75167 233.966 8.91101C234.065 8.95542 234.171 8.96064 234.298 8.93452C234.347 8.92407 234.407 8.93453 234.46 8.94759C234.633 8.98677 234.633 9.0364 234.52 9.13044C234.362 9.26889 234.376 9.28196 234.82 9.39951C234.989 9.44392 235.12 9.52752 235.261 9.60066C235.49 9.71821 235.487 9.71819 235.335 9.87231C235.3 9.90627 235.268 9.94285 235.233 9.97943C235.131 10.0813 235.049 10.191 234.838 10.2015C234.605 10.2119 234.372 10.2537 234.139 10.2825C233.913 10.3112 233.853 10.3739 233.875 10.5515C233.899 10.7657 233.945 10.7892 234.351 10.7866C234.467 10.7866 234.57 10.8075 234.658 10.878C234.615 10.9616 234.538 11.0269 234.425 11.0426C234.136 11.0818 233.843 11.1158 233.554 11.1497C233.321 11.1785 233.088 11.2072 232.855 11.2359C232.71 11.2542 232.619 11.39 232.658 11.5416C232.679 11.6278 232.696 11.714 232.714 11.8002C232.753 11.9726 232.827 12.017 233.063 12.0092C233.123 12.0066 233.18 11.9856 233.236 11.9909C233.465 12.0091 233.575 12.226 233.85 12.1816C234.079 12.145 234.319 12.1372 234.545 12.0901C234.753 12.0483 234.87 12.1424 235.014 12.2129C235.064 12.2364 235.117 12.286 235.159 12.2834C235.452 12.2547 235.744 12.226 236.03 12.1764C236.164 12.1555 236.245 12.1711 236.351 12.2338C236.605 12.3853 236.612 12.3775 236.99 12.3305C237.265 12.2939 237.269 12.2991 237.621 12.4585C237.72 12.5029 237.826 12.5029 237.953 12.482C238.119 12.4558 238.292 12.4141 238.464 12.4532C238.517 12.4637 238.584 12.495 238.602 12.529C238.613 12.5525 238.563 12.61 238.521 12.6283C238.211 12.7641 237.847 12.7406 237.508 12.7955C237.403 12.8111 237.297 12.7615 237.209 12.691C237.117 12.6204 237.018 12.5917 236.898 12.6048C236.665 12.6335 236.429 12.6518 236.2 12.6936C236.002 12.7302 235.864 12.6701 235.727 12.5891C235.681 12.563 235.628 12.5133 235.582 12.5159C235.06 12.5682 234.534 12.6204 234.016 12.6936C233.808 12.7249 233.688 12.6413 233.547 12.5708C233.497 12.5473 233.448 12.4977 233.402 12.5003C233.226 12.5107 233.053 12.5395 232.876 12.5604C232.234 12.6387 231.596 12.7171 230.954 12.7902C230.911 12.7955 230.858 12.7406 230.809 12.7171C230.714 12.6701 230.615 12.6256 230.516 12.5812C230.34 12.6021 230.167 12.6283 229.99 12.6439C229.863 12.6544 229.751 12.691 229.733 12.7902C229.722 12.8555 229.839 12.9156 229.962 12.9104C230.082 12.9052 230.202 12.8738 230.301 12.9078C230.791 13.075 230.791 13.0776 231.098 13.0436C231.366 13.0123 231.338 12.9861 231.574 13.1298C231.677 13.1925 231.769 13.2291 231.885 13.2134C232.174 13.1768 232.467 13.1403 232.76 13.1089C232.806 13.1037 232.866 13.1298 232.912 13.1507C233.257 13.3075 233.257 13.3127 233.543 13.2735C233.917 13.2265 233.931 13.2134 234.182 13.3728C234.354 13.4825 234.513 13.4067 234.679 13.4015C234.87 13.5034 235.078 13.5948 235.251 13.7098C235.455 13.8456 235.67 13.8221 235.903 13.7829C236.076 13.7541 236.245 13.7437 236.387 13.8508C236.521 13.9501 236.683 13.9605 236.866 13.9344C237.032 13.9109 237.202 13.8613 237.374 13.9187C237.42 13.9344 237.491 13.9736 237.487 13.9971C237.484 14.0337 237.438 14.0859 237.392 14.1016C237.067 14.2087 236.711 14.2061 236.369 14.2557C236.323 14.2636 236.263 14.2348 236.217 14.2139C236.118 14.1669 236.023 14.112 235.928 14.0624C235.755 14.0781 235.579 14.0833 235.409 14.1146C235.279 14.1382 235.18 14.1356 235.085 14.0729C234.997 14.0154 234.901 13.9449 234.795 13.9266C234.69 13.9083 234.566 13.9475 234.45 13.9631C234.333 13.9788 234.199 13.971 234.108 14.0128C234.016 14.0546 233.959 14.146 233.899 14.2191C233.832 14.3001 233.741 14.3263 233.607 14.3341C233.483 14.3419 233.384 14.3315 233.293 14.2583C233.254 14.227 233.201 14.2035 233.148 14.1826C233.098 14.1643 233.042 14.1355 232.996 14.1408C232.471 14.2008 231.948 14.2662 231.423 14.3289C231.162 14.3602 231.165 14.3602 230.622 14.2061C230.573 14.193 230.513 14.1747 230.463 14.1799C230.17 14.2113 229.881 14.2479 229.588 14.2844C229.292 14.321 229.295 14.3158 228.791 14.1512C228.699 14.1199 228.565 14.1617 228.456 14.1564C228.227 14.1434 228.114 13.924 227.846 13.9658C227.616 14.0023 227.376 14.0102 227.147 14.0572C226.939 14.099 226.819 14.0076 226.678 13.937C226.628 13.9135 226.575 13.8613 226.533 13.8665C226.007 13.924 225.485 13.9893 224.787 13.9971C224.614 13.9971 224.692 14.052 224.804 14.0703C224.967 14.099 225.02 14.0441 224.931 13.9396C224.868 13.8665 224.776 13.8299 224.702 13.8482C224.663 13.8586 224.614 13.9083 224.787 13.9971C224.97 14.0964 224.96 14.1512 224.991 14.1826C225.069 14.2583 225.178 14.2897 225.291 14.2792C225.468 14.2609 225.641 14.2348 225.817 14.2191C225.866 14.2139 225.926 14.2322 225.972 14.2531C226.36 14.4151 226.364 14.4255 226.777 14.3628C226.907 14.3445 227.002 14.3445 227.105 14.3942C227.246 14.4621 227.348 14.577 227.563 14.5404C227.849 14.4908 228.142 14.4621 228.435 14.4334C228.48 14.4281 228.53 14.4752 228.583 14.4961C228.727 14.5588 228.833 14.6763 229.048 14.6267C229.214 14.5875 229.394 14.577 229.571 14.5692C229.616 14.5666 229.687 14.6084 229.708 14.6423C229.75 14.7024 229.698 14.773 229.578 14.8226C229.528 14.8435 229.461 14.8383 229.405 14.8461C229.172 14.8748 228.939 14.9062 228.706 14.9297C228.583 14.9427 228.466 14.9819 228.452 15.0786C228.442 15.1439 228.569 15.2014 228.689 15.1961C228.865 15.1883 229.041 15.1674 229.211 15.1334C229.511 15.076 229.772 15.0916 230.015 15.2562C230.188 15.3711 230.177 15.3294 230.361 15.669C230.407 15.7552 230.544 15.763 230.664 15.7578C230.954 15.7447 231.088 15.7839 231.063 15.8649C231.031 15.9642 230.929 15.9955 230.798 16.0085C230.565 16.0294 230.333 16.0634 230.1 16.0922C230.043 16.1 229.98 16.1156 229.927 16.1104C229.874 16.1052 229.825 16.0739 229.779 16.0503C229.68 16.0007 229.595 15.9249 229.489 15.9067C229.384 15.8884 229.26 15.9276 229.144 15.9432C229.027 15.9563 228.904 15.9955 228.798 15.9772C228.692 15.9589 228.604 15.8806 228.509 15.8335C228.463 15.81 228.406 15.7734 228.361 15.776C228.128 15.7969 227.895 15.8309 227.662 15.857C227.376 15.891 227.376 15.891 227.031 15.729C226.932 15.682 226.829 15.6846 226.699 15.7055C226.417 15.7473 226.413 15.7395 225.898 15.588C225.849 15.5723 225.789 15.554 225.739 15.5619C225.214 15.6219 224.691 15.6872 224.169 15.7499C223.721 15.8048 223.721 15.8048 223.474 16.066C223.291 16.2593 223.287 16.2593 223.467 16.3481C223.612 16.4213 223.742 16.5284 223.901 16.5676C224.049 16.6041 224.233 16.4866 224.395 16.6068C224.476 16.6668 224.582 16.7322 224.684 16.7426C224.847 16.7557 225.02 16.6799 225.175 16.7948C225.252 16.8523 225.369 16.9124 225.468 16.915C225.641 16.9202 225.817 16.8784 225.99 16.8601C226.043 16.8549 226.103 16.8549 226.152 16.868C226.205 16.8837 226.251 16.915 226.297 16.9411C226.438 17.03 226.59 17.0717 226.773 17.0273C227.073 16.9542 227.341 16.9908 227.574 17.1579C227.606 17.1815 227.683 17.1841 227.733 17.1736C227.86 17.1475 227.969 17.1449 228.064 17.1945C228.103 17.2154 228.159 17.252 228.152 17.2755C228.142 17.3147 228.099 17.3669 228.054 17.38C227.722 17.4688 227.366 17.4793 227.023 17.5263C226.978 17.5315 226.921 17.4975 226.875 17.474C226.777 17.427 226.692 17.3487 226.586 17.3304C226.48 17.3121 226.357 17.346 226.24 17.3591C226.124 17.3722 226 17.4113 225.895 17.3957C225.789 17.3774 225.69 17.3121 225.605 17.2546C225.506 17.1893 225.411 17.1815 225.281 17.2076C225.111 17.2416 224.935 17.2468 224.762 17.2651C224.667 17.2154 224.572 17.1605 224.473 17.1135C224.427 17.09 224.371 17.0613 224.321 17.0639C224.088 17.0848 223.855 17.1161 223.623 17.1449C223.39 17.1736 223.39 17.1736 222.995 17.0117C222.949 16.9934 222.889 16.9725 222.839 16.9777C222.547 17.0091 222.257 17.0482 221.964 17.0796C221.852 17.0926 221.749 17.0561 221.658 16.9855C221.569 16.915 221.463 16.8758 221.354 16.8889C220.888 16.9437 220.423 16.996 219.957 17.0613C219.77 17.0874 219.611 17.0639 219.484 16.9699C219.336 16.8628 219.17 16.8889 218.997 16.9098C218.606 16.962 218.602 16.9594 218.352 16.8262C218.302 16.8001 218.253 16.7504 218.207 16.753C217.801 16.7922 217.392 16.8288 216.99 16.8915C216.778 16.9255 216.665 16.834 216.524 16.7661C216.475 16.7426 216.422 16.693 216.38 16.6982C216.087 16.7269 215.794 16.7531 215.508 16.8053C215.223 16.8575 215.113 16.6146 214.898 16.6172C214.605 16.6198 214.316 16.6799 214.027 16.7165C213.794 16.7452 213.561 16.7739 213.328 16.8027C213.095 16.8314 212.862 16.8549 212.63 16.8889C212.506 16.9072 212.414 16.8836 212.312 16.8183C212.182 16.7321 212.026 16.6642 211.885 16.5859C211.67 16.4735 211.67 16.4735 211.409 16.5049C211.352 16.5127 211.292 16.5179 211.236 16.5258C210.809 16.5832 210.809 16.578 210.266 16.4135C210.241 16.4056 210.178 16.4344 210.153 16.4553C210.079 16.5232 210.012 16.5963 209.945 16.6668C209.85 16.625 209.733 16.6015 209.67 16.5415C209.49 16.3717 209.207 16.6041 209.024 16.437C208.957 16.3743 208.841 16.3194 208.735 16.3037C208.625 16.2881 208.502 16.3246 208.389 16.3403C208.096 16.3795 208.096 16.3769 207.846 16.6094C207.719 16.7243 207.535 16.7034 207.369 16.7295C207.197 16.7583 207.031 16.7739 206.886 16.6668C206.756 16.5702 206.597 16.5467 206.41 16.578C206.181 16.6172 205.944 16.6407 205.711 16.6642C205.662 16.6694 205.602 16.6564 205.553 16.6407C205.013 16.4866 205.013 16.484 204.752 16.518C204.635 16.5336 204.515 16.5388 204.402 16.5623C204.212 16.6041 204.067 16.5493 203.93 16.4657C203.884 16.4396 203.831 16.39 203.785 16.3926C203.552 16.4056 203.323 16.4291 203.094 16.4526C202.917 16.4709 202.741 16.4814 202.571 16.518C202.289 16.578 202.152 16.4082 201.958 16.3298C201.668 16.3638 201.376 16.3873 201.086 16.4343C200.952 16.4552 200.864 16.4474 200.762 16.3847C200.631 16.3064 200.511 16.2175 200.3 16.2567C200.017 16.309 199.721 16.3273 199.432 16.3586C199.238 16.2776 199.097 16.113 198.818 16.1731C198.648 16.2097 198.469 16.2175 198.296 16.2384C198.063 16.2672 197.83 16.2933 197.597 16.3246C197.347 16.356 197.35 16.3482 196.966 16.194C196.743 16.1026 196.514 16.2045 196.288 16.2202C196.112 16.2332 196.024 16.3534 196.066 16.5075C196.108 16.6616 196.013 16.7818 195.851 16.8027C195.445 16.8523 195.036 16.9045 194.63 16.949C194.581 16.9542 194.521 16.9359 194.475 16.9176C194.041 16.753 194.041 16.7557 193.847 16.7792C193.558 16.8184 193.261 16.8392 192.976 16.8889C192.778 16.9228 192.633 16.868 192.506 16.7792C192.408 16.7113 192.316 16.6956 192.189 16.7113C190.792 16.8863 189.395 17.0482 188.001 17.2285C187.793 17.2546 187.673 17.1789 187.532 17.1083C187.483 17.0848 187.437 17.0352 187.387 17.0352C187.271 17.0352 187.154 17.0587 187.038 17.0744C186.516 17.1371 185.994 17.2128 185.468 17.2598C185.246 17.2807 185.186 17.4009 185.091 17.5002C185.017 17.5759 184.932 17.6073 184.801 17.6177C184.674 17.6282 184.583 17.6151 184.484 17.5472C184.357 17.4584 184.212 17.4035 184.015 17.4401C183.785 17.4819 183.552 17.5002 183.316 17.5289C183.196 17.542 183.104 17.589 183.066 17.683C183.059 17.6987 183.133 17.7379 183.175 17.7614C183.316 17.8398 183.45 17.9312 183.609 17.986C183.771 18.0409 183.948 17.9782 184.117 17.9625C184.177 17.9573 184.233 17.9416 184.29 17.9442C184.343 17.9469 184.406 17.9599 184.445 17.9834C184.629 18.101 184.822 18.182 185.076 18.1114C185.295 18.1454 185.408 18.3622 185.687 18.3047C185.856 18.2708 186.033 18.2551 186.209 18.242C186.255 18.2394 186.304 18.2865 186.354 18.31C186.495 18.3753 186.608 18.4798 186.819 18.4354C187.045 18.3883 187.285 18.3805 187.514 18.3439C187.641 18.323 187.733 18.3413 187.832 18.4092C187.959 18.4954 188.103 18.5607 188.301 18.5189C188.47 18.4824 188.65 18.4745 188.823 18.451C189.049 18.4223 189.049 18.4249 189.451 18.5869C189.497 18.6051 189.557 18.626 189.606 18.6208C189.899 18.5895 190.188 18.5503 190.481 18.5189C190.594 18.5059 190.704 18.5398 190.781 18.6156C190.813 18.6469 190.802 18.6992 190.813 18.7436C190.231 18.8141 189.649 18.8742 189.07 18.9604C188.851 18.9944 188.753 18.8873 188.608 18.8272C188.559 18.8063 188.506 18.7619 188.46 18.7671C188.051 18.8115 187.645 18.8585 187.239 18.916C187.112 18.9343 187.017 18.9238 186.922 18.8481C186.678 18.6469 186.382 18.7567 186.107 18.7854C185.895 18.8063 185.828 18.8873 185.853 19.0597C185.884 19.2634 186.011 19.3261 186.336 19.2896C186.452 19.2765 186.569 19.2582 186.685 19.2478C186.798 19.2373 186.9 19.2713 186.992 19.3418C187.08 19.4123 187.186 19.4489 187.296 19.4385C187.528 19.4149 187.765 19.3914 187.991 19.3523C188.178 19.3209 188.333 19.347 188.463 19.4437C188.608 19.5508 188.777 19.5273 188.947 19.5038C189.342 19.4515 189.345 19.4541 189.592 19.5848C189.642 19.6109 189.691 19.6605 189.737 19.6579C190.143 19.6187 190.552 19.5848 190.951 19.5221C191.159 19.4907 191.279 19.5743 191.416 19.6422C191.466 19.6657 191.515 19.718 191.561 19.7128C191.854 19.684 192.146 19.6553 192.432 19.6056C192.566 19.5821 192.647 19.5978 192.757 19.6605C193.018 19.8146 193.025 19.8094 193.395 19.7598C193.508 19.7441 193.632 19.7154 193.738 19.7363C193.843 19.7572 193.928 19.8329 194.027 19.8799C194.073 19.9008 194.129 19.9296 194.179 19.9243C194.411 19.9034 194.644 19.8721 194.877 19.8434C195.096 19.8146 195.096 19.8173 195.505 19.9792C195.671 20.0471 195.844 19.9897 196.01 19.9688C196.19 19.9452 196.352 19.9453 196.489 20.0471C196.627 20.149 196.793 20.1438 196.969 20.1229C197.135 20.102 197.304 20.0445 197.474 20.1151C197.862 20.277 197.862 20.2796 198.102 20.2483C198.451 20.2038 198.797 20.1621 199.149 20.1229C199.195 20.1176 199.255 20.149 199.301 20.1699C199.4 20.2169 199.485 20.2953 199.59 20.3136C199.696 20.3345 199.82 20.3031 199.933 20.2874C200.296 20.2378 200.321 20.2195 200.564 20.3919C200.769 20.533 201.023 20.3292 201.213 20.4912C201.323 20.5826 201.471 20.6558 201.675 20.6114C201.845 20.5748 202.021 20.5643 202.197 20.5434C202.476 20.5095 202.476 20.5121 202.829 20.6689C202.875 20.6898 202.935 20.7159 202.981 20.7106C203.214 20.6897 203.45 20.6715 203.676 20.6244C203.94 20.5696 204.11 20.6689 204.307 20.7655C204.462 20.8413 204.646 20.7786 204.812 20.7524C204.992 20.7263 205.154 20.7341 205.288 20.836C205.429 20.9405 205.595 20.9275 205.771 20.9066C205.937 20.8883 206.106 20.8282 206.276 20.9013C206.639 21.0633 206.639 21.0633 206.904 21.0319C207.137 21.0032 207.369 20.9719 207.602 20.951C207.648 20.9457 207.705 20.9797 207.75 21.0032C207.849 21.0502 207.934 21.1286 208.04 21.1469C208.146 21.1652 208.269 21.1312 208.385 21.1182C208.502 21.1051 208.625 21.0659 208.731 21.0816C208.837 21.0973 208.936 21.1626 209.021 21.22C209.119 21.288 209.211 21.2958 209.345 21.2697C209.514 21.2357 209.691 21.2279 209.864 21.2096C209.959 21.2592 210.058 21.3088 210.149 21.3637C210.245 21.4212 210.347 21.4159 210.477 21.3977C210.911 21.335 210.915 21.3428 211.278 21.5048C211.444 21.5779 211.617 21.5178 211.783 21.4995C211.959 21.4786 212.125 21.4682 212.263 21.5727C212.397 21.672 212.563 21.685 212.739 21.6537C212.852 21.6328 212.972 21.6197 213.088 21.6119C213.141 21.6093 213.205 21.6197 213.243 21.6406C213.43 21.7503 213.614 21.8496 213.871 21.7791C214.097 21.8 214.21 22.0142 214.482 21.9724C214.711 21.9358 214.951 21.9279 215.177 21.8809C215.385 21.8391 215.533 21.9123 215.639 22.0037C215.829 22.1657 216.098 21.9463 216.288 22.1056C216.397 22.197 216.538 22.2702 216.75 22.231C216.983 22.1892 217.057 22.244 217.124 22.4086C217.163 22.5027 217.156 22.5784 217.085 22.6516C217.015 22.7273 216.937 22.7143 216.824 22.6281C216.694 22.5314 216.539 22.5131 216.352 22.534C216.168 22.5549 216.055 22.4191 215.903 22.3668C215.752 22.312 215.572 22.4034 215.413 22.3329C215.039 22.1683 215.039 22.1683 214.785 22.1996C214.612 22.2205 214.432 22.231 214.263 22.2676C214.062 22.312 213.931 22.231 213.794 22.1578C213.744 22.1317 213.695 22.0821 213.653 22.0847C213.247 22.1239 212.838 22.1605 212.435 22.2258C212.224 22.2597 212.111 22.1657 211.97 22.1004C211.92 22.0769 211.868 22.0298 211.825 22.0351C211.476 22.0716 211.13 22.1187 210.781 22.1631C210.714 22.2336 210.64 22.3015 210.576 22.3773C210.509 22.4556 210.418 22.4896 210.284 22.487C210.061 22.487 209.842 22.5967 209.62 22.4583C209.391 22.3172 209.373 22.325 209.151 22.359C208.869 22.4034 208.569 22.393 208.304 22.4948C208.258 22.5131 208.209 22.5627 208.209 22.5993C208.206 22.6228 208.28 22.6568 208.326 22.6777C208.481 22.7404 208.661 22.649 208.816 22.7143C208.918 22.7561 209.003 22.8187 209.105 22.8631C209.148 22.8814 209.211 22.8788 209.267 22.8762C209.327 22.8736 209.384 22.8553 209.44 22.8579C209.493 22.8606 209.55 22.8762 209.592 22.8997C209.786 22.999 209.991 23.0904 210.164 23.208C210.333 23.3229 210.492 23.2446 210.661 23.2393C211.338 23.4222 211.338 23.4248 211.793 23.3673C211.906 23.3543 212.023 23.3386 212.139 23.3412C212.189 23.3412 212.234 23.3882 212.284 23.4143C212.425 23.4927 212.559 23.5632 212.757 23.5214C212.926 23.4849 213.106 23.477 213.279 23.4535C213.512 23.4248 213.512 23.4248 213.907 23.5894C214.005 23.6312 214.111 23.6259 214.238 23.6051C214.348 23.5868 214.461 23.6259 214.538 23.7017C214.57 23.7331 214.559 23.7853 214.57 23.8297C214.221 23.8715 213.868 23.9002 213.529 23.9629C213.31 24.0021 213.212 23.8898 213.067 23.8297C213.018 23.8088 212.965 23.7644 212.919 23.7696C212.573 23.8088 212.227 23.8532 211.882 23.9054C211.839 23.9107 211.786 23.9707 211.783 24.0073C211.776 24.0752 211.864 24.1405 211.991 24.1379C212.16 24.1353 212.326 24.0909 212.478 24.198C212.605 24.2921 212.764 24.3339 212.951 24.2921C213.063 24.2686 213.183 24.2686 213.296 24.2477C213.596 24.185 213.868 24.198 214.094 24.3757C214.266 24.4227 214.436 24.3783 214.602 24.3548C214.725 24.3365 214.845 24.3182 214.933 24.3678C215.12 24.4723 215.304 24.5768 215.561 24.5063C215.84 24.5794 216.052 24.7335 216.285 24.8589C216.394 24.919 216.479 24.953 216.606 24.9138C216.658 24.8981 216.722 24.8981 216.778 24.8903C216.895 24.8772 217.018 24.838 217.124 24.8537C217.23 24.872 217.318 24.9477 217.413 24.9948C217.459 25.0183 217.512 25.0575 217.558 25.0548C217.734 25.0418 217.907 25.0157 218.08 24.9948C218.253 24.9765 218.426 24.9582 218.599 24.9399C218.743 25.0078 218.892 25.0758 219.036 25.1437C219.269 25.1149 219.502 25.0862 219.731 25.0601C219.989 25.0287 219.989 25.0313 220.359 25.1933C220.525 25.2664 220.701 25.2194 220.86 25.1855C221.125 25.1306 221.301 25.2299 221.488 25.3344C221.527 25.3553 221.598 25.3683 221.643 25.3579C221.827 25.3213 221.986 25.35 222.12 25.4467C222.215 25.5146 222.31 25.546 222.427 25.5329C222.832 25.4833 223.238 25.431 223.644 25.3866C223.693 25.3814 223.75 25.4049 223.795 25.4258C224.155 25.5851 224.159 25.593 224.423 25.5512C224.66 25.5146 224.878 25.4989 225.065 25.6426C225.104 25.674 225.164 25.7184 225.207 25.7158C225.496 25.6896 225.789 25.6609 226.074 25.6165C226.205 25.5956 226.297 25.6034 226.399 25.6635C226.53 25.7393 226.646 25.8307 226.861 25.7968C227.457 25.7001 227.461 25.7157 228.167 25.896C228.216 25.909 228.283 25.8882 228.339 25.8777C228.459 25.8516 228.547 25.8882 228.653 25.9483C228.89 26.0841 228.897 26.0763 229.123 26.0475C229.295 26.024 229.475 26.0188 229.645 25.9796C229.906 25.9221 230.079 26.024 230.273 26.1207C230.428 26.1964 230.608 26.1337 230.774 26.1102C230.954 26.0841 231.116 26.0919 231.25 26.1912C231.342 26.2591 231.44 26.2957 231.557 26.2826C231.963 26.2356 232.368 26.1834 232.774 26.1363C232.823 26.1311 232.883 26.152 232.929 26.1703C233.331 26.3323 233.331 26.3401 233.73 26.28C233.857 26.2617 233.963 26.2565 234.058 26.3114C234.15 26.3636 234.249 26.4132 234.344 26.4629C234.517 26.4446 234.693 26.4394 234.862 26.408C234.993 26.3845 235.085 26.395 235.187 26.4498C235.321 26.5204 235.434 26.6431 235.646 26.583C235.755 26.5543 235.882 26.5621 235.991 26.536C236.122 26.5021 236.21 26.5229 236.312 26.5909C236.44 26.6718 236.57 26.7554 236.775 26.7136C237 26.6666 237.24 26.6588 237.47 26.6222C237.597 26.6013 237.685 26.6222 237.787 26.6901C237.914 26.7763 238.059 26.8312 238.256 26.7972C238.659 26.7319 238.662 26.745 239.054 26.9096C239.152 26.9513 239.258 26.9461 239.385 26.9252C239.495 26.907 239.608 26.9461 239.685 27.0219C239.759 27.1055 239.752 27.1577 239.759 27.2021ZM208.322 3.64205C208.206 3.65511 208.089 3.67078 207.92 3.44351C207.909 3.40433 207.916 3.35732 207.892 3.32336C207.835 3.25283 207.747 3.2032 207.641 3.19536C207.451 3.18491 207.221 3.27371 207.225 3.34163C207.228 3.3991 207.288 3.44872 207.405 3.49575C207.454 3.51403 207.493 3.54538 207.539 3.56628C207.673 3.62636 207.779 3.74394 207.973 3.68385C207.937 3.52189 207.955 3.60287 207.973 3.68385C207.955 3.78312 208.008 3.85365 208.135 3.88239C208.17 3.89023 208.223 3.88499 208.251 3.86931C208.361 3.81184 208.378 3.73349 208.297 3.52712C208.283 3.56108 208.294 3.62114 208.326 3.63682C208.357 3.65249 208.435 3.63945 208.474 3.62116C208.572 3.57153 208.622 3.50621 208.597 3.45136C208.583 3.42262 208.516 3.38605 208.474 3.38605C208.4 3.38605 208.333 3.44352 208.322 3.64205ZM236.849 33.9366C236.591 33.9862 236.295 33.9679 236.037 34.0698C235.991 34.0881 235.946 34.1351 235.942 34.1717C235.939 34.1952 236.009 34.2292 236.051 34.2475C236.147 34.2892 236.252 34.2762 236.376 34.2631C236.563 34.2448 236.672 34.365 236.817 34.4251C236.863 34.4434 236.923 34.4564 236.972 34.4512C237.258 34.4198 237.54 34.3859 237.826 34.3493C237.875 34.3415 237.928 34.3232 237.971 34.2997C238.112 34.2239 238.098 34.1743 237.96 34.1168C237.808 34.0541 237.688 33.9496 237.533 33.9C237.311 33.8295 237.085 33.9235 236.849 33.9366ZM216.814 35.8435C216.641 35.8644 216.471 35.8853 216.299 35.9062C216.242 35.9141 216.182 35.9167 216.129 35.9271C216.02 35.9454 215.939 36.0003 215.886 36.0865C215.967 36.1544 216.066 36.1936 216.175 36.1857C216.348 36.1701 216.517 36.1361 216.69 36.1283C216.877 36.1178 216.987 36.2354 217.131 36.2955C217.177 36.3137 217.233 36.3164 217.286 36.319C217.547 36.3294 217.706 36.1936 217.657 36.0029C217.622 35.854 217.488 35.7652 217.325 35.7835C217.156 35.8018 216.983 35.8226 216.814 35.8435ZM238.055 30.0756C238.098 30.0312 238.143 29.9999 238.165 29.9607C238.228 29.8275 238.203 29.7282 238.087 29.6237C237.946 29.4957 237.773 29.5819 237.614 29.595C237.575 29.5976 237.533 29.6524 237.512 29.6864C237.498 29.7099 237.498 29.7596 237.519 29.7726C237.692 29.8771 237.875 29.9737 238.055 30.0756ZM207.451 22.359C207.281 22.3799 207.108 22.3956 206.939 22.4243C206.897 22.4321 206.858 22.4818 206.833 22.5157C206.787 22.5784 206.837 22.6646 206.981 22.6725C207.147 22.6829 207.32 22.6385 207.493 22.6176C207.712 22.5915 207.842 22.4948 207.761 22.4112C207.683 22.3302 207.578 22.3146 207.451 22.359ZM21.7446 16.7766C21.8575 16.7635 21.9739 16.753 22.0868 16.7348C22.1927 16.7165 22.2739 16.659 22.3268 16.5728C22.2386 16.5049 22.1398 16.4683 22.0304 16.4761C21.8575 16.4918 21.6882 16.5127 21.5189 16.5388C21.413 16.5545 21.3108 16.612 21.2861 16.7008C21.2614 16.7687 21.4977 16.8079 21.7446 16.7766ZM192.531 16.3743C192.577 16.3978 192.623 16.4448 192.669 16.4448C192.781 16.4448 192.898 16.4291 193.004 16.403C193.05 16.3925 193.085 16.3455 193.106 16.309C193.12 16.2854 193.117 16.2437 193.096 16.2228C192.993 16.0974 192.584 16.1418 192.517 16.2855C192.51 16.3116 192.528 16.3455 192.531 16.3743ZM181.4 2.06945C181.411 2.11125 181.415 2.15304 181.429 2.19484C181.457 2.27321 181.534 2.33069 181.647 2.36987C181.736 2.30457 181.781 2.23143 181.778 2.15306C181.774 2.11127 181.764 2.06945 181.75 2.02765C181.721 1.94928 181.644 1.89183 181.531 1.85265C181.443 1.91534 181.4 1.98847 181.4 2.06945ZM246.208 36.2981C246.176 36.332 246.145 36.366 246.109 36.3973C246.205 36.4731 246.293 36.4966 246.36 36.4548C246.402 36.4287 246.427 36.3895 246.459 36.3555C246.364 36.2798 246.279 36.2589 246.208 36.2981ZM244.014 36.6533C244.06 36.6769 244.102 36.7082 244.152 36.7239C244.233 36.75 244.307 36.7056 244.363 36.6115C244.317 36.588 244.275 36.5567 244.226 36.541C244.144 36.5149 244.07 36.5593 244.014 36.6533ZM245.404 36.1753C245.379 36.238 245.429 36.2902 245.559 36.3347C245.591 36.3007 245.633 36.2693 245.654 36.2328C245.69 36.1727 245.63 36.1178 245.503 36.076C245.467 36.1074 245.436 36.1413 245.404 36.1753ZM237.956 33.3593C237.932 33.422 237.981 33.4742 238.112 33.5186C238.143 33.4847 238.186 33.4533 238.207 33.4167C238.242 33.3567 238.182 33.3018 238.055 33.26C238.02 33.2914 237.988 33.3253 237.956 33.3593ZM227.81 14.8748C227.778 14.9088 227.747 14.9427 227.711 14.9741C227.807 15.0498 227.895 15.0733 227.962 15.0316C228.004 15.0054 228.029 14.9662 228.061 14.9323C227.965 14.8565 227.881 14.8356 227.81 14.8748ZM218.091 5.06834C218.175 5.08662 218.246 5.05007 218.306 4.95341C218.26 4.9299 218.218 4.89855 218.168 4.88288C218.087 4.85676 218.013 4.90118 217.957 4.99522C218.003 5.02134 218.048 5.04483 218.091 5.06834ZM212.929 4.45446C212.898 4.48842 212.866 4.52238 212.831 4.55373C212.926 4.62948 213.014 4.65299 213.081 4.61119C213.123 4.58507 213.148 4.54588 213.18 4.51192C213.085 4.43617 213 4.41789 212.929 4.45446ZM177.929 2.06684C177.897 2.1008 177.866 2.13476 177.83 2.16611C177.925 2.24186 178.014 2.26537 178.081 2.22357C178.123 2.19745 178.148 2.15826 178.179 2.1243C178.084 2.04855 178 2.03027 177.929 2.06684ZM3.65346 23.3203C3.60759 23.2968 3.56177 23.2733 3.51944 23.2472C3.41713 23.3177 3.38539 23.383 3.44183 23.4326C3.47711 23.464 3.52999 23.4823 3.57585 23.5058C3.68169 23.4353 3.70637 23.3725 3.65346 23.3203Z" fill="#9896FF"/>
<path d="M24.1159 14.096C23.7102 14.1456 23.308 14.2083 22.9023 14.2396C22.6871 14.2553 22.6096 14.3676 22.5214 14.4721C22.4508 14.5557 22.3696 14.5818 22.2391 14.5975C21.1384 14.7255 20.0412 14.8614 18.944 14.9946C18.8064 14.9606 18.7394 14.9058 18.7711 14.8405C18.7888 14.8013 18.8311 14.7464 18.8735 14.7412C19.6249 14.6446 20.3728 14.5453 21.1278 14.4695C21.343 14.4486 21.403 14.3337 21.5123 14.2396C21.5476 14.2083 21.5759 14.1613 21.6217 14.143C21.6676 14.1221 21.7346 14.1247 21.7946 14.1195C23.0082 13.9706 24.2218 13.8243 25.4354 13.6754C25.573 13.7094 25.64 13.7642 25.6083 13.8295C25.5906 13.8687 25.5483 13.9236 25.506 13.9288C25.0403 13.9837 24.5781 14.0385 24.1159 14.096Z" fill="#FFE492"/>
<path d="M246.253 28.007C246.07 28.0384 245.837 28.0828 245.647 27.9313C245.555 27.8581 245.456 27.8346 245.336 27.8503C245.163 27.8764 244.987 27.8973 244.811 27.913C244.765 27.9156 244.705 27.8869 244.659 27.8634C244.56 27.8163 244.475 27.738 244.37 27.7171C244.264 27.6962 244.137 27.7536 244.027 27.7406C243.883 27.7223 243.823 27.6518 243.862 27.5865C243.883 27.5499 243.925 27.4977 243.971 27.4898C244.624 27.3932 244.627 27.3932 244.811 27.4872C244.952 27.5603 245.082 27.6413 245.283 27.5969C245.453 27.5603 245.633 27.5525 245.805 27.529C246.045 27.4976 246.045 27.5002 246.433 27.6648C246.532 27.7066 246.638 27.704 246.765 27.6805C246.874 27.6622 246.98 27.704 247.068 27.7745C247.012 27.8634 246.931 27.9208 246.821 27.9365C246.645 27.9626 246.472 27.9809 246.253 28.007Z" fill="#FFE492"/>
<path d="M239.758 27.2016C240.203 27.1468 240.651 27.0998 241.096 27.0371C241.279 27.011 241.424 27.0397 241.551 27.1285C241.688 27.2252 241.843 27.2173 242.013 27.1991C242.119 27.1886 242.221 27.2304 242.292 27.3035C242.32 27.3323 242.313 27.3845 242.323 27.4263C241.935 27.4733 241.544 27.5229 241.152 27.5647C241.106 27.57 241.05 27.5439 241.007 27.523C240.912 27.4786 240.831 27.4002 240.729 27.3845C240.51 27.3479 240.291 27.4185 240.069 27.4315C239.963 27.4367 239.861 27.3976 239.79 27.3271C239.762 27.2931 239.769 27.2434 239.758 27.2016Z" fill="#FFE492"/>
<path d="M79.1165 4.74167C79.5786 4.6842 80.0407 4.62937 80.5029 4.5719C80.6405 4.60847 80.704 4.66071 80.6758 4.72601C80.6581 4.7652 80.6158 4.82006 80.5734 4.82528C79.6491 4.94283 78.7249 5.05515 77.8041 5.16747C77.6665 5.1309 77.603 5.07867 77.6312 5.01336C77.6489 4.97417 77.6912 4.91932 77.7335 4.91409C78.1922 4.85401 78.6543 4.79914 79.1165 4.74167Z" fill="#FFE492"/>
<path d="M7.90217 19.2579C7.69414 19.2632 7.47556 19.3598 7.24284 19.2867C7.197 19.2736 7.13352 19.2318 7.13704 19.2083C7.14409 19.1691 7.18641 19.1195 7.23225 19.1038C7.43324 19.0385 7.68362 19.0306 7.78587 18.8478C7.83524 18.7537 7.92692 18.7224 8.05033 18.7041C8.18079 18.6832 8.27244 18.691 8.3747 18.7459C8.50869 18.8164 8.62154 18.9471 8.83311 18.8791C8.84369 18.9209 8.86831 18.9679 8.85773 19.0071C8.84715 19.0463 8.80139 19.0829 8.75907 19.1116C8.72029 19.1378 8.66734 19.1613 8.61798 19.1691C8.38526 19.2004 8.15253 19.2266 7.90217 19.2579Z" fill="#FFE492"/>
<path d="M191.382 18.7331C191.554 18.7121 191.734 18.7017 191.904 18.665C192.038 18.6362 192.122 18.6545 192.228 18.7174C192.408 18.8273 192.419 18.8169 192.86 18.8326C192.909 18.8352 192.969 18.8744 192.997 18.9085C193.015 18.9268 192.99 18.9766 192.969 19.0028C192.937 19.0368 192.891 19.0813 192.849 19.0813C192.57 19.0891 192.288 19.2436 192.017 19.0656C191.879 18.9766 191.727 18.9347 191.54 18.9739C191.427 18.9975 191.307 19.008 191.191 19.0184C191.078 19.0289 190.962 19.0001 190.891 18.9216C190.789 18.8064 190.849 18.7619 191.032 18.7697C191.149 18.775 191.265 18.7462 191.382 18.7331Z" fill="#FFE492"/>
<path d="M255.32 36.7399C255.542 36.7137 255.764 36.6824 255.99 36.6615C256.035 36.6563 256.092 36.685 256.134 36.7033C256.303 36.7817 256.279 36.9149 256.286 37.0324C256.289 37.1552 255.898 37.2545 255.732 37.1709C255.549 37.0769 255.383 36.9698 255.129 37.0272C255.03 37.0481 254.914 37.0011 254.851 36.9254C254.755 36.8156 254.808 36.7712 254.988 36.7791C255.094 36.7843 255.207 36.7555 255.32 36.7399Z" fill="#FFE492"/>
<path d="M143.317 1.18399C143.546 1.15519 143.776 1.11071 144.005 1.10809C144.139 1.10547 144.206 1.19185 144.174 1.25469C144.156 1.29396 144.114 1.34894 144.072 1.35418C143.613 1.41701 143.155 1.46938 142.697 1.52698C142.563 1.49033 142.496 1.43536 142.527 1.37252C142.545 1.33325 142.587 1.28089 142.63 1.27303C142.859 1.23638 143.088 1.21279 143.317 1.18399Z" fill="#FFE492"/>
<path d="M250.921 28.2368C251.143 28.2107 251.369 28.1714 251.591 28.1583C251.707 28.153 251.799 28.2132 251.813 28.2813C251.82 28.3127 251.764 28.3677 251.718 28.3808C251.401 28.4698 251.059 28.4803 250.727 28.5248C250.621 28.5379 250.509 28.496 250.445 28.4227C250.35 28.3101 250.403 28.2683 250.583 28.2761C250.696 28.2787 250.808 28.2499 250.921 28.2368Z" fill="#FFE492"/>
<path d="M197.208 19.086C197.321 19.0729 197.437 19.0389 197.547 19.0493C197.663 19.0624 197.737 19.1384 197.773 19.2143C197.811 19.3007 197.808 19.3818 197.773 19.4552C197.716 19.5808 197.66 19.5756 197.529 19.4918C197.328 19.3609 197.314 19.3766 196.916 19.3818C196.87 19.3818 196.813 19.3426 196.778 19.3085C196.725 19.2562 196.753 19.175 196.877 19.1279C196.969 19.0939 197.095 19.0991 197.208 19.086Z" fill="#FFE492"/>
<path d="M242.655 27.3797C242.821 27.3588 242.986 27.3249 243.152 27.3249C243.268 27.3223 243.36 27.3823 243.371 27.4475C243.374 27.4789 243.321 27.531 243.279 27.5467C243.078 27.6172 242.852 27.6224 242.634 27.6459C242.531 27.6563 242.419 27.6145 242.355 27.5415C242.26 27.4319 242.316 27.3823 242.489 27.3979C242.542 27.4032 242.598 27.3875 242.655 27.3797Z" fill="#FFE492"/>
<path d="M216.559 24.1746C216.313 24.2059 216.08 24.1668 216.097 24.0989C216.122 24.0102 216.224 23.9528 216.33 23.9371C216.499 23.911 216.669 23.8901 216.841 23.8745C216.951 23.864 217.049 23.9032 217.138 23.971C217.085 24.0545 217.004 24.1145 216.898 24.1328C216.789 24.1511 216.672 24.1615 216.559 24.1746Z" fill="#FFE492"/>
<path d="M214.942 23.8401C215.108 23.8193 215.274 23.7854 215.439 23.7854C215.556 23.7828 215.647 23.8428 215.658 23.908C215.661 23.9393 215.609 23.9915 215.566 24.0071C215.365 24.0776 215.14 24.0828 214.921 24.1063C214.819 24.1167 214.706 24.075 214.642 24.0019C214.547 23.8923 214.604 23.8428 214.776 23.8584C214.829 23.8636 214.886 23.848 214.942 23.8401Z" fill="#FFE492"/>
<path d="M195.209 19.0645C195.374 19.0436 195.54 19.0096 195.706 19.007C195.822 19.0044 195.914 19.0645 195.924 19.1297C195.928 19.161 195.875 19.2106 195.833 19.2289C195.632 19.2993 195.406 19.3045 195.187 19.328C195.085 19.3385 194.972 19.2967 194.909 19.2236C194.814 19.114 194.87 19.0645 195.043 19.0801C195.096 19.0853 195.152 19.0697 195.209 19.0645Z" fill="#FFE492"/>
<path d="M194.28 18.9109C194.457 18.89 194.513 18.877 194.57 18.877C194.675 18.877 194.785 18.9083 194.848 18.9839C194.943 19.0935 194.887 19.1249 194.714 19.1301C194.492 19.1353 194.273 19.1901 194.051 19.2005C193.935 19.2058 193.843 19.1431 193.836 19.0779C193.833 19.0466 193.885 18.9918 193.928 18.9813C194.076 18.9422 194.238 18.9187 194.28 18.9109Z" fill="#FFE492"/>
<path d="M213.505 3.54239C213.392 3.55544 213.272 3.59197 213.166 3.57893C213.025 3.56066 212.969 3.49022 213.004 3.42498C213.025 3.38845 213.064 3.33627 213.106 3.32844C213.332 3.29191 213.561 3.2684 213.787 3.24231C213.921 3.28145 213.981 3.33624 213.945 3.40148C213.924 3.43801 213.885 3.48758 213.843 3.49802C213.734 3.52412 213.617 3.52935 213.505 3.54239Z" fill="#FFE492"/>
<path d="M76.5847 5.04933C76.694 5.04673 76.7927 5.08065 76.8773 5.14588C76.8244 5.22938 76.7469 5.28417 76.6411 5.30766C76.5882 5.3181 76.5282 5.32591 76.4718 5.32852C76.3625 5.33374 76.2638 5.29721 76.1791 5.23198C76.232 5.14848 76.3131 5.09368 76.4154 5.0702C76.4682 5.05976 76.5283 5.05716 76.5847 5.04933Z" fill="#FFE492"/>
<path d="M249.716 28.2262C249.713 28.1506 249.928 28.0645 250.122 28.0671C250.224 28.0697 250.33 28.1062 250.39 28.1767C250.482 28.2837 250.429 28.3254 250.256 28.3176C250.15 28.3123 250.037 28.3567 249.932 28.3489C249.812 28.3463 249.741 28.2889 249.716 28.2262Z" fill="#FFE492"/>
<path d="M198.232 19.4014C198.228 19.3727 198.211 19.3388 198.221 19.3127C198.288 19.1691 198.694 19.1248 198.8 19.25C198.817 19.2735 198.824 19.3126 198.81 19.3361C198.789 19.3727 198.75 19.4196 198.708 19.4301C198.599 19.4562 198.486 19.4692 198.373 19.4718C198.324 19.4718 198.278 19.4275 198.232 19.4014Z" fill="#FFE492"/>
<path d="M9.15555 18.8403C8.73947 18.8951 8.73242 18.8898 8.80647 18.7594C8.87347 18.6419 8.9969 18.5715 9.17673 18.5715C9.22962 18.5715 9.28602 18.5663 9.33185 18.5767C9.38122 18.5898 9.45178 18.6158 9.46236 18.6471C9.48352 18.7072 9.42352 18.7724 9.31774 18.8168C9.2719 18.8376 9.21197 18.8324 9.15555 18.8403Z" fill="#FFE492"/>
<path d="M81.7961 4.68156C81.6727 4.72592 81.5669 4.71027 81.4894 4.62677C81.4118 4.54327 81.5352 4.44411 81.7503 4.42062C81.8067 4.4154 81.8667 4.39455 81.9195 4.40498C81.9724 4.41281 82.0254 4.4441 82.0571 4.47541C82.1135 4.5276 82.0783 4.59807 81.9654 4.65808C81.9196 4.68157 81.8525 4.67634 81.7961 4.68156Z" fill="#FFE492"/>
<path d="M248.98 28.0299C249.011 27.996 249.043 27.9621 249.078 27.9308C249.209 27.9751 249.265 28.0273 249.23 28.0873C249.209 28.1239 249.166 28.1552 249.135 28.1891C249.004 28.1448 248.951 28.09 248.98 28.0299Z" fill="#FFE492"/>
<path d="M14.7456 48.578C14.7456 48.5467 14.795 48.4971 14.8338 48.4867C14.9078 48.4684 14.9994 48.505 15.0629 48.578C15.1511 48.6824 15.0982 48.7372 14.936 48.7085C14.8232 48.6876 14.7456 48.6354 14.7456 48.578Z" fill="#FFE492"/>
<path d="M199.668 16.9701C199.713 16.9936 199.759 17.0171 199.802 17.0432C199.742 17.1397 199.668 17.1815 199.59 17.1554C199.541 17.1397 199.498 17.1084 199.453 17.0849C199.512 16.9884 199.583 16.9519 199.668 16.9701Z" fill="#FFE492"/>
<path d="M198.447 16.8528C198.517 16.8137 198.602 16.8346 198.701 16.9102C198.669 16.9442 198.641 16.9833 198.602 17.0094C198.535 17.0512 198.447 17.0303 198.352 16.952C198.38 16.9207 198.411 16.8867 198.447 16.8528Z" fill="#FFE492"/>
<path d="M197.512 16.9675C197.558 16.991 197.604 17.0145 197.646 17.0406C197.586 17.1371 197.516 17.1788 197.435 17.1528C197.385 17.1371 197.343 17.1058 197.297 17.0823C197.357 16.9857 197.428 16.9466 197.512 16.9675Z" fill="#FFE492"/>
<path d="M196.824 16.8293C196.877 16.8815 196.849 16.9441 196.746 17.0145C196.701 16.9911 196.648 16.9728 196.612 16.9415C196.556 16.8919 196.584 16.8267 196.69 16.7562C196.732 16.7823 196.778 16.8058 196.824 16.8293Z" fill="#FFE492"/>
</svg>
